<?xml version="1.0" encoding="UTF-8"?>
<svg version="1.1" xmlns="http://www.w3.org/2000/svg" width="480" height="480">
<path d="M0 0 C0.59732819 2.76264289 1 5.16032769 1 8 C6.48797363 8.29934402 10.50924503 7.75725195 15.62890625 5.75390625 C25.49945514 2.61549449 39.07628522 4.0067809 48.45043945 8.61303711 C53.74526584 11.49342672 58.22509653 14.19796525 62 19 C63.32106773 24.06242538 63.25601363 28.8371316 63.08596802 34.04302979 C62.92858434 38.99874402 62.96726411 43.95628835 62.96484375 48.9140625 C62.95589333 50.61748306 62.95589333 50.61748306 62.94676208 52.35531616 C62.91890912 62.75837577 63.27148853 73.1302889 63.69140625 83.5234375 C63.72609575 84.3889152 63.76078526 85.25439289 63.79652596 86.14609718 C63.94022544 89.72541653 64.08485694 93.30469673 64.23065662 96.88393116 C65.84530166 136.60649711 66.40702054 176.24827606 66 216 C59.77455026 219.31065881 54.42868428 219.41603486 47.45996094 219.35644531 C45.71858699 219.35947363 45.71858699 219.35947363 43.94203377 219.36256313 C40.72192028 219.36501434 37.50218446 219.35392952 34.282125 219.33699965 C30.78307251 219.32183526 27.28402212 219.3239344 23.78494263 219.32368469 C16.87138123 219.32033189 9.95795917 219.30034466 3.04444778 219.27485365 C-2.64775293 219.25427513 -8.33993561 219.24048644 -14.03216553 219.23117065 C-14.84896369 219.22982449 -15.66576185 219.22847833 -16.50731146 219.22709137 C-18.1715118 219.22435904 -19.83571215 219.22162966 -21.4999125 219.21890318 C-43.05057175 219.18208696 -64.60102557 219.10117759 -86.15152168 219.01177883 C-89.01067683 218.99995585 -91.86983263 218.98830213 -94.72898865 218.9766922 C-182.48712077 218.61949636 -270.24908501 218.2389632 -358 217 C-358.33 216.01 -358.66 215.02 -359 214 C-360.62948064 212.77554716 -360.62948064 212.77554716 -362.5625 211.8125 C-363.696875 211.214375 -364.83125 210.61625 -366 210 C-366 209.34 -366 208.68 -366 208 C-366.928125 207.731875 -367.85625 207.46375 -368.8125 207.1875 C-371.85688595 206.053317 -372.89711622 205.30315842 -375 203 C-375.99 202.67 -376.98 202.34 -378 202 C-378 201.34 -378 200.68 -378 200 C-378.59554687 199.74347656 -379.19109375 199.48695313 -379.8046875 199.22265625 C-382.19696371 197.89030313 -383.42728199 196.56631395 -385.125 194.4375 C-387.20903634 191.78974334 -387.20903634 191.78974334 -390 190 C-391.31886235 186.03543273 -391.33935345 181.89101465 -391.5625 177.75 C-391.60568359 177.00492188 -391.64886719 176.25984375 -391.69335938 175.4921875 C-391.79896725 173.661651 -391.89994201 171.83084824 -392 170 C-392.66 170 -393.32 170 -394 170 C-397.3087933 167.34485805 -398.82468496 165.70766435 -399.85546875 161.546875 C-399.96503906 160.29390625 -400.07460938 159.0409375 -400.1875 157.75 C-400.57274697 153.66892219 -400.9965463 149.88539449 -402.03125 145.921875 C-403.51522722 139.51568685 -403.34032561 133.04392785 -403.3125 126.5 C-403.31100952 125.83492432 -403.30951904 125.16984863 -403.3079834 124.48461914 C-403.26578216 114.01241293 -402.57932178 104.17337647 -400 94 C-399.70996094 92.84628906 -399.41992188 91.69257813 -399.12109375 90.50390625 C-398.16276647 86.97132746 -397.10662273 83.4889866 -396 80 C-395.63720947 78.85023682 -395.63720947 78.85023682 -395.26708984 77.67724609 C-394.48008794 75.19801911 -393.6804668 72.72328574 -392.875 70.25 C-392.62129639 69.46246338 -392.36759277 68.67492676 -392.10620117 67.86352539 C-390.23495727 62.23495727 -390.23495727 62.23495727 -388 60 C-385.95117188 59.41333008 -385.95117188 59.41333008 -383.46875 58.95703125 C-382.56898438 58.79154785 -381.66921875 58.62606445 -380.7421875 58.45556641 C-376.67158467 57.77930707 -372.59110488 57.22308629 -368.5 56.6875 C-360.2720896 55.56659626 -352.14436006 54.11578243 -344 52.5 C-332.70619329 50.26852238 -321.41171107 48.49810313 -310 47 C-307.05016356 46.61037079 -304.1005331 46.21938194 -301.15136719 45.82470703 C-299.28278976 45.57533276 -297.41367938 45.32990408 -295.54394531 45.08935547 C-290.70477385 44.44820629 -286.00065448 43.58790266 -281.24707031 42.48413086 C-277.28024301 41.62947869 -273.26892914 41.10840838 -269.25 40.5625 C-268.3518457 40.43689697 -267.45369141 40.31129395 -266.52832031 40.18188477 C-262.72925339 39.65071526 -258.92903801 39.12797973 -255.12890625 38.60449219 C-252.33551967 38.21843773 -249.54276025 37.82805555 -246.75 37.4375 C-245.90598633 37.322854 -245.06197266 37.20820801 -244.19238281 37.09008789 C-240.19313341 36.53039953 -236.27095055 35.86895491 -232.3359375 34.95703125 C-228.52066664 34.07597644 -224.77963859 33.60420048 -220.875 33.25 C-212.42252155 32.3775684 -204.13665186 30.72728029 -195.8125 29.0625 C-184.10351483 26.72581889 -172.41251241 24.81481325 -160.56298828 23.33105469 C-156.11694444 22.7567705 -151.68363169 22.09994895 -147.25 21.4375 C-146.46407471 21.32253174 -145.67814941 21.20756348 -144.8684082 21.08911133 C-140.90702798 20.49581219 -136.98562339 19.80984366 -133.0625 19 C-127.98250646 17.96269556 -122.88971766 17.23257038 -117.75 16.5625 C-116.81196533 16.43689697 -115.87393066 16.31129395 -114.9074707 16.18188477 C-110.93501801 15.65017556 -106.96156331 15.12625487 -102.98779297 14.60449219 C-100.05394897 14.21854829 -97.12072986 13.82807955 -94.1875 13.4375 C-93.2996582 13.322854 -92.41181641 13.20820801 -91.49707031 13.09008789 C-86.63341752 12.441386 -81.90702068 11.56179592 -77.12866211 10.45288086 C-73.83828728 9.75284126 -70.53107424 9.41252522 -67.1875 9.0625 C-55.15009509 7.72787102 -43.02646985 6.32331811 -31.25 3.4375 C-21.04506399 0.93886876 -10.5088574 -0.37531634 0 0 Z " fill="#E2E5E8" transform="translate(414,110)"/>
<path d="M0 0 C1.19395461 8.35768228 1.07586396 16.57432158 1 25 C-9.64739938 25.69273321 -20.29133379 26.13111977 -30.95703125 26.4296875 C-32.87006546 26.48434174 -32.87006546 26.48434174 -34.82174683 26.5401001 C-40.10687381 26.68999636 -45.39197368 26.83856935 -50.67749023 26.97412109 C-66.62925083 27.38866263 -82.51418491 28.12367019 -98.43121338 29.26374245 C-123.90855631 31.08642976 -149.37907908 31.92389538 -174.90966797 32.59667969 C-180.70493354 32.75135316 -186.49990947 32.91623915 -192.29492188 33.08007812 C-203.52969698 33.39630006 -214.76473068 33.70188863 -226 34 C-210.75003967 34.0629668 -195.50007376 34.10258505 -180.25 34.125 C-178.51248474 34.12756805 -178.51248474 34.12756805 -176.73986816 34.13018799 C-132.80324313 34.18730789 -88.89665691 33.57816934 -44.97094345 32.64076042 C-35.1318102 32.43095479 -25.29251542 32.23166259 -15.45288086 32.04681396 C-13.14627596 32.00279172 -10.8397429 31.95598209 -8.53320312 31.90869141 C-4.89729207 31.83615621 -1.26143293 31.78943775 2.375 31.75 C3.35549316 31.7286499 4.33598633 31.7072998 5.34619141 31.68530273 C6.20905762 31.68087158 7.07192383 31.67644043 7.9609375 31.671875 C8.68071777 31.6625293 9.40049805 31.65318359 10.14208984 31.64355469 C12.60078895 32.11526306 13.44455376 33.07610619 15 35 C15.9841866 36.9352913 16.91722386 38.89700699 17.8125 40.875 C20.30139114 46.0265702 22.43518295 48.68013305 27 52 C27.45052734 52.94166016 27.45052734 52.94166016 27.91015625 53.90234375 C30.22157521 58.3512039 34.66778149 60.74681098 39 63 C47.53057922 65.64041738 56.10610407 66.49924156 65 66 C65.33 64.68 65.66 63.36 66 62 C66.99 62.33 67.98 62.66 69 63 C69 63.99 69 64.98 69 66 C70.98 66 72.96 66 75 66 C72.77751447 68.55585836 71.30623523 69.38245468 68 70 C66.37016231 70.0890364 64.73711085 70.12626406 63.10484314 70.12698364 C61.61732701 70.13121763 61.61732701 70.13121763 60.09976006 70.13553715 C58.4666447 70.13249655 58.4666447 70.13249655 56.80053711 70.12939453 C55.64005922 70.13112136 54.47958134 70.13284819 53.28393745 70.13462734 C50.05138053 70.13824987 46.81886317 70.13728453 43.58630681 70.13421178 C40.79906593 70.13231756 38.01183163 70.13398703 35.22459096 70.13566166 C26.75959006 70.14070242 18.29461088 70.1358864 9.82961273 70.12877274 C4.93061856 70.12473946 0.03162487 70.12290927 -4.86737061 70.12130737 C-95.13157945 70.08802918 -185.40010532 69.68334124 -349 68 C-349.33 67.01 -349.66 66.02 -350 65 C-351.62948064 63.77554716 -351.62948064 63.77554716 -353.5625 62.8125 C-354.696875 62.214375 -355.83125 61.61625 -357 61 C-357 60.34 -357 59.68 -357 59 C-357.928125 58.731875 -358.85625 58.46375 -359.8125 58.1875 C-362.85688595 57.053317 -363.89711622 56.30315842 -366 54 C-367.485 53.505 -367.485 53.505 -369 53 C-369 52.34 -369 51.68 -369 51 C-369.59554687 50.74347656 -370.19109375 50.48695313 -370.8046875 50.22265625 C-373.19696371 48.89030313 -374.42728199 47.56631395 -376.125 45.4375 C-378.20903634 42.78974334 -378.20903634 42.78974334 -381 41 C-382.31886235 37.03543273 -382.33935345 32.89101465 -382.5625 28.75 C-382.60568359 28.00492187 -382.64886719 27.25984375 -382.69335938 26.4921875 C-382.79896725 24.661651 -382.89994201 22.83084824 -383 21 C-383.66 21 -384.32 21 -385 21 C-385.33 19.35 -385.66 17.7 -386 16 C-373.16722568 15.73598979 -360.33439323 15.47501908 -347.50148296 15.21769714 C-341.53961398 15.09806082 -335.57776801 14.9774628 -329.6159668 14.85449219 C-278.19601591 13.79520187 -278.19601591 13.79520187 -257 14 C-257 13.34 -257 12.68 -257 12 C-255.79915771 11.98018066 -254.59831543 11.96036133 -253.36108398 11.93994141 C-225.40833958 11.54677206 -225.40833958 11.54677206 -197.5 10.0625 C-183.62563614 9.01472407 -169.75320633 8.63072945 -155.84683228 8.23770142 C-131.7083283 7.55276726 -107.69557976 6.32689493 -83.62646484 4.32080078 C-82.57668961 4.23388977 -81.52691437 4.14697876 -80.44532776 4.05743408 C-78.51519366 3.89587512 -76.58540697 3.73007316 -74.65611267 3.55877686 C-68.75628185 3.05657599 -62.92028302 2.908025 -57 3 C-57.33 3.66 -57.66 4.32 -58 5 C-59.07636719 5.04898437 -60.15273438 5.09796875 -61.26171875 5.1484375 C-62.73699691 5.22361091 -64.21225637 5.299152 -65.6875 5.375 C-66.7403418 5.42140625 -66.7403418 5.42140625 -67.81445312 5.46875 C-72.22218803 5.70382919 -76.5133542 6.20408598 -80.87109375 6.91015625 C-89.66655113 8.32122649 -98.51560779 9.16533559 -107.375 10.0625 C-109.92627717 10.32294792 -112.47744888 10.58435867 -115.0284729 10.84727478 C-116.60104449 11.00914467 -118.17376936 11.16953522 -119.74667358 11.32814026 C-124.18353782 11.78246396 -128.58885017 12.34032434 -133 13 C-69.16197238 14.53950883 -69.16197238 14.53950883 -7.37280273 0.92236328 C-4.75496296 -0.09525156 -2.78355886 -0.15906051 0 0 Z " fill="#A1A7B0" transform="translate(405,259)"/>
<path d="M0 0 C1.19395461 8.35768228 1.07586396 16.57432158 1 25 C-9.64737481 25.69273161 -20.29133109 26.13172642 -30.95703125 26.4296875 C-32.21593674 26.46503601 -33.47484222 26.50038452 -34.77189636 26.5368042 C-36.74286174 26.5919683 -38.71382719 26.64713001 -40.68479824 26.70209122 C-60.38044485 27.25308088 -80.05246275 27.83026479 -99.70507812 29.30453491 C-150.09637525 33.08211284 -200.72331109 33.24211605 -251.23015976 34.05686569 C-254.68170666 34.11260239 -258.13323444 34.16943748 -261.58475834 34.22657818 C-300.39452322 34.86804047 -339.18578655 35.12228589 -378 35 C-378 31.37 -378 27.74 -378 24 C-348.98833191 21.9556729 -319.94294198 21.03333698 -290.87890625 20.06671143 C-280.61133239 19.72468515 -270.34397293 19.37638646 -260.07669067 19.02572823 C-256.53808905 18.90575416 -252.99940204 18.78862716 -249.46069336 18.67185974 C-239.44444228 18.3358776 -229.44099993 17.95561984 -219.43856335 17.32630634 C-214.41088586 17.01188649 -209.3997205 16.83813818 -204.36328125 16.7890625 C-202.58942934 16.76295639 -200.81558525 16.7363155 -199.04174805 16.70922852 C-198.11405609 16.69594513 -197.18636414 16.68266174 -196.2305603 16.66897583 C-173.07299627 16.31998609 -149.93368061 15.53310244 -126.79110336 14.65990448 C-124.21127516 14.56338946 -121.63136775 14.46935631 -119.05142212 14.3760376 C-93.9722955 13.47732776 -93.9722955 13.47732776 -68.98556519 11.22262573 C-65.80725055 10.86626643 -62.62123799 10.61647375 -59.43359375 10.359375 C-32.86734927 8.18741056 -32.86734927 8.18741056 -7.34204102 0.92016602 C-4.73852666 -0.10273043 -2.77203629 -0.15840207 0 0 Z " fill="#182122" transform="translate(405,259)"/>
<path d="M0 0 C14.70714428 -0.06619622 29.40772512 0.01848369 44.11328125 0.21875 C45.788655 0.24121979 47.46402937 0.26364422 49.1394043 0.286026 C49.99282284 0.29743087 50.84624138 0.30883574 51.72552109 0.3205862 C52.59420948 0.33217801 53.46289787 0.34376982 54.35791016 0.35571289 C55.24129185 0.3675036 56.12467354 0.3792943 57.03482437 0.3914423 C98.0654961 0.93580143 139.09142587 1.08918245 180.125 1.0625 C181.11771746 1.06186365 181.11771746 1.06186365 182.13048983 1.06121445 C199.08700777 1.05015376 216.04350486 1.02974398 233 1 C232.690625 1.825 232.38125 2.65 232.0625 3.5 C230.6852911 7.68085741 230.6852911 7.68085741 230 15 C194.36 15 158.72 15 122 15 C121.505 12.525 121.505 12.525 121 10 C121.33 9.67 121.66 9.34 122 9 C122.04063832 7.33382885 122.042721 5.66611905 122 4 C119.69 4 117.38 4 115 4 C112.95557672 7.54366701 112.73299562 9.60202629 112 14 C83.95 14 55.9 14 27 14 C28 9 28 9 28.625 6.75 C28.74875 6.1725 28.8725 5.595 29 5 C27.19253866 3.19253866 24.49554219 3.82696517 22.0625 3.8125 C20.98097656 3.79832031 19.89945313 3.78414063 18.78515625 3.76953125 C15.85955685 3.70951969 15.85955685 3.70951969 14 6 C9.01662989 5.69797757 4.45612062 3.08728962 0 1 C0 0.67 0 0.34 0 0 Z " fill="#3C4649" transform="translate(56,311)"/>
<path d="M0 0 C0.90851715 -0.00990463 1.8170343 -0.01980927 2.75308228 -0.03001404 C3.74746307 -0.02551239 4.74184387 -0.02101074 5.76635742 -0.01637268 C6.81536224 -0.02323593 7.86436707 -0.03009918 8.94515991 -0.03717041 C12.42085209 -0.05550744 15.8960959 -0.05159129 19.37182617 -0.0459137 C21.78173979 -0.05047188 24.1916521 -0.05577635 26.6015625 -0.0617981 C31.65557125 -0.07074257 36.7094221 -0.06829044 41.76342773 -0.05836487 C48.25049499 -0.04686839 54.73701849 -0.06709091 61.22401428 -0.09628201 C66.20132935 -0.11459803 71.17851298 -0.1143608 76.15585327 -0.10864449 C78.54813399 -0.10849074 80.94042331 -0.11457908 83.33267212 -0.12693596 C86.67289701 -0.14175855 90.01210266 -0.13123286 93.35229492 -0.11402893 C94.34667572 -0.1236969 95.34105652 -0.13336487 96.36557007 -0.14332581 C97.72834579 -0.1285746 97.72834579 -0.1285746 99.11865234 -0.11352539 C99.90841965 -0.11331611 100.69818695 -0.11310682 101.5118866 -0.1128912 C103.55932617 0.38768005 103.55932617 0.38768005 105.36811829 2.27056789 C106.55932617 4.38768005 106.55932617 4.38768005 106.05932617 6.76268005 C102.32152279 13.30383597 102.32152279 13.30383597 99.55932617 15.38768005 C96.03697884 16.25866598 92.59793277 16.14665362 88.98583984 16.0688324 C87.39003586 16.07014664 87.39003586 16.07014664 85.76199341 16.07148743 C82.2496773 16.0673112 78.7392769 16.02065355 75.22729492 15.97361755 C72.79064477 15.96242564 70.35398111 15.95388544 67.91731262 15.94789124 C61.50707661 15.92499307 55.09765758 15.86605931 48.68774414 15.79966736 C42.14570162 15.73826732 35.60352696 15.71088096 29.0612793 15.6806488 C16.22694656 15.61631873 3.39317984 15.51508059 -9.44067383 15.38768005 C-9.11067383 13.40768005 -8.78067383 11.42768005 -8.44067383 9.38768005 C-7.12067383 9.05768005 -5.80067383 8.72768005 -4.44067383 8.38768005 C-4.44067383 7.39768005 -4.44067383 6.40768005 -4.44067383 5.38768005 C-6.42067383 5.38768005 -8.40067383 5.38768005 -10.44067383 5.38768005 C-10.77067383 4.06768005 -11.10067383 2.74768005 -11.44067383 1.38768005 C-10.12067383 1.38768005 -8.80067383 1.38768005 -7.44067383 1.38768005 C-7.44067383 2.04768005 -7.44067383 2.70768005 -7.44067383 3.38768005 C-7.03726273 2.90067595 -6.63385162 2.41367186 -6.21821594 1.91191006 C-3.98534213 -0.00276371 -2.90984654 0.00895279 0 0 Z " fill="#67717E" transform="translate(302.440673828125,310.61231994628906)"/>
<path d="M0 0 C0.91685577 -0.00150055 1.83371155 -0.0030011 2.77835083 -0.00454712 C5.72858169 -0.00688375 8.67868777 -0.00069207 11.62890625 0.0078125 C13.13250198 0.01113586 13.13250198 0.01113586 14.66647339 0.01452637 C21.50832762 0.03232498 28.34978741 0.07406324 35.19140625 0.1328125 C36.36999207 0.14217834 36.36999207 0.14217834 37.5723877 0.1517334 C41.96760782 0.19005458 46.35983779 0.2695216 50.75390625 0.3828125 C52.3006604 0.40384033 52.3006604 0.40384033 53.87866211 0.42529297 C60.56283774 0.65819915 60.56283774 0.65819915 63.6953125 3.0234375 C64.43587891 4.06757813 64.43587891 4.06757813 65.19140625 5.1328125 C73.64454718 14.03085558 82.59529167 16.67160544 94.61328125 17.31640625 C97.14797722 17.31968953 99.66107874 17.27484752 102.19140625 17.1328125 C102.52140625 15.8128125 102.85140625 14.4928125 103.19140625 13.1328125 C104.18140625 13.4628125 105.17140625 13.7928125 106.19140625 14.1328125 C106.19140625 15.1228125 106.19140625 16.1128125 106.19140625 17.1328125 C108.17140625 17.1328125 110.15140625 17.1328125 112.19140625 17.1328125 C109.96409972 19.69421501 108.50981227 20.52894941 105.19140625 21.1328125 C103.25180883 21.2235815 101.30935004 21.25908845 99.36763 21.25979614 C98.1760881 21.26261597 96.9845462 21.26543579 95.75689697 21.26834106 C94.45178162 21.26631683 93.14666626 21.2642926 91.80200195 21.26220703 C90.40982518 21.2635628 89.01764876 21.26534373 87.62547302 21.26751709 C83.8338128 21.27208611 80.04217975 21.2702999 76.25051904 21.267138 C72.24181566 21.26459317 68.23311449 21.26695954 64.22441101 21.26852417 C57.45274444 21.27034744 50.68108874 21.26794352 43.90942383 21.26318359 C37.03864833 21.25840823 30.16789456 21.25830299 23.29711914 21.26318359 C-50.23024054 21.31423999 -50.23024054 21.31423999 -83.80859375 20.1328125 C-83.52750262 18.48514003 -83.23340849 16.83968105 -82.93359375 15.1953125 C-82.77117187 14.27878906 -82.60875 13.36226563 -82.44140625 12.41796875 C-82.23257812 11.66386719 -82.02375 10.90976562 -81.80859375 10.1328125 C-79.40313737 8.93008431 -77.85862422 9.03209778 -75.18359375 9.0703125 C-73.95769531 9.08384766 -73.95769531 9.08384766 -72.70703125 9.09765625 C-71.76730469 9.11505859 -71.76730469 9.11505859 -70.80859375 9.1328125 C-71.13859375 10.1228125 -71.46859375 11.1128125 -71.80859375 12.1328125 C-72.46859375 12.1328125 -73.12859375 12.1328125 -73.80859375 12.1328125 C-74.13859375 14.1128125 -74.46859375 16.0928125 -74.80859375 18.1328125 C-60.70019839 18.1891372 -46.5924176 18.19919727 -32.48396111 18.15615845 C-25.93275455 18.13752189 -19.38223378 18.13367041 -12.83105469 18.16357422 C-6.50886675 18.19188939 -0.18782479 18.18141129 6.13430405 18.14401245 C8.5464237 18.13656483 10.95862836 18.14310572 13.37067032 18.16384888 C16.74986872 18.19052178 20.12534614 18.16749737 23.50439453 18.1328125 C24.50205338 18.15222397 25.49971222 18.17163544 26.52760315 18.19163513 C31.81518522 18.08272029 31.81518522 18.08272029 36.20312119 15.38842773 C37.82226359 13.34506954 39.14018702 11.51896386 40.19140625 9.1328125 C39.65769972 6.34567838 39.1709266 5.11233285 37.19140625 3.1328125 C35.4430179 3.0096608 33.68976121 2.95493439 31.93725586 2.92749023 C30.81616928 2.90754501 29.6950827 2.88759979 28.5400238 2.86705017 C27.32025345 2.85033768 26.10048309 2.83362518 24.84375 2.81640625 C23.60218643 2.79562515 22.36062286 2.77484406 21.08143616 2.75343323 C17.77541502 2.69897641 14.4693838 2.64877045 11.16326904 2.60058594 C7.79173134 2.55041394 4.42028572 2.49470549 1.04882812 2.43945312 C-5.57023926 2.33211212 -12.18937535 2.23037052 -18.80859375 2.1328125 C-18.80859375 1.8028125 -18.80859375 1.4728125 -18.80859375 1.1328125 C-12.49823257 0.33455439 -6.35673826 -0.01459255 0 0 Z " fill="#A9AFB9" transform="translate(367.80859375,307.8671875)"/>
<path d="M0 0 C35.97 0 71.94 0 109 0 C108.34 3.63 107.68 7.26 107 11 C71.36 11 35.72 11 -1 11 C-2 6 -2 6 0 0 Z " fill="#565E65" transform="translate(179,315)"/>
<path d="M0 0 C-0.33 0.66 -0.66 1.32 -1 2 C-2.07636719 2.04898437 -3.15273438 2.09796875 -4.26171875 2.1484375 C-5.73699691 2.22361091 -7.21225637 2.299152 -8.6875 2.375 C-9.7403418 2.42140625 -9.7403418 2.42140625 -10.81445312 2.46875 C-15.22218803 2.70382919 -19.5133542 3.20408598 -23.87109375 3.91015625 C-32.66655113 5.32122649 -41.51560779 6.16533559 -50.375 7.0625 C-52.92627717 7.32294792 -55.47744888 7.58435867 -58.0284729 7.84727478 C-59.60104449 8.00914467 -61.17376936 8.16953522 -62.74667358 8.32814026 C-63.46497345 8.40169235 -64.18327332 8.47524445 -64.92333984 8.55102539 C-65.54365082 8.61383194 -66.16396179 8.67663849 -66.80307007 8.74134827 C-69.87606485 9.10314197 -72.93687941 9.56241134 -76 10 C-60.82 10 -45.64 10 -30 10 C-30 10.33 -30 10.66 -30 11 C-86.34078418 13.29440334 -142.60184448 15.29078132 -199 15 C-199 14.67 -199 14.34 -199 14 C-196.03 14 -193.06 14 -190 14 C-190 13.34 -190 12.68 -190 12 C-189.33919434 11.98018066 -188.67838867 11.96036133 -187.99755859 11.93994141 C-169.62698381 11.37009153 -151.32904873 10.32200068 -133 9 C-138.445 8.505 -138.445 8.505 -144 8 C-144 7.67 -144 7.34 -144 7 C-132.8586246 6.37221472 -121.72160721 5.90496197 -110.56640625 5.60546875 C-82.51000013 4.83663472 -54.60912148 3.65311968 -26.62915039 1.32104492 C-25.57898743 1.23409866 -24.52882446 1.1471524 -23.44683838 1.05757141 C-21.51614503 0.89595868 -19.58579869 0.73010784 -17.65594482 0.5587616 C-11.75617087 0.05656775 -5.92022564 -0.09197411 0 0 Z " fill="#A0A6AE" transform="translate(348,262)"/>
<path d="M0 0 C0 0.33 0 0.66 0 1 C-7.92 1.495 -7.92 1.495 -16 2 C-16 2.66 -16 3.32 -16 4 C-20.455 4.495 -20.455 4.495 -25 5 C-4.705 5.495 -4.705 5.495 16 6 C16 6.33 16 6.66 16 7 C0.4796562 7.35717068 -15.04118367 7.68795481 -30.5625 8 C-31.74337692 8.0237545 -32.92425385 8.047509 -34.14091492 8.07198334 C-75.51429902 8.89629904 -116.86986568 9.17937914 -158.25 9.125 C-158.91505507 9.12415154 -159.58011014 9.12330307 -160.26531839 9.12242889 C-177.17693717 9.10048309 -194.08847428 9.06003754 -211 9 C-211 8.67 -211 8.34 -211 8 C-200.06896303 7.06599437 -189.1538623 6.70966295 -178.19042778 6.43037796 C-175.03057115 6.34923803 -171.87088422 6.2631032 -168.7111969 6.17562866 C-159.73351633 5.92749201 -150.75573069 5.68398209 -141.77758789 5.453125 C-113.83697432 4.73095834 -86.00691675 3.52762482 -58.1308527 1.48443413 C-38.78964073 0.10021581 -19.38466124 -0.19256286 0 0 Z " fill="#C7C9CD" transform="translate(376,285)"/>
<path d="M0 0 C1.2180091 8.52606371 1 16.12869171 1 25 C-10.22 25 -21.44 25 -33 25 C-33.33 20.71 -33.66 16.42 -34 12 C-34.99 11.34 -35.98 10.68 -37 10 C-37 9.34 -37 8.68 -37 8 C-36.20827393 7.82871582 -35.41654785 7.65743164 -34.60083008 7.48095703 C-31.00373155 6.7001138 -27.40811849 5.91262911 -23.8125 5.125 C-22.56662109 4.85558594 -21.32074219 4.58617187 -20.03710938 4.30859375 C-18.83505859 4.04433594 -17.63300781 3.78007812 -16.39453125 3.5078125 C-15.28956299 3.26691895 -14.18459473 3.02602539 -13.04614258 2.77783203 C-1.77123637 -0.10121351 -1.77123637 -0.10121351 0 0 Z " fill="#12181A" transform="translate(405,259)"/>
<path d="M0 0 C3.4375 0.1875 3.4375 0.1875 4.4375 1.1875 C4.63927399 4.81943179 4.16932484 7.52837582 3.4375 11.1875 C38.7475 11.5175 74.0575 11.8475 110.4375 12.1875 C110.1075 12.8475 109.7775 13.5075 109.4375 14.1875 C88.31250637 14.21849524 67.18751278 14.23860085 46.0625 14.25 C45.28068894 14.2504343 44.49887789 14.25086861 43.69337559 14.25131607 C1.73036685 14.27399774 -40.2270295 14.21165172 -82.1875 13.6875 C-83.14557304 13.67554218 -84.10364609 13.66358437 -85.09075165 13.65126419 C-96.24821228 13.51078794 -107.40545315 13.35773422 -118.5625 13.1875 C-118.5625 12.1975 -118.5625 11.2075 -118.5625 10.1875 C-114.97374758 8.7708872 -111.75601436 8.06501466 -107.9375 7.8125 C-101.23129985 7.26214315 -94.58380899 5.1981545 -88.5625 2.1875 C-89.5525 5.1575 -90.5425 8.1275 -91.5625 11.1875 C-63.5125 11.1875 -35.4625 11.1875 -6.5625 11.1875 C-6.2325 8.2175 -5.9025 5.2475 -5.5625 2.1875 C-3.5625 0.1875 -3.5625 0.1875 0 0 Z " fill="#8E9599" transform="translate(174.5625,313.8125)"/>
<path d="M0 0 C-0.33 0.99 -0.66 1.98 -1 3 C-3.0625 3.9375 -3.0625 3.9375 -6 5 C-7.27720301 5.63314337 -8.54758832 6.28014432 -9.8125 6.9375 C-20.4548175 12.29851762 -31.07565861 14.11859236 -42.83984375 15.4375 C-46.08582781 15.70432855 -46.08582781 15.70432855 -48 18 C-46.02 18.33 -44.04 18.66 -42 19 C-42 18.34 -42 17.68 -42 17 C-36.06 17 -30.12 17 -24 17 C-28.32186822 19.16093411 -31.96474369 19.61015497 -36.6796875 20.03515625 C-37.54729706 20.11855759 -38.41490662 20.20195892 -39.30880737 20.28788757 C-42.16331445 20.55708261 -45.01884864 20.81138242 -47.875 21.0625 C-48.85617798 21.15059937 -49.83735596 21.23869873 -50.8482666 21.32946777 C-81.19479969 24.02510389 -111.55453732 24.20696037 -142 24 C-142 23.67 -142 23.34 -142 23 C-141.00226563 22.96261719 -140.00453125 22.92523438 -138.9765625 22.88671875 C-127.57931667 22.39047892 -116.32282254 21.19151556 -105 19.828125 C-96.33952831 18.78748746 -87.66404069 17.89100967 -78.98681641 17.00244141 C-77.86968262 16.88562012 -76.75254883 16.76879883 -75.6015625 16.6484375 C-74.61494629 16.54708496 -73.62833008 16.44573242 -72.61181641 16.34130859 C-70.32997935 16.04312125 -68.22591417 15.55947113 -66 15 C-64.63323368 14.86070644 -63.2625433 14.75634699 -61.890625 14.68359375 C-61.13652344 14.64169922 -60.38242187 14.59980469 -59.60546875 14.55664062 C-58.82816406 14.51732422 -58.05085938 14.47800781 -57.25 14.4375 C-56.06083984 14.37272461 -56.06083984 14.37272461 -54.84765625 14.30664062 C-52.89862185 14.20097009 -50.94933252 14.10002034 -49 14 C-51.97 13.67 -54.94 13.34 -58 13 C-58 12.67 -58 12.34 -58 12 C-56.95996826 11.91081299 -56.95996826 11.91081299 -55.89892578 11.81982422 C-41.15530909 10.4963354 -27.77872368 8.4534738 -14 3 C-11.85643048 2.18154618 -9.71091274 1.36815478 -7.5625 0.5625 C-6.73878906 0.23378906 -5.91507813 -0.09492188 -5.06640625 -0.43359375 C-3 -1 -3 -1 0 0 Z " fill="#C3CCD3" transform="translate(396,249)"/>
<path d="M0 0 C1.6674606 0.08426094 3.33825187 0.10725143 5.0078125 0.09765625 C5.99394531 0.09443359 6.98007812 0.09121094 7.99609375 0.08789062 C9.54490234 0.07532227 9.54490234 0.07532227 11.125 0.0625 C12.16527344 0.05798828 13.20554687 0.05347656 14.27734375 0.04882812 C16.85161962 0.03701952 19.42578146 0.02055075 22 0 C22 0.33 22 0.66 22 1 C-8.92237327 3.66161379 -39.75741265 5.47941308 -70.77807617 6.34667969 C-83.38116247 6.70173415 -95.93003876 7.13385153 -108.5 8.125 C-128.28256888 9.66990521 -148.17301723 9.17292907 -168 9 C-168 9.66 -168 10.32 -168 11 C-185.35508467 11.71084161 -202.70428965 12.21716764 -220.0715332 12.50268555 C-223.69684901 12.56265465 -227.32204832 12.62773023 -230.94726562 12.69335938 C-245.96612511 12.95560612 -260.97896496 13.05946259 -276 13 C-276 12.67 -276 12.34 -276 12 C-261.26155229 10.6826683 -246.473276 10.69496926 -231.6875 10.5 C-211.56438198 10.28924821 -211.56438198 10.28924821 -191.45703125 9.53125 C-190.75430588 9.49390747 -190.05158051 9.45656494 -189.32756042 9.41809082 C-186.67689389 9.25559849 -184.12108871 9.02516377 -181.51879883 8.484375 C-178.10251144 7.82740939 -174.70901166 7.78548158 -171.2421875 7.71875 C-170.12663986 7.69113586 -170.12663986 7.69113586 -168.98855591 7.66296387 C-166.61744714 7.6045122 -164.24626592 7.5516542 -161.875 7.5 C-159.52516683 7.44811553 -157.17541029 7.39481027 -154.82571411 7.33703613 C-153.36866254 7.30124471 -151.91152681 7.26865312 -150.45431519 7.2401123 C-146.55071941 7.14467127 -142.69231235 6.89987732 -138.80493164 6.52734375 C-132.40036511 5.91587054 -125.99170704 5.59084145 -119.56640625 5.28125 C-118.29441879 5.21844849 -117.02243134 5.15564697 -115.7118988 5.09094238 C-113.02339329 4.95876743 -110.33486293 4.82748406 -107.64624023 4.69775391 C-103.63311689 4.50400289 -99.62027505 4.30473926 -95.60742188 4.10546875 C-82.88731627 3.48089423 -70.17017601 2.92161602 -57.44140625 2.5078125 C-45.38980566 2.10903795 -33.39379335 1.33036808 -21.375 0.375 C-17.71661099 0.08466173 -14.05776015 -0.19826899 -10.3984375 -0.4765625 C-9.57789886 -0.54420807 -8.75736023 -0.61185364 -7.91195679 -0.68154907 C-2.22565569 -1.11282784 -2.22565569 -1.11282784 0 0 Z " fill="#C3C6CA" transform="translate(316,262)"/>
<path d="M0 0 C0 0.33 0 0.66 0 1 C-10.89 1.99 -21.78 2.98 -33 4 C-28.05 4.33 -23.1 4.66 -18 5 C-18 5.33 -18 5.66 -18 6 C-24.882578 6.28860347 -31.7653228 6.57295286 -38.64819336 6.85449219 C-40.98449585 6.95054215 -43.32076006 7.04752818 -45.65698242 7.14550781 C-69.55134291 8.14642567 -69.55134291 8.14642567 -81 8 C-81 11.63 -81 15.26 -81 19 C-70.44 19 -59.88 19 -49 19 C-49 19.33 -49 19.66 -49 20 C-59.89 20 -70.78 20 -82 20 C-82.33 15.71 -82.66 11.42 -83 7 C-83.66 5.68 -84.32 4.36 -85 3 C-82.28119989 0.28119989 -80.79092815 0.72656965 -76.98413086 0.68115234 C-75.71778305 0.66128265 -74.45143524 0.64141296 -73.14671326 0.62094116 C-71.75275871 0.60904218 -70.35880211 0.59738071 -68.96484375 0.5859375 C-67.52868059 0.56720187 -66.09252817 0.54762671 -64.65638733 0.5272522 C-60.85715299 0.4757615 -57.05788148 0.4362924 -53.25848389 0.39910889 C-49.45803087 0.35963223 -45.65774539 0.30801945 -41.85742188 0.2578125 C-27.90540595 0.07858134 -13.95335907 -0.07283532 0 0 Z " fill="#767B81" transform="translate(108,275)"/>
<path d="M0 0 C71.28 0 142.56 0 216 0 C215.67 0.99 215.34 1.98 215 3 C214.34 3 213.68 3 213 3 C213 2.34 213 1.68 213 1 C211.68 1 210.36 1 209 1 C209.33 1.99 209.66 2.98 210 4 C211.98 4.33 213.96 4.66 216 5 C215.67 5.99 215.34 6.98 215 8 C215 7.34 215 6.68 215 6 C210.05 6.495 210.05 6.495 205 7 C205.66 5.02 206.32 3.04 207 1 C205.83637939 1.0707373 204.67275879 1.14147461 203.47387695 1.21435547 C183.73331461 2.29418152 163.9814146 2.1548969 144.21842194 2.12857056 C141.1645549 2.12497297 138.11069263 2.12337427 135.05682373 2.12231445 C90.03426365 2.10300021 45.01790393 1.61383789 0 1 C0 0.67 0 0.34 0 0 Z " fill="#7B7F88" transform="translate(82,311)"/>
<path d="M0 0 C0.33 0.66 0.66 1.32 1 2 C0.01 4.31 -0.98 6.62 -2 9 C25.72 9 53.44 9 82 9 C82 9.66 82 10.32 82 11 C45.37 11 8.74 11 -29 11 C-29 10.01 -29 9.02 -29 8 C-25.41124758 6.5833872 -22.19351436 5.87751466 -18.375 5.625 C-12.90845423 5.17569487 -4.0243248 4.0243248 0 0 Z " fill="#868B8D" transform="translate(85,316)"/>
<path d="M0 0 C0 0.33 0 0.66 0 1 C-22.04064538 2.92593136 -43.85716525 4.56687052 -66 4 C-66 4.66 -66 5.32 -66 6 C-60.72 6.33 -55.44 6.66 -50 7 C-50 7.33 -50 7.66 -50 8 C-57.02513848 8.02557126 -64.05026475 8.04295882 -71.07543945 8.05493164 C-73.46020964 8.05992846 -75.84497682 8.06672815 -78.22973633 8.07543945 C-81.67790475 8.08771052 -85.12603231 8.09327498 -88.57421875 8.09765625 C-90.1469178 8.10539818 -90.1469178 8.10539818 -91.75138855 8.11329651 C-99.20786317 8.11384862 -106.57414219 7.66430166 -114 7 C-114 6.67 -114 6.34 -114 6 C-113.02651611 5.94465088 -112.05303223 5.88930176 -111.05004883 5.83227539 C-107.42500013 5.62522766 -103.80023558 5.41352343 -100.17553711 5.20043945 C-98.60920411 5.10900665 -97.04279767 5.01882267 -95.47631836 4.92993164 C-93.21968263 4.8016567 -90.96335251 4.66883552 -88.70703125 4.53515625 C-88.01100296 4.49656998 -87.31497467 4.4579837 -86.59785461 4.41822815 C-82.98556663 4.19958959 -79.52769335 3.81546171 -76 3 C-76 2.34 -76 1.68 -76 1 C-50.663039 0.36083882 -25.34615124 -0.18869543 0 0 Z " fill="#9498A1" transform="translate(224,270)"/>
<path d="M0 0 C1.796875 1.90234375 1.796875 1.90234375 2.1875 5.0390625 C2.05729167 8.32682292 1.92708333 11.61458333 1.796875 14.90234375 C7.076875 14.90234375 12.356875 14.90234375 17.796875 14.90234375 C17.796875 15.23234375 17.796875 15.56234375 17.796875 15.90234375 C13.13379301 15.92703021 8.47074892 15.94519724 3.80761719 15.95727539 C2.22069639 15.96230963 0.63378023 15.96913744 -0.953125 15.9777832 C-3.23178249 15.98988857 -5.51037876 15.99558108 -7.7890625 16 C-8.85633072 16.00774193 -8.85633072 16.00774193 -9.94515991 16.01564026 C-14.97538159 16.01621546 -14.97538159 16.01621546 -17.203125 14.90234375 C-17.203125 11.27234375 -17.203125 7.64234375 -17.203125 3.90234375 C-16.213125 3.90234375 -15.223125 3.90234375 -14.203125 3.90234375 C-14.203125 3.24234375 -14.203125 2.58234375 -14.203125 1.90234375 C-16.843125 1.57234375 -19.483125 1.24234375 -22.203125 0.90234375 C-22.203125 0.57234375 -22.203125 0.24234375 -22.203125 -0.09765625 C-3.66817715 -1.82758472 -3.66817715 -1.82758472 0 0 Z " fill="#522C2F" transform="translate(370.203125,269.09765625)"/>
<path d="M0 0 C1.98 0.99 1.98 0.99 4 2 C4 6.29 4 10.58 4 15 C5.84198975 14.9285376 7.68397949 14.8570752 9.58178711 14.78344727 C33.23127224 13.93297839 56.8603959 13.87805006 80.52294922 13.93133545 C85.67349826 13.94178134 90.82405268 13.94617737 95.97460938 13.95117188 C105.98308641 13.96172393 115.99154052 13.97866516 126 14 C126 14.33 126 14.66 126 15 C112.79791466 15.98405886 99.60875097 16.32167763 86.375 16.5625 C85.27079712 16.58367889 84.16659424 16.60485779 83.02893066 16.62667847 C56.68688189 17.12412913 30.34559145 17.10427577 4 17 C4.66 18.65 5.32 20.3 6 22 C4.0625 21.25 4.0625 21.25 2 20 C0.68347296 16.03406121 0.66069398 11.89189485 0.4375 7.75 C0.39431641 7.00492187 0.35113281 6.25984375 0.30664062 5.4921875 C0.20103275 3.661651 0.10005799 1.83084824 0 0 Z " fill="#C1C1C4" transform="translate(22,280)"/>
<path d="M0 0 C-0.66 1.65 -1.32 3.3 -2 5 C-12.62474361 5.86852217 -23.22131464 6.29833106 -33.875 6.5625 C-34.68817688 6.58367889 -35.50135376 6.60485779 -36.33917236 6.62667847 C-52.8941941 7.05315869 -69.44050808 7.11256714 -86 7 C-86 6.67 -86 6.34 -86 6 C-84.50339844 5.94392578 -84.50339844 5.94392578 -82.9765625 5.88671875 C-73.62148895 5.4787197 -64.36178359 4.6634176 -55.0625 3.5625 C-53.38667847 3.36503174 -53.38667847 3.36503174 -51.67700195 3.16357422 C-47.56778242 2.675273 -43.45909321 2.18413649 -39.35351562 1.66601562 C-26.20152456 0.00749145 -13.25098615 -0.23237936 0 0 Z " fill="#CBD1D6" transform="translate(340,266)"/>
<path d="M0 0 C0.90443848 -0.00412399 1.80887695 -0.00824799 2.74072266 -0.01249695 C3.73046585 -0.00171112 4.72020905 0.00907471 5.73994446 0.02018738 C6.78401459 0.0197493 7.82808472 0.01931122 8.90379333 0.01885986 C12.36149165 0.02095312 15.8187076 0.04431 19.27632141 0.0677948 C21.67099747 0.07338883 24.06567695 0.07765984 26.46035767 0.08065796 C32.76841177 0.09212186 39.07625921 0.12160254 45.38423157 0.1547699 C51.8189362 0.18543737 58.25367417 0.1991562 64.68843079 0.21427917 C77.31807633 0.24647058 89.94757852 0.29711048 102.57710266 0.36076355 C102.57710266 1.02076355 102.57710266 1.68076355 102.57710266 2.36076355 C101.29307556 2.37622475 101.29307556 2.37622475 99.98310852 2.39199829 C91.75199461 2.49166152 83.52092448 2.5943501 75.28988647 2.70010281 C71.06240044 2.75431996 66.83490771 2.80752893 62.6073761 2.858078 C45.84775597 3.05925613 29.08941673 3.28464703 12.33525085 3.77154732 C10.92206482 3.81253712 9.50883542 3.85205976 8.0955658 3.89005852 C6.16478423 3.94292893 4.23421267 4.00331279 2.30366516 4.06413269 C1.21650208 4.09721024 0.12933899 4.13028778 -0.99076843 4.16436768 C-3.37027274 4.09217277 -3.37027274 4.09217277 -4.42289734 5.36076355 C-6.42248098 5.40157138 -8.42334988 5.40330711 -10.42289734 5.36076355 C-10.75289734 4.04076355 -11.08289734 2.72076355 -11.42289734 1.36076355 C-10.10289734 1.36076355 -8.78289734 1.36076355 -7.42289734 1.36076355 C-7.42289734 2.02076355 -7.42289734 2.68076355 -7.42289734 3.36076355 C-7.0191196 2.8732043 -6.61534185 2.38564505 -6.19932842 1.88331127 C-3.96694828 -0.03002234 -2.90766478 -0.01022625 0 0 Z " fill="#0F1517" transform="translate(302.4228973388672,310.6392364501953)"/>
<path d="M0 0 C0 0.33 0 0.66 0 1 C-32.0453493 3.62178813 -63.86930931 4.14878499 -96 4 C-96 3.67 -96 3.34 -96 3 C-93.03 3 -90.06 3 -87 3 C-87 2.34 -87 1.68 -87 1 C-85.88310791 0.96241577 -85.88310791 0.96241577 -84.74365234 0.92407227 C-68.73143251 0.460841 -68.73143251 0.460841 -52.75 -0.5625 C-35.23007593 -1.93362449 -17.51890752 -0.92088763 0 0 Z " fill="#B8BDC3" transform="translate(245,273)"/>
<path d="M0 0 C-0.33 0.99 -0.66 1.98 -1 3 C-36.97 3 -72.94 3 -110 3 C-110 2.34 -110 1.68 -110 1 C-99.05385417 0.86799663 -88.10769133 0.73751132 -77.1615057 0.60884857 C-72.07616747 0.54902967 -66.99083597 0.48873037 -61.90551758 0.42724609 C-18.655964 -0.09501517 -18.655964 -0.09501517 0 0 Z " fill="#272F33" transform="translate(289,312)"/>
<path d="M0 0 C1.22589844 0.01353516 1.22589844 0.01353516 2.4765625 0.02734375 C3.41628906 0.04474609 3.41628906 0.04474609 4.375 0.0625 C4.045 1.0525 3.715 2.0425 3.375 3.0625 C2.715 3.0625 2.055 3.0625 1.375 3.0625 C1.045 5.0425 0.715 7.0225 0.375 9.0625 C35.685 9.0625 70.995 9.0625 107.375 9.0625 C107.375 9.3925 107.375 9.7225 107.375 10.0625 C83.285 10.0625 59.195 10.0625 34.375 10.0625 C34.375 10.7225 34.375 11.3825 34.375 12.0625 C20.185 11.7325 5.995 11.4025 -8.625 11.0625 C-7.965 7.7625 -7.305 4.4625 -6.625 1.0625 C-4.21954362 -0.14022819 -2.67503047 -0.03821472 0 0 Z " fill="#98A0A6" transform="translate(292.625,316.9375)"/>
<path d="M0 0 C3.97348162 0.00575599 7.94689651 0.00236423 11.92037582 -0.00357246 C15.02610774 -0.00720221 18.13182405 -0.00602944 21.23755646 -0.00344467 C22.70298521 -0.00278516 24.16841546 -0.00356903 25.63384247 -0.00592422 C33.46757028 -0.01577988 41.20276523 0.11609218 48.98242188 1.13037109 C48.65242188 1.79037109 48.32242188 2.45037109 47.98242188 3.13037109 C14.65242188 3.13037109 -18.67757812 3.13037109 -53.01757812 3.13037109 C-53.01757812 2.47037109 -53.01757812 1.81037109 -53.01757812 1.13037109 C-35.34528732 0.06498581 -17.69655844 -0.02599352 0 0 Z " fill="#5D656F" transform="translate(348.017578125,322.86962890625)"/>
<path d="M0 0 C-1.32 0.33 -2.64 0.66 -4 1 C-4 1.66 -4 2.32 -4 3 C-4.99 3 -5.98 3 -7 3 C-7 6.63 -7 10.26 -7 14 C-6.34 14.33 -5.68 14.66 -5 15 C-8.96 15 -12.92 15 -17 15 C-17.125 7.25 -17.125 7.25 -16 5 C-17.65 5.66 -19.3 6.32 -21 7 C-21 7.66 -21 8.32 -21 9 C-20.01 9 -19.02 9 -18 9 C-18.375 10.9375 -18.375 10.9375 -19 13 C-19.99 13.495 -19.99 13.495 -21 14 C-21.99 13.34 -22.98 12.68 -24 12 C-23.34 12 -22.68 12 -22 12 C-22 9.36 -22 6.72 -22 4 C-24.64 4 -27.28 4 -30 4 C-29.67 3.34 -29.34 2.68 -29 2 C-19.44223476 -0.09520699 -9.74086591 -0.27016269 0 0 Z " fill="#0D1312" transform="translate(360,270)"/>
<path d="M0 0 C0.763125 0.226875 1.52625 0.45375 2.3125 0.6875 C2.8075 2.6675 2.8075 2.6675 3.3125 4.6875 C2.63703125 4.95304687 1.9615625 5.21859375 1.265625 5.4921875 C-0.07242188 6.02199219 -0.07242188 6.02199219 -1.4375 6.5625 C-2.31921875 6.91054688 -3.2009375 7.25859375 -4.109375 7.6171875 C-6.60067454 8.57254176 -6.60067454 8.57254176 -8.40142822 9.74020386 C-11.61061972 11.07001981 -14.37393627 10.92651229 -17.84277344 10.91455078 C-18.91166557 10.91498886 -18.91166557 10.91498886 -20.00215149 10.91543579 C-22.35051781 10.91404577 -24.69856431 10.89850022 -27.046875 10.8828125 C-28.67783434 10.8790812 -30.30879592 10.87623478 -31.9397583 10.87423706 C-36.22729711 10.8666098 -40.5146999 10.84696912 -44.80218506 10.8248291 C-49.17930257 10.80435112 -53.55644212 10.79523117 -57.93359375 10.78515625 C-66.51829151 10.76372235 -75.10287882 10.72959739 -83.6875 10.6875 C-83.6875 10.0275 -83.6875 9.3675 -83.6875 8.6875 C-82.33233025 8.68536247 -82.33233025 8.68536247 -80.94978333 8.68318176 C-72.43043503 8.6653431 -63.91160576 8.62370407 -55.3925066 8.55540943 C-51.01282228 8.5211364 -46.63348688 8.49602902 -42.25366211 8.49194336 C-38.02582137 8.48766099 -33.79876778 8.45920434 -29.57117271 8.41406822 C-27.95931269 8.40109108 -26.34735847 8.39678634 -24.73545265 8.40134621 C-22.4748731 8.40625116 -20.21659517 8.38017053 -17.95629883 8.34692383 C-16.67056473 8.34026199 -15.38483063 8.33360016 -14.06013489 8.32673645 C-9.12932319 7.39216907 -7.20436103 4.58357628 -4.1875 0.8125 C-2.6875 -0.3125 -2.6875 -0.3125 0 0 Z " fill="#C6C9CF" transform="translate(410.6875,318.3125)"/>
<path d="M0 0 C22.01132391 -0.0924069 44.01930014 0.13480532 66.02905273 0.37231445 C71.20885531 0.4279459 76.38869748 0.47791125 81.56856823 0.52671719 C85.59637417 0.56567765 89.62412868 0.60874561 93.65188026 0.65294075 C95.56355541 0.67320944 97.47524748 0.69194637 99.38695335 0.70907402 C102.04343677 0.73325054 104.69979483 0.76326215 107.35620117 0.79467773 C108.13175354 0.8004332 108.90730591 0.80618866 109.70635986 0.81211853 C114.22788475 0.87280553 118.53674531 1.2653627 123 2 C122.67 2.66 122.34 3.32 122 4 C119.36 4 116.72 4 114 4 C114 3.34 114 2.68 114 2 C102.99418456 2.10796117 91.98842887 2.22068341 80.98272324 2.33933926 C75.87131485 2.39430038 70.75990055 2.44767466 65.6484375 2.49731445 C60.70763903 2.54535703 55.76690265 2.59770897 50.8261795 2.65294075 C48.94933893 2.67318521 47.07248146 2.6919255 45.19561005 2.70907402 C28.45054408 1.44713133 28.45054408 1.44713133 14 6 C9.01662989 5.69797757 4.45612062 3.08728962 0 1 C0 0.67 0 0.34 0 0 Z " fill="#5C6268" transform="translate(56,311)"/>
<path d="M0 0 C0 0.33 0 0.66 0 1 C4.95 1.33 9.9 1.66 15 2 C15 2.33 15 2.66 15 3 C8.117422 3.28860347 1.2346772 3.57295286 -5.64819336 3.85449219 C-7.98449585 3.95054215 -10.32076006 4.04752818 -12.65698242 4.14550781 C-36.55134291 5.14642567 -36.55134291 5.14642567 -48 5 C-48 8.63 -48 12.26 -48 16 C-37.44 16 -26.88 16 -16 16 C-16 16.33 -16 16.66 -16 17 C-26.89 17 -37.78 17 -49 17 C-49.33 12.71 -49.66 8.42 -50 4 C-50.33 3.34 -50.66 2.68 -51 2 C-45.18348357 1.71236797 -39.3668347 1.42763848 -33.55004883 1.14550781 C-31.5744246 1.04928553 -29.59883772 0.95229315 -27.62329102 0.85449219 C-24.77109274 0.71342964 -21.91876823 0.57520788 -19.06640625 0.4375 C-18.19415909 0.39375244 -17.32191193 0.35000488 -16.42323303 0.30493164 C-10.94187155 0.04370324 -5.48766352 -0.03876495 0 0 Z " fill="#7F838A" transform="translate(75,278)"/>
<path d="M0 0 C6.27 0 12.54 0 19 0 C19.66 1.65 20.32 3.3 21 5 C17.04 5.66 13.08 6.32 9 7 C8.67 6.34 8.34 5.68 8 5 C7.67 5.66 7.34 6.32 7 7 C1.06 7 -4.88 7 -11 7 C-11 5.02 -11 3.04 -11 1 C-8.36 1 -5.72 1 -3 1 C-3 2.32 -3 3.64 -3 5 C-2.34 5 -1.68 5 -1 5 C-0.67 3.35 -0.34 1.7 0 0 Z " fill="#706F70" transform="translate(191,220)"/>
<path d="M0 0 C3.09244792 0.03255208 6.18489583 0.06510417 9.27734375 0.09765625 C9.27734375 4.05765625 9.27734375 8.01765625 9.27734375 12.09765625 C4.98734375 12.09765625 0.69734375 12.09765625 -3.72265625 12.09765625 C-3.8203125 3.6015625 -3.8203125 3.6015625 -3.72265625 1.09765625 C-2.72265625 0.09765625 -2.72265625 0.09765625 0 0 Z " fill="#A33F36" transform="translate(359.72265625,271.90234375)"/>
<path d="M0 0 C39.6 0 79.2 0 120 0 C119.67 0.99 119.34 1.98 119 3 C118.34 3 117.68 3 117 3 C117 2.34 117 1.68 117 1 C115.68 1 114.36 1 113 1 C113.495 2.485 113.495 2.485 114 4 C116.97 4.495 116.97 4.495 120 5 C119.67 5.99 119.34 6.98 119 8 C119 7.34 119 6.68 119 6 C115.7 6.33 112.4 6.66 109 7 C109.66 5.02 110.32 3.04 111 1 C74.37 1 37.74 1 0 1 C0 0.67 0 0.34 0 0 Z " fill="#8B8F9A" transform="translate(178,311)"/>
<path d="M0 0 C0.66 0.33 1.32 0.66 2 1 C1.67 2.65 1.34 4.3 1 6 C36.31 6.33 71.62 6.66 108 7 C108 7.33 108 7.66 108 8 C94.00491885 8.04674168 80.00984982 8.08186647 66.01470661 8.10362434 C59.51636869 8.11406643 53.01808316 8.12823352 46.51977539 8.15087891 C40.24985933 8.17259193 33.97999371 8.18456542 27.71004295 8.18975449 C25.31662387 8.193453 22.92320759 8.20067514 20.52980995 8.21146011 C17.18037552 8.22595436 13.83115015 8.22797878 10.48168945 8.22705078 C8.99383438 8.23783661 8.99383438 8.23783661 7.47592163 8.24884033 C2.88983611 8.23506944 -0.84967566 8.21770331 -5 6 C-3.63016497 2.83884224 -3.0109362 2.0072908 0 0 Z " fill="#757E80" transform="translate(177,319)"/>
<path d="M0 0 C0 0.33 0 0.66 0 1 C-9.23035462 1.77737219 -18.37805851 2.15202311 -27.64202118 2.19923019 C-29.79449293 2.21127388 -31.94678583 2.23076876 -34.09918213 2.25234985 C-40.20603615 2.31322927 -46.31284722 2.36834131 -52.41992188 2.40136719 C-56.18393187 2.42224868 -59.94757275 2.45745285 -63.71137238 2.50212479 C-65.13871196 2.516287 -66.56611632 2.52500774 -67.99352264 2.52817917 C-69.97460271 2.53306022 -71.9556043 2.5577782 -73.93652344 2.58349609 C-75.06233826 2.59158295 -76.18815308 2.5996698 -77.3480835 2.60800171 C-78.22321594 2.73736115 -79.09834839 2.86672058 -80 3 C-80.99 4.485 -80.99 4.485 -82 6 C-82.99 6 -83.98 6 -85 6 C-85.33 4.35 -85.66 2.7 -86 1 C-57.32735553 0.24370997 -28.68258281 -0.1492569 0 0 Z " fill="#909299" transform="translate(105,274)"/>
<path d="M0 0 C-0.33 0.99 -0.66 1.98 -1 3 C-3.0625 3.9375 -3.0625 3.9375 -6 5 C-7.27720301 5.63314337 -8.54758832 6.28014432 -9.8125 6.9375 C-17.83671544 10.97966096 -26.85697931 14.5898723 -36 14 C-35.67 13.34 -35.34 12.68 -35 12 C-32.27734375 11.3671875 -32.27734375 11.3671875 -28.9375 10.875 C-27.83277344 10.70742188 -26.72804688 10.53984375 -25.58984375 10.3671875 C-24.30787109 10.18542969 -24.30787109 10.18542969 -23 10 C-23 9.34 -23 8.68 -23 8 C-23.66 7.67 -24.32 7.34 -25 7 C-22.08489248 5.85017194 -19.16765566 4.70584512 -16.25 3.5625 C-15.425 3.23701172 -14.6 2.91152344 -13.75 2.57617188 C-12.95078125 2.26357422 -12.1515625 1.95097656 -11.328125 1.62890625 C-10.5949707 1.34088135 -9.86181641 1.05285645 -9.10644531 0.75610352 C-3.62949941 -1.20983314 -3.62949941 -1.20983314 0 0 Z " fill="#C4CFD6" transform="translate(396,249)"/>
<path d="M0 0 C1.6674606 0.08426094 3.33825187 0.10725143 5.0078125 0.09765625 C5.99394531 0.09443359 6.98007812 0.09121094 7.99609375 0.08789062 C9.54490234 0.07532227 9.54490234 0.07532227 11.125 0.0625 C12.16527344 0.05798828 13.20554687 0.05347656 14.27734375 0.04882812 C16.85161962 0.03701952 19.42578146 0.02055075 22 0 C22 0.33 22 0.66 22 1 C16.49121955 1.4361859 10.98180804 1.86292294 5.47167969 2.28173828 C3.60592983 2.42478977 1.74035989 2.57021203 -0.125 2.71826172 C-12.44526931 3.69405891 -24.64087127 4.20513077 -37 4 C-36 2 -36 2 -33 1 C-28.5548416 0.55895882 -24.09672662 0.29628244 -19.63891602 0.01513672 C-17.44168867 -0.12473336 -15.24532182 -0.27487523 -13.04882812 -0.42578125 C-11.65629039 -0.51624881 -10.2637133 -0.60611321 -8.87109375 -0.6953125 C-6.96734985 -0.8193042 -6.96734985 -0.8193042 -5.02514648 -0.94580078 C-2 -1 -2 -1 0 0 Z " fill="#CDD3D8" transform="translate(316,262)"/>
<path d="M0 0 C-0.33 0.66 -0.66 1.32 -1 2 C-2.07636719 2.04898437 -3.15273438 2.09796875 -4.26171875 2.1484375 C-11.06517356 2.48673083 -17.77488986 2.85493677 -24.5 4 C-29.7003349 4.86233401 -34.87112421 5.42677241 -40.125 5.8125 C-40.86041016 5.87759766 -41.59582031 5.94269531 -42.35351562 6.00976562 C-47.60289343 6.34796083 -47.60289343 6.34796083 -49.72216797 4.4909668 C-50.14385254 3.99894775 -50.56553711 3.50692871 -51 3 C-45.3444279 2.56796117 -39.68850882 2.14090158 -34.03222656 1.71826172 C-32.11187836 1.57409046 -30.19162812 1.42860759 -28.27148438 1.28173828 C-25.49634727 1.06970857 -22.7208809 0.86254794 -19.9453125 0.65625 C-19.1001004 0.59062866 -18.25488831 0.52500732 -17.38406372 0.45739746 C-11.58006272 0.03232333 -5.81861763 -0.07304311 0 0 Z " fill="#A0AAB7" transform="translate(348,262)"/>
<path d="M0 0 C0 0.33 0 0.66 0 1 C-4.95 1.66 -9.9 2.32 -15 3 C-12.69 3.33 -10.38 3.66 -8 4 C-8 6.64 -8 9.28 -8 12 C-10.97 11.67 -13.94 11.34 -17 11 C-19.125 5.375 -19.125 5.375 -18 2 C-19.32 1.67 -20.64 1.34 -22 1 C-14.65623924 0.42240084 -7.36901413 -0.14738028 0 0 Z " fill="#463C40" transform="translate(346,270)"/>
<path d="M0 0 C3.96 0 7.92 0 12 0 C12 1.32 12 2.64 12 4 C-0.48519362 8.59225513 -0.48519362 8.59225513 -7 8 C-6.67 7.34 -6.34 6.68 -6 6 C-5.34 6 -4.68 6 -4 6 C-4 5.34 -4 4.68 -4 4 C-3.34 4 -2.68 4 -2 4 C-1.34 2.68 -0.68 1.36 0 0 Z " fill="#A5AEB7" transform="translate(72,314)"/>
<path d="M0 0 C-0.33 0.66 -0.66 1.32 -1 2 C-3.98413086 2.41064453 -3.98413086 2.41064453 -7.96484375 2.6328125 C-8.67218155 2.67437469 -9.37951935 2.71593689 -10.10829163 2.75875854 C-11.61369021 2.84545955 -13.11936184 2.92752206 -14.62524414 3.00537109 C-16.89729393 3.12291986 -19.16827832 3.25342628 -21.43945312 3.38671875 C-28.96480357 3.81524608 -36.46004502 4.10482559 -44 4 C-44 3.67 -44 3.34 -44 3 C-42.35 2.67 -40.7 2.34 -39 2 C-39 1.67 -39 1.34 -39 1 C-25.99069108 -0.05736038 -13.04584256 -0.11145896 0 0 Z " fill="#82868E" transform="translate(144,273)"/>
<path d="M0 0 C0.82886719 0.0928125 1.65773438 0.185625 2.51171875 0.28125 C3.10597656 0.3534375 3.70023437 0.425625 4.3125 0.5 C3.9825 1.16 3.6525 1.82 3.3125 2.5 C-10.5475 2.5 -24.4075 2.5 -38.6875 2.5 C-38.6875 1.84 -38.6875 1.18 -38.6875 0.5 C-35.25020271 0.32897661 -31.81263833 0.16401369 -28.375 0 C-26.93930664 -0.07154297 -26.93930664 -0.07154297 -25.47460938 -0.14453125 C-8.24965636 -0.9564819 -8.24965636 -0.9564819 0 0 Z " fill="#555E64" transform="translate(333.6875,323.5)"/>
<path d="M0 0 C8.58 0 17.16 0 26 0 C26.33 0.99 26.66 1.98 27 3 C25.84371094 3.07347656 25.84371094 3.07347656 24.6640625 3.1484375 C23.66117188 3.22320312 22.65828125 3.29796875 21.625 3.375 C20.62726563 3.44460938 19.62953125 3.51421875 18.6015625 3.5859375 C15.84491121 3.76363964 15.84491121 3.76363964 14 6 C9.01662989 5.69797757 4.45612062 3.08728962 0 1 C0 0.67 0 0.34 0 0 Z " fill="#767D85" transform="translate(56,311)"/>
<path d="M0 0 C1.32 0.33 2.64 0.66 4 1 C4 1.99 4 2.98 4 4 C5.98 4 7.96 4 10 4 C7.77926458 6.55384573 6.29323352 7.35580258 3 8 C-4.59523969 8.48223744 -11.74691956 7.35293383 -19 5 C-19.33 4.34 -19.66 3.68 -20 3 C-18.80761719 3.0721875 -17.61523438 3.144375 -16.38671875 3.21875 C-14.82031529 3.31254661 -13.25390889 3.40629405 -11.6875 3.5 C-10.50897461 3.57154297 -10.50897461 3.57154297 -9.30664062 3.64453125 C-8.1706543 3.71220703 -8.1706543 3.71220703 -7.01171875 3.78125 C-5.96697388 3.8440918 -5.96697388 3.8440918 -4.90112305 3.90820312 C-3.26903034 3.98700971 -1.63399421 4 0 4 C0 2.68 0 1.36 0 0 Z " fill="#C9CBD0" transform="translate(470,321)"/>
<path d="M0 0 C0.70125 0.00515625 1.4025 0.0103125 2.125 0.015625 C2.82625 0.01046875 3.5275 0.0053125 4.25 0 C6.125 0.265625 6.125 0.265625 8.125 2.265625 C7.875 4.828125 7.875 4.828125 7.125 7.265625 C4.89609005 8.38007998 3.59444894 8.43042786 1.125 8.453125 C0.073125 8.47439453 0.073125 8.47439453 -1 8.49609375 C-2.875 8.265625 -2.875 8.265625 -4.875 6.265625 C-4.46424714 2.97960211 -3.612595 0.51178429 0 0 Z " fill="#E9A8AD" transform="translate(167.875,220.734375)"/>
<path d="M0 0 C0.33 0.66 0.66 1.32 1 2 C0.01 4.31 -0.98 6.62 -2 9 C-8.6 9 -15.2 9 -22 9 C-19.2350835 7.15672233 -17.50758566 6.47030089 -14.375 5.625 C-9.35461787 4.18533159 -4.71002001 2.24124141 0 0 Z " fill="#85888C" transform="translate(85,316)"/>
<path d="M0 0 C8.91 0 17.82 0 27 0 C27 0.33 27 0.66 27 1 C28.98 1.33 30.96 1.66 33 2 C33 2.33 33 2.66 33 3 C19.14 3 5.28 3 -9 3 C-9 2.67 -9 2.34 -9 2 C-6.03 2 -3.06 2 0 2 C0 1.34 0 0.68 0 0 Z " fill="#A8ADB4" transform="translate(158,274)"/>
<path d="M0 0 C1.16337891 0.00966797 2.32675781 0.01933594 3.52539062 0.02929688 C4.74033203 0.05443359 5.95527344 0.07957031 7.20703125 0.10546875 C8.43357422 0.11900391 9.66011719 0.13253906 10.92382812 0.14648438 C13.95616789 0.18188134 16.98763121 0.23126115 20.01953125 0.29296875 C20.01953125 0.62296875 20.01953125 0.95296875 20.01953125 1.29296875 C22.32953125 1.62296875 24.63953125 1.95296875 27.01953125 2.29296875 C27.01953125 2.62296875 27.01953125 2.95296875 27.01953125 3.29296875 C25.57332397 3.33055298 25.57332397 3.33055298 24.09790039 3.36889648 C20.53265283 3.46282181 16.96760692 3.56307814 13.40258789 3.6652832 C11.85738836 3.7086886 10.31213911 3.75035946 8.7668457 3.7902832 C6.55014029 3.84785074 4.33368645 3.91158299 2.1171875 3.9765625 C1.07498802 4.00163124 1.07498802 4.00163124 0.01173401 4.02720642 C-3.26808904 3.85799731 -3.26808904 3.85799731 -5.98046875 5.29296875 C-7.98005239 5.33377658 -9.98092129 5.33551231 -11.98046875 5.29296875 C-12.31046875 3.97296875 -12.64046875 2.65296875 -12.98046875 1.29296875 C-11.66046875 1.29296875 -10.34046875 1.29296875 -8.98046875 1.29296875 C-8.98046875 1.95296875 -8.98046875 2.61296875 -8.98046875 3.29296875 C-8.4229895 2.55953247 -8.4229895 2.55953247 -7.85424805 1.8112793 C-5.20904559 -0.33211016 -3.37160053 -0.0493405 0 0 Z " fill="#2A3136" transform="translate(303.98046875,310.70703125)"/>
<path d="M0 0 C0 0.33 0 0.66 0 1 C5.28 1.33 10.56 1.66 16 2 C16 2.33 16 2.66 16 3 C-0.83 3 -17.66 3 -35 3 C-35 2.67 -35 2.34 -35 2 C-23.30024254 0.74059296 -11.7812416 -0.35640731 0 0 Z " fill="#9BA0A7" transform="translate(158,275)"/>
<path d="M0 0 C0 0.66 0 1.32 0 2 C-0.85464844 2.20496094 -1.70929688 2.40992188 -2.58984375 2.62109375 C-3.69457031 2.89050781 -4.79929687 3.15992188 -5.9375 3.4375 C-7.03964844 3.70433594 -8.14179688 3.97117187 -9.27734375 4.24609375 C-11.89421254 4.72995725 -11.89421254 4.72995725 -13 6 C-20.36777571 6.41269254 -27.6889036 5.90579955 -35 5 C-35 4.67 -35 4.34 -35 4 C-34.23333008 3.91435791 -33.46666016 3.82871582 -32.67675781 3.74047852 C-29.20085216 3.35061058 -25.72542805 2.95660181 -22.25 2.5625 C-21.0434375 2.42779297 -19.836875 2.29308594 -18.59375 2.15429688 C-17.43359375 2.02216797 -16.2734375 1.89003906 -15.078125 1.75390625 C-13.47565918 1.57323608 -13.47565918 1.57323608 -11.84082031 1.38891602 C-1.40954424 -0.03915401 -1.40954424 -0.03915401 0 0 Z " fill="#B5BCC6" transform="translate(373,257)"/>
<path d="M0 0 C-4.41701875 5.44350902 -13.19961725 6.43992345 -19.75 7.75 C-23.84203975 8.06477229 -27.89846696 8.08370476 -32 8 C-31.67 7.34 -31.34 6.68 -31 6 C-28.671875 5.3671875 -28.671875 5.3671875 -25.75 4.875 C-24.79609375 4.70742188 -23.8421875 4.53984375 -22.859375 4.3671875 C-20 4 -20 4 -17.453125 4.0703125 C-14.54910841 3.98707636 -12.64006406 3.18802883 -10 2 C-6.45728543 0.40577844 -3.89500537 -0.22257174 0 0 Z " fill="#D9DFE3" transform="translate(380,252)"/>
<path d="M0 0 C0.66 0.33 1.32 0.66 2 1 C2 3.97 2 6.94 2 10 C3.65 10 5.3 10 7 10 C7 10.33 7 10.66 7 11 C-7.97953064 12.32102947 -22.97681343 12.09899707 -38 12 C-38 11.67 -38 11.34 -38 11 C-25.79 10.67 -13.58 10.34 -1 10 C-1 7.03 -1 4.06 -1 1 C-0.67 0.67 -0.34 0.34 0 0 Z " fill="#3F4648" transform="translate(289,278)"/>
<path d="M0 0 C1.796875 1.90234375 1.796875 1.90234375 2.1875 5.0390625 C2.11789062 6.79669922 2.11789062 6.79669922 2.046875 8.58984375 C2.01078125 9.76933594 1.9746875 10.94882812 1.9375 12.1640625 C1.86789062 13.51951172 1.86789062 13.51951172 1.796875 14.90234375 C1.466875 14.90234375 1.136875 14.90234375 0.796875 14.90234375 C0.796875 10.94234375 0.796875 6.98234375 0.796875 2.90234375 C-4.153125 3.23234375 -9.103125 3.56234375 -14.203125 3.90234375 C-14.203125 3.24234375 -14.203125 2.58234375 -14.203125 1.90234375 C-16.843125 1.57234375 -19.483125 1.24234375 -22.203125 0.90234375 C-22.203125 0.57234375 -22.203125 0.24234375 -22.203125 -0.09765625 C-3.66817715 -1.82758472 -3.66817715 -1.82758472 0 0 Z " fill="#28191A" transform="translate(370.203125,269.09765625)"/>
<path d="M0 0 C0 0.33 0 0.66 0 1 C-7.26 1 -14.52 1 -22 1 C-22 0.34 -22 -0.32 -22 -1 C-14.25640852 -5.83974468 -7.79805739 -3.20277357 0 0 Z " fill="#BEC6CF" transform="translate(430,328)"/>
<path d="M0 0 C-0.33 0.66 -0.66 1.32 -1 2 C-13.21 2 -25.42 2 -38 2 C-38 1.67 -38 1.34 -38 1 C-12.23623663 -1.59415759 -12.23623663 -1.59415759 0 0 Z " fill="#606C76" transform="translate(397,324)"/>
<path d="M0 0 C0.66 0.33 1.32 0.66 2 1 C1.67 2.65 1.34 4.3 1 6 C13.54 6.33 26.08 6.66 39 7 C39 7.33 39 7.66 39 8 C33.53736689 8.04952523 28.07486518 8.08577896 22.61206055 8.10986328 C20.75461551 8.11990615 18.89718621 8.13354304 17.03979492 8.15087891 C14.36633409 8.17520261 11.69308274 8.18650033 9.01953125 8.1953125 C7.7786248 8.21079636 7.7786248 8.21079636 6.51264954 8.22659302 C2.21340985 8.22742519 -1.07985785 7.99986069 -5 6 C-3.63016497 2.83884224 -3.0109362 2.0072908 0 0 Z " fill="#82898D" transform="translate(177,319)"/>
<path d="M0 0 C0.125 7.75 0.125 7.75 -1 10 C2.96 10 6.92 10 11 10 C11 10.33 11 10.66 11 11 C7.91674642 11.0582253 4.83363495 11.09367134 1.75 11.125 C0.44095703 11.15013672 0.44095703 11.15013672 -0.89453125 11.17578125 C-1.73886719 11.18222656 -2.58320313 11.18867188 -3.453125 11.1953125 C-4.22817383 11.20578613 -5.00322266 11.21625977 -5.80175781 11.22705078 C-8.25883539 10.97326556 -9.87311542 10.22444152 -12 9 C-11.67 8.34 -11.34 7.68 -11 7 C-8.69 7.33 -6.38 7.66 -4 8 C-3.34 6.68 -2.68 5.36 -2 4 C-2.99 4 -3.98 4 -5 4 C-5 3.34 -5 2.68 -5 2 C-2 0 -2 0 0 0 Z " fill="#1D1E20" transform="translate(344,275)"/>
<path d="M0 0 C1.670625 0.061875 1.670625 0.061875 3.375 0.125 C3.705 1.775 4.035 3.425 4.375 5.125 C1.075 5.785 -2.225 6.445 -5.625 7.125 C-5.625 0.19396552 -5.625 0.19396552 0 0 Z " fill="#B5BDC4" transform="translate(174.625,313.875)"/>
<path d="M0 0 C13.2 0 26.4 0 40 0 C40 0.33 40 0.66 40 1 C38.47076904 1.02187378 38.47076904 1.02187378 36.91064453 1.04418945 C33.13456834 1.10208466 29.35909404 1.17931665 25.58349609 1.26245117 C23.94817866 1.29574214 22.31274518 1.32376106 20.67724609 1.34643555 C18.32859757 1.37990628 15.98101663 1.43221436 13.6328125 1.48828125 C12.53273361 1.49786613 12.53273361 1.49786613 11.41043091 1.50764465 C9.12675244 1.53994543 9.12675244 1.53994543 6 2 C5.01 3.485 5.01 3.485 4 5 C3.01 5 2.02 5 1 5 C0.67 3.35 0.34 1.7 0 0 Z " fill="#9C9EA1" transform="translate(19,275)"/>
<path d="M0 0 C4.62 0 9.24 0 14 0 C12.515 1.98 12.515 1.98 11 4 C7.86328125 4.390625 7.86328125 4.390625 4.3125 4.25 C2.54326172 4.19585937 2.54326172 4.19585937 0.73828125 4.140625 C-0.61716797 4.07101562 -0.61716797 4.07101562 -2 4 C-1.34 2.68 -0.68 1.36 0 0 Z " fill="#D1D9DD" transform="translate(326,266)"/>
<path d="M0 0 C1.1446875 0.3403125 1.1446875 0.3403125 2.3125 0.6875 C2.6425 2.0075 2.9725 3.3275 3.3125 4.6875 C-1.6375 6.1725 -1.6375 6.1725 -6.6875 7.6875 C-5.6875 2.6875 -5.6875 2.6875 -4.4375 0.8125 C-2.6875 -0.3125 -2.6875 -0.3125 0 0 Z " fill="#D3D8DC" transform="translate(410.6875,318.3125)"/>
<path d="M0 0 C15.18 0 30.36 0 46 0 C46 0.33 46 0.66 46 1 C31.81 1 17.62 1 3 1 C2.67 1.99 2.34 2.98 2 4 C1.34 2.68 0.68 1.36 0 0 Z " fill="#989CA3" transform="translate(26,297)"/>
<path d="M0 0 C0 1.65 0 3.3 0 5 C-4.95 4.67 -9.9 4.34 -15 4 C-15 3.01 -15 2.02 -15 1 C-12.68753088 0.83290546 -10.37502385 0.66633538 -8.0625 0.5 C-6.77472656 0.4071875 -5.48695313 0.314375 -4.16015625 0.21875 C-1 0 -1 0 0 0 Z " fill="#5D656C" transform="translate(168,320)"/>
<path d="M0 0 C-0.33 0.99 -0.66 1.98 -1 3 C-3.375 4.0625 -3.375 4.0625 -6 5 C-6.99 5.66 -7.98 6.32 -9 7 C-11.1875 6.625 -11.1875 6.625 -13 6 C-11.35 5.67 -9.7 5.34 -8 5 C-8 4.34 -8 3.68 -8 3 C-8.7425 3.350625 -9.485 3.70125 -10.25 4.0625 C-13.21122875 5.0720098 -14.12062561 4.87980884 -17 4 C-14.73291675 3.1344953 -12.46224921 2.28240685 -10.1875 1.4375 C-9.54490234 1.19064453 -8.90230469 0.94378906 -8.24023438 0.68945312 C-3.33984375 -1.11328125 -3.33984375 -1.11328125 0 0 Z " fill="#CDD6DD" transform="translate(396,249)"/>
<path d="M0 0 C1.65 0.33 3.3 0.66 5 1 C5.33 2.32 5.66 3.64 6 5 C2.04 5.66 -1.92 6.32 -6 7 C-6 5.35 -6 3.7 -6 2 C-5.01 2 -4.02 2 -3 2 C-3 2.99 -3 3.98 -3 5 C-2.34 5 -1.68 5 -1 5 C-0.67 3.35 -0.34 1.7 0 0 Z " fill="#B7B9BA" transform="translate(206,220)"/>
<path d="M0 0 C1.36365283 0.95824253 2.70794169 1.94721175 4 3 C2.91332031 2.83951172 2.91332031 2.83951172 1.8046875 2.67578125 C-4.21652776 1.92915056 -7.64524274 1.81264449 -13 5 C-15.875 5.1875 -15.875 5.1875 -18 5 C-15.65770671 2.34387003 -13.38152988 1.04851173 -10.125 -0.3125 C-9.28195312 -0.67988281 -8.43890625 -1.04726563 -7.5703125 -1.42578125 C-4.29252095 -2.15805383 -2.93559553 -1.5621899 0 0 Z " fill="#6F7882" transform="translate(421,323)"/>
<path d="M0 0 C4.62 0 9.24 0 14 0 C12.68 1.65 11.36 3.3 10 5 C6.05140217 4.4359146 3.29120954 3.2568294 0 1 C0 0.67 0 0.34 0 0 Z " fill="#2A3637" transform="translate(60,312)"/>
<path d="M0 0 C0.33 1.32 0.66 2.64 1 4 C1.598125 4.0825 2.19625 4.165 2.8125 4.25 C5 5 5 5 8 9 C3.05 9 -1.9 9 -7 9 C-4.38058783 7.25372522 -2.96175123 6.61277612 0 6 C0 4.02 0 2.04 0 0 Z " fill="#0E1112" transform="translate(328,277)"/>
<path d="M0 0 C1.65 0 3.3 0 5 0 C5 3.3 5 6.6 5 10 C3.68 10 2.36 10 1 10 C1 9.01 1 8.02 1 7 C1.66 7 2.32 7 3 7 C3 6.34 3 5.68 3 5 C2.01 4.67 1.02 4.34 0 4 C0 2.68 0 1.36 0 0 Z " fill="#E9B16C" transform="translate(363,273)"/>
<path d="M0 0 C0.66 0 1.32 0 2 0 C2 1.32 2 2.64 2 4 C5.465 3.505 5.465 3.505 9 3 C9.33 2.01 9.66 1.02 10 0 C10.66 0 11.32 0 12 0 C11.625 2.4375 11.625 2.4375 11 5 C8.77109005 6.11445498 7.46944894 6.16480286 5 6.1875 C3.948125 6.20876953 3.948125 6.20876953 2.875 6.23046875 C1 6 1 6 -1 4 C-0.625 1.875 -0.625 1.875 0 0 Z " fill="#ED5A64" transform="translate(164,223)"/>
<path d="M0 0 C-0.33 1.65 -0.66 3.3 -1 5 C-1.66 5 -2.32 5 -3 5 C-3 4.01 -3 3.02 -3 2 C-3.99 2 -4.98 2 -6 2 C-5.67 3.32 -5.34 4.64 -5 6 C-6.66666667 6 -8.33333333 6 -10 6 C-10 4.35 -10 2.7 -10 1 C-6.52674819 -0.1577506 -3.63932552 -0.06866652 0 0 Z " fill="#383637" transform="translate(206,220)"/>
<path d="M0 0 C0.33 0.66 0.66 1.32 1 2 C0.06421005 4.35981813 -0.93347808 6.69631264 -2 9 C-4.64 8.67 -7.28 8.34 -10 8 C-7.16569547 4.7457985 -5.31392226 3.4793247 -1 3 C-0.67 2.01 -0.34 1.02 0 0 Z " fill="#6E7677" transform="translate(85,316)"/>
<path d="M0 0 C2.475 0.495 2.475 0.495 5 1 C5.33 2.65 5.66 4.3 6 6 C4.35 6.33 2.7 6.66 1 7 C0.67 4.69 0.34 2.38 0 0 Z " fill="#D94060" transform="translate(331,275)"/>
<path d="M0 0 C5.94 0 11.88 0 18 0 C10.7029274 3.6485363 3.00146243 3.13237714 -5 3 C-5 2.67 -5 2.34 -5 2 C-3.35 2 -1.7 2 0 2 C0 1.34 0 0.68 0 0 Z " fill="#BFBBC1" transform="translate(354,266)"/>
<path d="M0 0 C0.66 0.66 1.32 1.32 2 2 C-5.49175465 3.0773541 -12.48905184 2.8388516 -20 2 C-20 1.67 -20 1.34 -20 1 C-5.82089552 -0.32338308 -5.82089552 -0.32338308 0 0 Z " fill="#322D30" transform="translate(368,268)"/>
<path d="M0 0 C6.7685324 -0.10152799 13.30324864 -0.03026944 20 1 C20 1.33 20 1.66 20 2 C17.22965863 2.24858198 14.46060931 2.47452879 11.6875 2.6875 C10.50897461 2.79674805 10.50897461 2.79674805 9.30664062 2.90820312 C8.54931641 2.96298828 7.79199219 3.01777344 7.01171875 3.07421875 C6.31522217 3.13182373 5.61872559 3.18942871 4.90112305 3.2487793 C2.40690575 2.92238821 1.5788082 1.8898183 0 0 Z " fill="#A8B2BC" transform="translate(297,265)"/>
<path d="M0 0 C4.29 0 8.58 0 13 0 C13 0.33 13 0.66 13 1 C10.03 1 7.06 1 4 1 C3.67 2.65 3.34 4.3 3 6 C2.01 6 1.02 6 0 6 C0 4.02 0 2.04 0 0 Z " fill="#283338" transform="translate(27,283)"/>
<path d="M0 0 C0 0.66 0 1.32 0 2 C-5.89893243 3.79074734 -9.93179132 4.08360869 -16 3 C-16 2.67 -16 2.34 -16 2 C-14.27192682 1.66104344 -12.54248026 1.32908475 -10.8125 1 C-9.84957031 0.814375 -8.88664062 0.62875 -7.89453125 0.4375 C-5.2065794 0.03122388 -2.71228981 -0.07933572 0 0 Z " fill="#BAC2CC" transform="translate(373,257)"/>
<path d="M0 0 C2.97 0 5.94 0 9 0 C9 0.66 9 1.32 9 2 C4.05 3.485 4.05 3.485 -1 5 C-0.67 3.35 -0.34 1.7 0 0 Z " fill="#D1D8DD" transform="translate(288,317)"/>
<path d="M0 0 C1.32 0 2.64 0 4 0 C4 3.33333333 4 6.66666667 4 10 C2.68 9.67 1.36 9.34 0 9 C0 7.35 0 5.7 0 4 C0.66 4 1.32 4 2 4 C2 3.34 2 2.68 2 2 C1.34 2 0.68 2 0 2 C0 1.34 0 0.68 0 0 Z " fill="#E8AD69" transform="translate(357,273)"/>
<path d="M0 0 C0 1.32 0 2.64 0 4 C-4.455 4.495 -4.455 4.495 -9 5 C-4.16129032 0 -4.16129032 0 0 0 Z " fill="#B4BEC4" transform="translate(81,315)"/>
<path d="M0 0 C-1.1875 1.5 -1.1875 1.5 -3 3 C-5.6875 3.1875 -5.6875 3.1875 -8 3 C-8 2.34 -8 1.68 -8 1 C-8.66 0.67 -9.32 0.34 -10 0 C-6.7169902 -1.6415049 -3.57454967 -0.51888624 0 0 Z " fill="#B1C1CC" transform="translate(422,325)"/>
<path d="M0 0 C1.32 0 2.64 0 4 0 C4 0.66 4 1.32 4 2 C5.32 1.34 6.64 0.68 8 0 C7.67 1.32 7.34 2.64 7 4 C5.02 4 3.04 4 1 4 C0.67 2.68 0.34 1.36 0 0 Z " fill="#212C31" transform="translate(291,312)"/>
<path d="M0 0 C6.75 0.75 6.75 0.75 9 3 C9 3.66 9 4.32 9 5 C2.25 3.375 2.25 3.375 0 0 Z " fill="#989FA9" transform="translate(56,313)"/>
<path d="M0 0 C2.97 0 5.94 0 9 0 C9 0.66 9 1.32 9 2 C4.545 2.495 4.545 2.495 0 3 C0 2.01 0 1.02 0 0 Z " fill="#A9A6AE" transform="translate(468,326)"/>
<path d="M0 0 C0.66 0 1.32 0 2 0 C2.33 0.66 2.66 1.32 3 2 C6.02934491 2.65772428 6.02934491 2.65772428 9 3 C8.67 3.99 8.34 4.98 8 6 C8 5.34 8 4.68 8 4 C4.7 4.33 1.4 4.66 -2 5 C-1.34 3.35 -0.68 1.7 0 0 Z " fill="#A1ADB6" transform="translate(289,313)"/>
<path d="M0 0 C2.05078125 0.03255208 4.1015625 0.06510417 6.15234375 0.09765625 C6.48234375 0.75765625 6.81234375 1.41765625 7.15234375 2.09765625 C6.16234375 3.58265625 6.16234375 3.58265625 5.15234375 5.09765625 C5.15234375 4.10765625 5.15234375 3.11765625 5.15234375 2.09765625 C3.17234375 2.09765625 1.19234375 2.09765625 -0.84765625 2.09765625 C-1.17765625 2.75765625 -1.50765625 3.41765625 -1.84765625 4.09765625 C-2.17765625 3.10765625 -2.50765625 2.11765625 -2.84765625 1.09765625 C-1.84765625 0.09765625 -1.84765625 0.09765625 0 0 Z " fill="#EA949A" transform="translate(167.84765625,220.90234375)"/>
<path d="M0 0 C1.65 0.33 3.3 0.66 5 1 C5.33 2.32 5.66 3.64 6 5 C4.68 4.67 3.36 4.34 2 4 C2 3.34 2 2.68 2 2 C0.68 2.33 -0.64 2.66 -2 3 C-1.34 2.01 -0.68 1.02 0 0 Z " fill="#C4CDD2" transform="translate(408,318)"/>
<path d="M0 0 C4.62 0 9.24 0 14 0 C13.67 0.99 13.34 1.98 13 3 C12.34 3 11.68 3 11 3 C11 2.34 11 1.68 11 1 C9.6696875 1.2784375 9.6696875 1.2784375 8.3125 1.5625 C5.14821189 1.98042484 3.05160358 1.80777742 0 1 C0 0.67 0 0.34 0 0 Z " fill="#656C76" transform="translate(284,311)"/>
<path d="M0 0 C0 2.31 0 4.62 0 7 C-0.66 7 -1.32 7 -2 7 C-2 6.01 -2 5.02 -2 4 C-2.99 4 -3.98 4 -5 4 C-5 3.34 -5 2.68 -5 2 C-2 0 -2 0 0 0 Z " fill="#496337" transform="translate(344,275)"/>
<path d="M0 0 C2.64 0 5.28 0 8 0 C8 1.32 8 2.64 8 4 C7.01 4 6.02 4 5 4 C5 3.01 5 2.02 5 1 C3.35 1 1.7 1 0 1 C0 0.67 0 0.34 0 0 Z " fill="#9DAAB2" transform="translate(76,314)"/>
<path d="M0 0 C0.99 0.33 1.98 0.66 3 1 C3.6875 3.0625 3.6875 3.0625 4 5 C2.35 5 0.7 5 -1 5 C-0.67 3.35 -0.34 1.7 0 0 Z " fill="#424041" transform="translate(208,220)"/>
<path d="M0 0 C2.31 0 4.62 0 7 0 C6.67 1.65 6.34 3.3 6 5 C5.34 5 4.68 5 4 5 C4 4.01 4 3.02 4 2 C2.68 1.67 1.36 1.34 0 1 C0 0.67 0 0.34 0 0 Z " fill="#525051" transform="translate(199,220)"/>
<path d="M0 0 C0.66 0.33 1.32 0.66 2 1 C1.01 2.32 0.02 3.64 -1 5 C-2.32 4.67 -3.64 4.34 -5 4 C-4.01 3.67 -3.02 3.34 -2 3 C-2 2.34 -2 1.68 -2 1 C-1.34 0.67 -0.68 0.34 0 0 Z " fill="#B3BBC2" transform="translate(70,317)"/>
<path d="M0 0 C0.99 0 1.98 0 3 0 C3 0.66 3 1.32 3 2 C4.98 2 6.96 2 9 2 C8.67 2.66 8.34 3.32 8 4 C5.36 3.67 2.72 3.34 0 3 C0 2.01 0 1.02 0 0 Z " fill="#BBBEC4" transform="translate(471,323)"/>
<path d="M0 0 C0.99 0 1.98 0 3 0 C3 0.99 3 1.98 3 3 C2.34 3 1.68 3 1 3 C1 5.64 1 8.28 1 11 C0.67 11 0.34 11 0 11 C0 7.37 0 3.74 0 0 Z " fill="#311F1F" transform="translate(353,273)"/>
<path d="M0 0 C1.98 0 3.96 0 6 0 C6 2.64 6 5.28 6 8 C5.34 7.67 4.68 7.34 4 7 C3.855625 6.195625 3.71125 5.39125 3.5625 4.5625 C3.23497283 1.65559342 3.23497283 1.65559342 0 0 Z " fill="#411F21" transform="translate(332,274)"/>
</svg>
