<?xml version="1.0" encoding="utf-8"?>
<!-- Generator: Adobe Illustrator 27.5.0, SVG Export Plug-In . SVG Version: 6.00 Build 0)  -->
<svg version="1.1" id="Capa_1" xmlns="http://www.w3.org/2000/svg" xmlns:xlink="http://www.w3.org/1999/xlink" x="0px" y="0px"
	 viewBox="0 0 2122 2122" style="enable-background:new 0 0 2122 2122;" xml:space="preserve">
<g>
	<path style="fill:#ACD7C7;" d="M1541.472,1662.855l-781.182-0.77c-0.322,0-0.59,0.243-0.622,0.56
		c-3.618,36.292-5.873,66.177-7.096,94.04c-0.775,17.715-13.703,30.641-31.435,31.435c-7.832,0.395-15.864-3.021-22.095-9.247
		c-6.244-6.241-9.627-14.304-9.284-22.129c0.787-17.963,1.988-36.857,3.571-56.155c0.898-10.972,1.99-23.011,3.43-37.88
		c0.017-0.176-0.041-0.346-0.159-0.477c-0.119-0.132-0.287-0.205-0.462-0.205l-26.806-0.029c-0.105,0-0.207,0.025-0.297,0.078
		l-326.472,177.894c-0.203,0.107-0.327,0.316-0.327,0.545v0.278c0,0.346,0.28,0.624,0.624,0.624h875.237
		c0.105,0,0.207-0.024,0.3-0.078l323.374-177.314c0.251-0.137,0.375-0.424,0.304-0.702
		C1542.005,1663.05,1541.757,1662.855,1541.472,1662.855z"/>
	<path style="fill:#F29BB6;" d="M893.539,596.638c-0.178-0.156-0.426-0.2-0.643-0.119c-18.743,7.245-39.805,4.994-56.345-6.022
		c0,0,0,0-0.002,0l-1.055-0.702c-1.722-1.138-3.393-2.365-4.969-3.644c-0.166-0.134-0.385-0.178-0.59-0.107
		c-0.202,0.068-0.356,0.234-0.407,0.438c-17.579,69.741-26.317,142.598-34.77,213.056c-0.75,6.258-1.5,12.514-2.256,18.76
		c-4.166,34.434-8.721,69.402-13.128,103.222c-3.905,29.954-7.942,60.928-11.691,91.422
		c-8.809,71.607-17.522,146.345-26.638,228.485c-7.661,69.042-15.761,144.781-24.76,231.545c-2.872,27.693-6.09,55.834-9.203,83.049
		c-3.993,34.914-8.121,71.01-11.564,106.572c-1.439,14.874-2.531,26.918-3.43,37.899c-1.586,19.308-2.789,38.217-3.576,56.194
		c-0.358,8.176,3.159,16.584,9.649,23.069c6.173,6.168,14.083,9.637,21.868,9.637c0.39,0,0.777-0.01,1.162-0.024
		c18.404-0.824,31.822-14.241,32.629-32.624c1.22-27.844,3.474-57.705,7.091-93.972c2.731-27.386,5.924-55.186,9.013-82.075
		c1.827-15.902,3.715-32.346,5.486-48.521c4.346-39.649,8.531-79.982,12.577-118.99c3.63-34.976,7.381-71.144,11.235-106.696
		c3.128-28.828,6.212-57.658,9.295-86.491c10.743-100.45,21.851-204.317,34.685-306.255c2.47-19.627,4.848-39.847,7.145-59.398
		c10.049-85.519,20.441-173.95,43.374-257.079C893.785,597.04,893.711,596.797,893.539,596.638z"/>
	<path style="fill:#E880A6;" d="M1129.005,235.155c-24.606,9.291-48.511,19.793-71.057,31.215
		c-95.395,48.331-177.141,128.817-242.965,239.226c-15.936,26.738-9.593,61.785,14.755,81.524c1.605,1.303,3.31,2.553,5.067,3.715
		l1.052,0.7c10.346,6.889,22.419,10.417,34.621,10.417c7.705,0,15.464-1.408,22.865-4.268c12.631-4.884,23.171-13.437,30.482-24.738
		c44.664-69.049,101.478-125.848,168.861-168.82c0.188-0.119,0.297-0.331,0.288-0.553c-0.763-17.518-0.724-33.634,0.119-49.271
		c2.109-39.184,9.873-71.251,23.732-98.036c3.637-7.03,7.975-13.808,12.891-20.144c0.173-0.221,0.176-0.528,0.01-0.753
		C1129.561,235.14,1129.256,235.055,1129.005,235.155z"/>
	<path style="fill:#68BFAB;" d="M1756.057,486.212c-18.955-29.145-47.13-51.929-74.379-73.96c-2.747-2.224-5.481-4.433-8.187-6.638
		c-62.772-51.089-128.995-95.99-196.836-133.456c-77.843-42.994-142.856-67.549-204.6-77.276
		c-37.271-5.873-70.173-3.688-97.782,6.487c-17.808,6.558-33.13,17.992-45.539,33.988c-4.965,6.397-9.342,13.237-13.013,20.334
		c-13.944,26.945-21.751,59.178-23.873,98.542c-0.843,15.678-0.885,31.837-0.119,49.393c0.831,19.096,2.648,39.269,5.403,59.958
		c9.054,68.017,27.724,141.132,57.076,223.52c13.59,38.156,29.069,76.168,46.005,112.981c13.074,28.411,29.344,63.77,56.431,87.861
		c0.115,0.102,0.263,0.158,0.414,0.158c0.054,0,0.107-0.008,0.159-0.019c0.202-0.054,0.363-0.205,0.431-0.402
		c5.839-17.05,13.829-33.585,20.875-47.51c15.266-30.18,30.889-56.1,47.76-79.242c10.185-13.971,21.605-28.236,33.939-42.397
		c0.044-0.051,0.078-0.112,0.103-0.178c4.219-4.833,8.538-9.539,13.332-14.743c0.555-0.604,1.104-1.215,1.649-1.829
		c0.646-0.721,1.291-1.444,1.951-2.151c5.888-6.302,11.998-12.641,18.156-18.835c21.768-21.871,46.53-44.297,75.705-68.565
		c9.956-8.297,20.499-16.548,31.339-24.521c9.947-7.325,20.036-14.343,29.995-20.86c0.275-0.18,0.553-0.353,0.833-0.526
		c0.273-0.17,0.546-0.341,0.816-0.516c4.112-2.677,8.489-5.447,13.008-8.234c1.632-1.006,3.267-1.998,4.906-2.989
		c3.656-2.21,7.474-4.458,11.347-6.687l1.63-0.945c0.875-0.511,1.752-1.021,2.633-1.52c4.558-2.572,8.782-4.889,12.903-7.079
		c0.073-0.01,0.146-0.032,0.215-0.068c32.226-17.111,64.484-30.202,95.878-38.913c26.806-7.44,53.361-11.542,78.932-12.197
		c0.224-0.005,0.429-0.134,0.536-0.334C1756.191,486.644,1756.179,486.402,1756.057,486.212z"/>
	<g>
		<path style="fill:#4BAD93;" d="M1541.173,1662.933l-323.235,177.236H342.861c-0.343,0-0.624,0.278-0.624,0.624v88.243
			c0,0.346,0.28,0.624,0.624,0.624h875.632c0.105,0,0.207-0.024,0.3-0.078l322.979-177.036c0.2-0.107,0.324-0.316,0.324-0.545
			v-88.521c0-0.219-0.117-0.424-0.307-0.536C1541.604,1662.836,1541.367,1662.826,1541.173,1662.933z"/>
		<path style="fill:#4BAD93;" d="M1757.794,488.868c0,0,0,0,0-0.003c-0.348-0.558-0.714-1.106-1.079-1.654l-0.658-0.999
			c-0.117-0.175-0.312-0.282-0.523-0.282c-0.005,0-0.01,0-0.017,0c-25.671,0.658-52.328,4.777-79.229,12.241
			c-31.484,8.736-63.824,21.863-96.131,39.016c-0.195,0.102-0.321,0.302-0.331,0.524c-0.01,0.221,0.1,0.431,0.285,0.55
			c14.616,9.435,27.411,21.313,38.022,35.308c24.068,31.729,34.331,70.939,28.906,110.406c-5.43,39.469-25.905,74.467-57.656,98.547
			c-31.729,24.065-70.94,34.324-110.401,28.911c-39.464-5.423-74.45-25.883-98.515-57.612
			c-8.453-11.147-15.228-23.233-20.134-35.919c-0.08-0.205-0.258-0.353-0.475-0.39c-0.195-0.043-0.433,0.041-0.577,0.205
			c-12.358,14.187-23.8,28.48-34.007,42.479c-16.911,23.198-32.568,49.174-47.863,79.412c-7.067,13.966-15.079,30.548-20.942,47.671
			c-0.083,0.238,0.007,0.519,0.195,0.687c2.982,2.643,5.505,4.728,7.942,6.565c26.838,20.185,59.281,30.246,98.053,30.246
			c27.198,0,57.513-4.953,91.186-14.838c70.357-20.661,137.268-58.845,193.499-110.428c13.742-12.607,27.14-26.029,39.822-39.898
			c54.172-59.819,83.804-115.838,90.586-171.263C1782.254,551.501,1775.355,517.099,1757.794,488.868z"/>
	</g>
	<path style="fill:#FFD851;" d="M1619.126,572.813c-10.699-14.109-23.6-26.088-38.346-35.605c-0.19-0.146-0.448-0.158-0.66-0.049
		c-4.188,2.224-8.475,4.575-13.111,7.189c-0.887,0.501-1.766,1.016-2.648,1.527l-1.625,0.943c-3.878,2.234-7.705,4.487-11.366,6.701
		c-1.644,0.992-3.284,1.988-4.916,2.994c-4.528,2.794-8.913,5.569-13.037,8.251l-1.639,1.05
		c-9.92,6.485-20.034,13.515-30.063,20.894c-10.858,7.988-21.423,16.253-31.398,24.565c-29.203,24.292-53.992,46.747-75.79,68.645
		c-6.168,6.204-12.285,12.55-18.182,18.862c-0.668,0.713-1.321,1.444-1.971,2.173c-0.541,0.609-1.084,1.216-1.635,1.815
		c-4.848,5.259-9.208,10.012-13.476,14.906c-0.151,0.173-0.178,0.46-0.095,0.674c4.95,12.799,11.78,24.986,20.304,36.226
		c24.265,31.995,59.547,52.626,99.341,58.092c6.948,0.955,13.888,1.427,20.785,1.427c32.587,0,64.13-10.55,90.54-30.579
		c32.017-24.283,52.662-59.573,58.136-99.373C1653.744,644.348,1643.393,604.811,1619.126,572.813z"/>
</g>
</svg>
