<?xml version="1.0" encoding="UTF-8"?>
<svg xmlns="http://www.w3.org/2000/svg" xmlns:xlink="http://www.w3.org/1999/xlink" width="3750" height="2625" viewBox="0 0 3750 2625">

<path fill-rule="nonzero" fill="rgb(85.15625%, 93.359375%, 100%)" fill-opacity="1" d="M 3115.359375 2350.859375 C 3012.21875 2424.707031 2891.371094 2471.808594 2767.058594 2497.097656 C 2642.761719 2522.386719 2514.851562 2526.386719 2388.210938 2519.027344 C 2134.929688 2504.308594 1886.25 2444.722656 1633.570312 2421.960938 C 1468.378906 2407.082031 1302 2407.988281 1137 2391.117188 C 971.996094 2374.246094 805.851562 2338.457031 661.90625 2256.054688 C 486.179688 2155.453125 352.773438 1988.707031 275.890625 1801.386719 C 199.007812 1614.058594 176.421875 1407.171875 192.269531 1205.308594 C 207.039062 1017.199219 255.320312 830.070312 348.195312 665.820312 C 441.070312 501.578125 580.167969 361.121094 750.976562 280.960938 C 892.296875 214.640625 1050.351562 191.050781 1206.421875 187.71875 C 1362.5 184.398438 1518.230469 200.519531 1674.058594 209.859375 C 1951.511719 226.46875 2231.128906 221.660156 2505.480469 266.269531 C 2779.820312 310.871094 3054.53125 410.289062 3253.011719 604.871094 C 3424.960938 773.449219 3528.960938 1006.078125 3555.398438 1245.429688 C 3581.851562 1484.769531 3533.058594 1729.769531 3431.148438 1947.9375 C 3358.128906 2104.261719 3255.640625 2250.410156 3115.359375 2350.859375 Z M 3115.359375 2350.859375 "/>
<path fill-rule="nonzero" fill="rgb(100%, 85.9375%, 75.78125%)" fill-opacity="1" d="M 788.808594 921.53125 L 993.441406 638.199219 C 993.441406 638.199219 1009.179688 579.730469 1029.421875 552.75 C 1049.660156 525.761719 1285.769531 361.609375 1285.769531 361.609375 L 1317.25 361.609375 L 1413.941406 586.480469 L 1420.691406 633.699219 C 1420.691406 633.699219 1155.339844 795.609375 1123.859375 800.109375 C 1092.378906 804.601562 975.449219 996.859375 975.449219 996.859375 C 975.449219 996.859375 831.535156 1018.230469 788.808594 921.53125 Z M 788.808594 921.53125 "/>
<path fill-rule="nonzero" fill="rgb(26.660156%, 66.992188%, 100%)" fill-opacity="1" d="M 1256.539062 259.289062 C 1190.949219 318.320312 1146.75 388.039062 1117.121094 465.050781 C 1117.121094 465.050781 1532.25 821.378906 1659.058594 752.878906 L 1771.488281 827.089844 L 1823.210938 734.890625 L 1714.148438 667.429688 C 1714.148438 667.429688 1739.078125 606.890625 1584.851562 492.03125 C 1432.621094 378.671875 1253.851562 253.910156 1256.539062 259.289062 Z M 1256.539062 259.289062 "/>
<path fill-rule="nonzero" fill="rgb(100%, 85.9375%, 75.78125%)" fill-opacity="1" d="M 1216.058594 664.058594 L 1286.890625 697.789062 L 1312.75 656.191406 L 1362.789062 653.941406 L 1381.898438 633.699219 L 1373.46875 612.339844 L 1317.25 587.601562 L 1288.578125 585.359375 Z M 1216.058594 664.058594 "/>
<path fill-rule="nonzero" fill="rgb(45.872498%, 75.78125%, 100%)" fill-opacity="1" d="M 1847.191406 1511.949219 C 1847.191406 1511.949219 1580.070312 1454.710938 1541.910156 1473.789062 C 1503.738281 1492.871094 1449.679688 1511.949219 1449.679688 1511.949219 C 1449.679688 1511.949219 1344.730469 1451.53125 1274.769531 1464.25 C 1204.808594 1476.96875 1144.390625 1502.410156 1144.390625 1502.410156 C 1144.390625 1502.410156 1166.648438 1448.351562 1096.679688 1445.171875 C 1026.71875 1441.988281 934.5 1454.710938 909.058594 1400.648438 C 883.617188 1346.589844 880.4375 1346.589844 880.4375 1346.589844 C 880.4375 1346.589844 909.058594 1346.589844 918.597656 1314.789062 C 928.136719 1282.980469 893.15625 1197.121094 893.15625 1197.121094 L 994.921875 999.949219 C 994.921875 999.949219 893.15625 837.761719 740.511719 875.929688 L 641.925781 1101.710938 C 641.925781 1101.710938 584.683594 1092.179688 552.882812 1136.691406 C 521.082031 1181.21875 400.234375 1492.871094 406.597656 1543.75 C 412.957031 1594.640625 835.914062 1985.792969 899.515625 2033.496094 C 963.121094 2081.195312 1207.988281 2217.941406 1207.988281 2217.941406 C 1207.988281 2217.941406 1195.269531 2535.957031 1198.449219 2625 L 2823.5 2625 C 2823.5 2625 2670.851562 2128.898438 2626.328125 1998.511719 C 2581.808594 1868.128906 2437.109375 1690.039062 2395.769531 1650.289062 C 2395.769531 1650.289062 2356.019531 1669.367188 2238.359375 1648.699219 C 2238.359375 1648.699219 2303.550781 1632.796875 2303.550781 1589.871094 C 2303.550781 1589.871094 2176.339844 1624.851562 2085.710938 1608.941406 C 2085.710938 1608.941406 2152.488281 1573.960938 2165.210938 1559.648438 C 2165.210938 1559.648438 2127.71875 1585.679688 2012.558594 1581.910156 C 1897.410156 1578.148438 1847.191406 1511.949219 1847.191406 1511.949219 Z M 1847.191406 1511.949219 "/>
<path fill-rule="nonzero" fill="rgb(19.993591%, 19.993591%, 19.993591%)" fill-opacity="1" d="M 2115.539062 599.96875 C 2115.539062 599.96875 2232.46875 467.300781 2324.671875 467.300781 C 2416.859375 467.300781 2686.710938 678.679688 2749.671875 793.359375 C 2812.628906 908.039062 2830.628906 1596.140625 2655.230469 1740.058594 C 2655.230469 1740.058594 2745.171875 1659.105469 2695.699219 1472.460938 C 2695.699219 1472.460938 2718.191406 1713.074219 2578.769531 1764.792969 C 2578.769531 1764.792969 2603.5 1681.59375 2581.019531 1605.140625 C 2581.019531 1605.140625 2536.039062 1719.820312 2403.371094 1715.324219 C 2270.699219 1710.824219 1897.410156 1578.148438 1897.410156 1578.148438 L 1940.140625 1391.511719 L 1962.628906 858.570312 Z M 2115.539062 599.96875 "/>
<path fill-rule="nonzero" fill="rgb(31.762695%, 66.601562%, 94.53125%)" fill-opacity="1" d="M 1814.46875 1519.628906 C 1814.46875 1519.628906 1769.519531 1527.949219 1719.789062 1537.898438 C 1670.058594 1547.851562 1616.011719 1559.230469 1595.921875 1565.929688 C 1554.550781 1579.71875 1546.371094 1627.121094 1546.371094 1627.121094 C 1545.859375 1629.929688 1547.730469 1632.613281 1550.539062 1633.101562 C 1553.339844 1633.589844 1556 1631.71875 1556.480469 1628.925781 C 1556.480469 1628.925781 1564.21875 1587.289062 1599.171875 1575.640625 C 1617.230469 1569.621094 1672.148438 1557.910156 1721.800781 1547.980469 C 1771.441406 1538.050781 1816.320312 1529.710938 1816.320312 1529.710938 C 1819.109375 1529.199219 1820.96875 1526.519531 1820.449219 1523.730469 C 1819.929688 1520.941406 1817.25 1519.121094 1814.46875 1519.628906 Z M 1814.46875 1519.628906 "/>
<path fill-rule="nonzero" fill="rgb(100%, 85.9375%, 75.78125%)" fill-opacity="1" d="M 2305.140625 530.878906 C 2305.140625 530.878906 2244.71875 530.878906 2203.371094 542.011719 C 2162.03125 553.140625 2022.109375 626.28125 2022.109375 626.28125 C 2022.109375 626.28125 1886.949219 624.691406 1864.691406 624.691406 C 1842.429688 624.691406 1855.941406 712.941406 1855.941406 712.941406 C 1855.941406 712.941406 1829.308594 724.871094 1823.738281 721.691406 C 1818.179688 718.511719 1814.601562 712.550781 1807.050781 712.550781 C 1799.5 712.550781 1790.351562 718.109375 1790.351562 718.109375 C 1790.351562 718.109375 1799.101562 762.230469 1793.929688 775.359375 C 1788.761719 788.46875 1790.75 791.648438 1777.628906 794.828125 C 1764.519531 798.011719 1733.511719 798.808594 1733.511719 798.808594 C 1733.511719 798.808594 1723.171875 813.910156 1730.328125 823.449219 C 1737.480469 832.988281 1712.839844 859.230469 1712.839844 859.230469 C 1712.839844 859.230469 1642.078125 890.238281 1645.261719 933.171875 C 1648.441406 976.101562 1818.570312 1061.960938 1828.121094 1079.449219 C 1837.660156 1096.941406 1839.25 1143.058594 1839.25 1143.058594 L 1762.921875 1602.589844 C 1762.921875 1602.589844 1925.109375 1602.589844 1972.808594 1593.050781 C 2020.519531 1583.511719 2090.480469 1538.980469 2090.480469 1538.980469 C 2090.480469 1538.980469 2045.960938 1561.25 1960.089844 1543.75 C 1960.089844 1543.75 2238.359375 1298.878906 2257.429688 1082.640625 C 2257.429688 1082.640625 2308.320312 1041.289062 2308.320312 1015.851562 C 2308.320312 990.410156 2286.058594 925.21875 2238.359375 928.398438 C 2190.648438 931.578125 2127.050781 920.449219 2127.050781 920.449219 C 2127.050781 920.449219 2117.109375 906.929688 2120.691406 881.488281 C 2120.691406 881.488281 2142.949219 903.359375 2158.058594 910.109375 C 2158.058594 910.109375 2146.929688 880.691406 2147.71875 852.871094 C 2147.71875 852.871094 2178.730469 895.800781 2209.730469 902.160156 C 2209.730469 902.160156 2184.289062 846.511719 2198.601562 809.941406 C 2198.601562 809.941406 2218.480469 851.28125 2244.71875 865.589844 C 2244.71875 865.589844 2255.839844 651.730469 2305.140625 530.878906 Z M 2305.140625 530.878906 "/>
<path fill-rule="nonzero" fill="rgb(19.993591%, 19.993591%, 19.993591%)" fill-opacity="1" d="M 1995.070312 617.539062 L 2022.109375 626.28125 C 2022.109375 626.28125 2054.699219 666.828125 2090.480469 681.140625 C 2090.480469 681.140625 2019.71875 678.761719 2018.128906 642.179688 Z M 1995.070312 617.539062 "/>
<path fill-rule="nonzero" fill="rgb(19.993591%, 19.993591%, 19.993591%)" fill-opacity="1" d="M 2115.539062 599.96875 C 2115.539062 599.96875 2107.96875 578.578125 2135 570.628906 C 2162.03125 562.679688 2154.878906 670.011719 2154.878906 670.011719 C 2154.878906 670.011719 2139.011719 610.230469 2115.539062 599.96875 Z M 2115.539062 599.96875 "/>
<path fill="none" stroke-width="54.3942" stroke-linecap="butt" stroke-linejoin="miter" stroke="rgb(0%, 0%, 0%)" stroke-opacity="1" stroke-miterlimit="4" d="M 18650.898438 19625.390625 C 18650.898438 19625.390625 18774.101562 19384.882812 18756.210938 19319.296875 C 18738.28125 19253.789062 18714.414062 19281.601562 18696.601562 19353.085938 C 18678.710938 19424.6875 18700.585938 19545.898438 18650.898438 19625.390625 Z M 18650.898438 19625.390625 " transform="matrix(0.1, 0, 0, -0.1, 0, 2625)"/>
<path fill-rule="nonzero" fill="rgb(100%, 33.325195%, 33.325195%)" fill-opacity="1" d="M 1807.039062 712.550781 C 1799.488281 712.550781 1790.359375 718.109375 1790.359375 718.109375 C 1790.359375 718.109375 1799.101562 762.238281 1793.929688 775.359375 C 1791.671875 781.109375 1790.75 784.878906 1789.359375 787.648438 C 1791.960938 783.96875 1793.410156 781.550781 1793.410156 781.550781 C 1793.410156 781.550781 1809.578125 718.5 1808.671875 712.710938 C 1808.140625 712.640625 1807.621094 712.539062 1807.039062 712.539062 Z M 1787.019531 790.871094 C 1785.171875 792.5 1782.410156 793.671875 1777.628906 794.828125 C 1764.511719 798.011719 1733.511719 798.800781 1733.511719 798.800781 C 1733.511719 798.800781 1724.761719 811.621094 1728.980469 821.101562 C 1729.820312 821.429688 1730.679688 821.738281 1731.570312 822.019531 C 1754.320312 829.339844 1776.46875 804.960938 1787.019531 790.871094 Z M 1787.019531 790.871094 "/>
<path fill-rule="nonzero" fill="rgb(100%, 65.039062%, 51.756287%)" fill-opacity="1" d="M 2198.21875 962.5 C 2186.699219 963.660156 2179.308594 965.25 2173.960938 967.960938 C 2168.609375 970.679688 2165.550781 975.53125 2164.96875 980.050781 C 2163.820312 989.089844 2167.421875 996.140625 2163.558594 1006.269531 C 2161.800781 1010.898438 2159.511719 1012.558594 2156.300781 1013.5 C 2153.078125 1014.429688 2148.691406 1014.171875 2144.289062 1013.101562 C 2135.480469 1010.960938 2127.21875 1005.988281 2127.21875 1005.988281 C 2124.808594 1004.5 2121.640625 1005.261719 2120.160156 1007.679688 C 2118.671875 1010.089844 2119.429688 1013.261719 2121.839844 1014.738281 C 2121.839844 1014.738281 2131.011719 1020.460938 2141.878906 1023.089844 C 2147.320312 1024.410156 2153.339844 1025.039062 2159.191406 1023.339844 C 2165.039062 1021.640625 2170.46875 1017.101562 2173.199219 1009.929688 C 2178.339844 996.441406 2174.628906 985.511719 2175.171875 981.339844 C 2175.429688 979.25 2175.46875 978.71875 2178.621094 977.121094 C 2181.78125 975.519531 2188.289062 973.839844 2199.261719 972.738281 C 2219.890625 970.679688 2238.089844 980.390625 2246.761719 993.140625 C 2251.089844 999.519531 2253.039062 1006.511719 2252.140625 1013.300781 C 2251.238281 1020.089844 2247.558594 1026.929688 2239.410156 1033.289062 C 2237.171875 1035.039062 2236.769531 1038.289062 2238.53125 1040.519531 C 2240.28125 1042.769531 2243.519531 1043.160156 2245.761719 1041.410156 C 2255.609375 1033.710938 2261.058594 1024.25 2262.339844 1014.621094 C 2263.621094 1005 2260.78125 995.460938 2255.269531 987.359375 C 2244.261719 971.160156 2222.558594 960.070312 2198.21875 962.5 Z M 2198.21875 962.5 "/>
<path fill-rule="nonzero" fill="rgb(100%, 65.039062%, 51.756287%)" fill-opacity="1" d="M 1645.421875 926.191406 C 1645.171875 928.480469 1645.078125 930.808594 1645.261719 933.171875 C 1648.441406 976.109375 1818.578125 1061.960938 1828.121094 1079.449219 C 1837.660156 1096.941406 1839.25 1143.058594 1839.25 1143.058594 L 1836.28125 1160.960938 C 1892 1180.160156 1969.128906 1178.609375 2025.589844 1180.140625 C 2071.800781 1181.378906 2115.199219 1264.429688 2144.691406 1338.070312 C 2200.789062 1259.96875 2249.820312 1169.039062 2257.441406 1082.628906 C 2257.441406 1082.628906 2279.871094 1064.371094 2294.941406 1044.660156 C 2219.46875 1122.570312 2146.449219 1102.898438 2073.949219 1062.070312 C 2073.949219 1062.070312 1980.621094 1069.941406 1913.160156 1069.941406 C 1861.929688 1069.941406 1713.898438 972.980469 1645.429688 926.191406 Z M 1645.421875 926.191406 "/>
<path fill-rule="nonzero" fill="rgb(31.762695%, 66.601562%, 94.53125%)" fill-opacity="1" d="M 682.671875 1117.410156 C 680.332031 1115.808594 677.132812 1116.398438 675.523438 1118.738281 C 673.917969 1121.078125 674.511719 1124.28125 676.851562 1125.890625 C 676.851562 1125.890625 713.25 1150.878906 758.402344 1172.910156 C 803.550781 1194.929688 857.304688 1214.929688 894.84375 1201.980469 C 897.527344 1201.050781 898.949219 1198.121094 898.015625 1195.429688 C 897.085938 1192.75 894.152344 1191.328125 891.46875 1192.261719 C 860.203125 1203.039062 807.253906 1185.308594 762.898438 1163.671875 C 718.542969 1142.039062 682.671875 1117.410156 682.671875 1117.410156 Z M 682.671875 1117.410156 "/>
<path fill-rule="nonzero" fill="rgb(31.762695%, 66.601562%, 94.53125%)" fill-opacity="1" d="M 880.304688 1341.429688 C 880.304688 1341.429688 781.996094 1343.640625 656.128906 1343.640625 C 623.976562 1343.640625 602.460938 1349.910156 588.390625 1360.058594 C 574.320312 1370.210938 568.234375 1384.25 566.707031 1397.679688 C 563.65625 1424.558594 577.390625 1450.121094 577.390625 1450.121094 C 578.707031 1452.621094 581.789062 1453.589844 584.296875 1452.289062 C 586.816406 1450.980469 587.789062 1447.859375 586.464844 1445.351562 C 586.464844 1445.351562 574.339844 1421.441406 576.90625 1398.851562 C 578.191406 1387.550781 582.765625 1376.820312 594.414062 1368.410156 C 606.0625 1360.011719 625.320312 1353.921875 656.128906 1353.921875 C 775.195312 1353.921875 858.203125 1352.050781 868.21875 1351.828125 C 859.929688 1360.03125 800.960938 1418.191406 742.300781 1482.25 C 710.964844 1516.460938 681.933594 1549.960938 665.125 1574.121094 C 656.71875 1586.199219 651.191406 1595.410156 650.148438 1603.46875 C 649.886719 1605.480469 649.910156 1607.570312 650.707031 1609.648438 C 651.507812 1611.730469 653.257812 1613.640625 655.285156 1614.628906 C 659.34375 1616.609375 663.570312 1616 668.738281 1614.589844 C 707.566406 1604 749.066406 1571.371094 784.378906 1533 C 819.691406 1494.628906 848.632812 1450.519531 861.113281 1415.710938 C 862.054688 1413.050781 860.671875 1410.128906 858.019531 1409.171875 C 855.347656 1408.199219 852.398438 1409.589844 851.433594 1412.261719 C 839.746094 1444.871094 811.328125 1488.480469 776.789062 1526.019531 C 742.25 1563.550781 701.382812 1595.03125 666.007812 1604.679688 C 662.246094 1605.699219 660.5625 1605.328125 660.304688 1605.320312 C 660.296875 1605.121094 660.242188 1605.191406 660.304688 1604.789062 C 660.765625 1601.238281 665.503906 1591.648438 673.597656 1580.019531 C 689.777344 1556.761719 718.679688 1523.230469 749.886719 1489.148438 C 812.300781 1421 884.039062 1350.261719 884.039062 1350.261719 C 887.417969 1347 885.003906 1341.28125 880.304688 1341.429688 Z M 880.304688 1341.429688 "/>
<path fill-rule="nonzero" fill="rgb(31.762695%, 66.601562%, 94.53125%)" fill-opacity="1" d="M 898.09375 1449.519531 C 895.367188 1448.78125 892.550781 1450.371094 891.789062 1453.101562 L 790.722656 1821.542969 L 790.601562 1821.824219 L 790.601562 1821.902344 C 789.09375 1828.28125 798.402344 1830.929688 800.476562 1824.714844 L 800.519531 1824.632812 L 800.5625 1824.472656 C 800.621094 1824.238281 822.417969 1749.4375 854.003906 1672.292969 C 869.820312 1633.660156 888.105469 1594.511719 907.128906 1564.160156 C 926.148438 1533.808594 946.261719 1512.800781 963.101562 1508.949219 C 965.859375 1508.308594 967.582031 1505.570312 966.957031 1502.808594 C 966.316406 1500.050781 963.570312 1498.328125 960.8125 1498.949219 C 938.300781 1504.101562 917.972656 1527.488281 898.414062 1558.699219 C 878.855469 1589.910156 860.433594 1629.453125 844.488281 1668.398438 C 841.507812 1675.679688 842.226562 1675.550781 839.429688 1682.734375 L 901.707031 1455.828125 C 902.449219 1453.089844 900.832031 1450.269531 898.09375 1449.519531 Z M 898.09375 1449.519531 "/>
<path fill-rule="nonzero" fill="rgb(31.762695%, 66.601562%, 94.53125%)" fill-opacity="1" d="M 974.183594 1645.109375 C 971.417969 1645.800781 969.742188 1648.609375 970.449219 1651.371094 C 970.449219 1651.371094 992.410156 1738.488281 1015.738281 1829.855469 C 1027.410156 1875.535156 1039.421875 1922.3125 1049.230469 1959.75 C 1059.039062 1997.1875 1066.488281 2024.984375 1069.511719 2034.035156 C 1070.421875 2036.714844 1073.328125 2038.148438 1076.011719 2037.246094 C 1078.691406 2036.347656 1080.140625 2033.464844 1079.269531 2030.78125 C 1076.660156 2022.964844 1068.941406 1994.539062 1059.148438 1957.140625 C 1049.351562 1919.738281 1037.359375 1872.996094 1025.699219 1827.324219 C 1002.378906 1735.984375 980.449219 1648.84375 980.449219 1648.84375 C 979.757812 1646.078125 976.945312 1644.402344 974.183594 1645.109375 Z M 974.183594 1645.109375 "/>
<path fill-rule="nonzero" fill="rgb(31.762695%, 66.601562%, 94.53125%)" fill-opacity="1" d="M 1151.261719 1563.238281 C 1148.609375 1564.25 1147.28125 1567.210938 1148.289062 1569.859375 C 1148.289062 1569.859375 1167.929688 1621.199219 1187.558594 1680.242188 C 1197.378906 1709.765625 1207.210938 1741.207031 1214.539062 1769.023438 C 1221.878906 1796.839844 1226.671875 1821.265625 1226.671875 1835.636719 C 1226.671875 1838.476562 1228.96875 1840.777344 1231.808594 1840.777344 C 1234.640625 1840.777344 1236.941406 1838.476562 1236.941406 1835.636719 C 1236.941406 1819.085938 1231.878906 1794.566406 1224.460938 1766.410156 C 1217.039062 1738.257812 1207.179688 1706.679688 1197.320312 1677.03125 C 1177.601562 1617.730469 1157.890625 1566.210938 1157.890625 1566.210938 C 1156.878906 1563.558594 1153.910156 1562.230469 1151.261719 1563.238281 Z M 1151.261719 1563.238281 "/>
<path fill-rule="nonzero" fill="rgb(31.762695%, 66.601562%, 94.53125%)" fill-opacity="1" d="M 1334.121094 1498.949219 C 1331.359375 1498.320312 1328.609375 1500.050781 1327.96875 1502.808594 C 1327.96875 1502.808594 1215.648438 1993.753906 1202.859375 2217.652344 C 1202.691406 2220.496094 1204.878906 2222.921875 1207.710938 2223.074219 C 1210.558594 2223.234375 1212.980469 2221.058594 1213.140625 2218.214844 C 1225.78125 1996.898438 1338.011719 1505.089844 1338.011719 1505.089844 C 1338.640625 1502.320312 1336.890625 1499.570312 1334.121094 1498.949219 Z M 1334.121094 1498.949219 "/>
<path fill-rule="nonzero" fill="rgb(31.762695%, 66.601562%, 94.53125%)" fill-opacity="1" d="M 1511.710938 1535.691406 C 1509.019531 1534.789062 1506.109375 1536.25 1505.210938 1538.941406 C 1505.210938 1538.941406 1457.5 1682.058594 1407.800781 1837.925781 C 1382.949219 1915.859375 1357.628906 1996.996094 1337.488281 2065.03125 C 1317.351562 2133.066406 1302.410156 2187.695312 1298.300781 2213.960938 C 1282.25 2316.691406 1282.359375 2507.320312 1282.359375 2507.320312 C 1282.359375 2510.15625 1284.660156 2512.460938 1287.5 2512.460938 C 1290.339844 2512.460938 1292.640625 2510.15625 1292.640625 2507.320312 C 1292.640625 2507.320312 1292.699219 2316.363281 1308.460938 2215.566406 C 1312.308594 2190.949219 1327.21875 2135.878906 1347.328125 2067.960938 C 1367.429688 2000.046875 1392.761719 1918.949219 1417.601562 1841.058594 C 1467.269531 1685.269531 1514.96875 1542.191406 1514.96875 1542.191406 C 1515.871094 1539.5 1514.410156 1536.589844 1511.710938 1535.691406 Z M 1511.710938 1535.691406 "/>
<path fill-rule="nonzero" fill="rgb(31.762695%, 66.601562%, 94.53125%)" fill-opacity="1" d="M 2102.289062 1917.105469 C 2099.46875 1916.726562 2096.878906 1918.707031 2096.511719 1921.523438 C 2096.511719 1921.523438 2086.949219 1993.226562 2081.769531 2076.515625 C 2076.589844 2159.804688 2075.28125 2254.117188 2093.621094 2302.457031 C 2094.628906 2305.105469 2097.589844 2306.433594 2100.238281 2305.429688 C 2102.910156 2304.433594 2104.25 2301.464844 2103.25 2298.804688 C 2086.609375 2254.917969 2086.859375 2160.03125 2092.011719 2077.15625 C 2097.160156 1994.285156 2106.710938 1922.890625 2106.710938 1922.890625 C 2107.089844 1920.070312 2105.109375 1917.480469 2102.289062 1917.105469 Z M 2102.289062 1917.105469 "/>
<path fill-rule="nonzero" fill="rgb(31.762695%, 66.601562%, 94.53125%)" fill-opacity="1" d="M 2524.898438 2077.117188 C 2496.679688 2076.894531 2469.550781 2082.050781 2443.871094 2091.089844 C 2392.519531 2109.171875 2346.871094 2142.519531 2308.761719 2178.824219 C 2232.539062 2251.4375 2186.128906 2336.308594 2186.128906 2336.308594 C 2184.761719 2338.800781 2185.679688 2341.933594 2188.179688 2343.292969 C 2190.671875 2344.664062 2193.808594 2343.746094 2195.160156 2341.246094 C 2195.160156 2341.246094 2240.988281 2257.582031 2315.820312 2186.292969 C 2353.238281 2150.648438 2397.871094 2118.207031 2447.289062 2100.808594 C 2496.699219 2083.410156 2550.808594 2080.875 2608.460938 2105.023438 C 2611.078125 2106.105469 2614.070312 2104.867188 2615.171875 2102.253906 C 2616.25 2099.636719 2615.011719 2096.636719 2612.390625 2095.546875 C 2582.390625 2082.976562 2553.121094 2077.34375 2524.898438 2077.117188 Z M 2524.898438 2077.117188 "/>
<path fill-rule="nonzero" fill="rgb(31.762695%, 66.601562%, 94.53125%)" fill-opacity="1" d="M 2506.710938 2200.46875 C 2504.089844 2201.542969 2502.820312 2204.546875 2503.898438 2207.175781 L 2650.179688 2563.332031 C 2651.25 2565.960938 2654.261719 2567.21875 2656.890625 2566.144531 C 2659.519531 2565.070312 2660.769531 2562.066406 2659.699219 2559.4375 L 2513.421875 2203.277344 C 2512.339844 2200.652344 2509.339844 2199.390625 2506.710938 2200.46875 Z M 2506.710938 2200.46875 "/>
<path fill-rule="nonzero" fill="rgb(31.762695%, 66.601562%, 94.53125%)" fill-opacity="1" d="M 2168.699219 2392.84375 C 2166.070312 2391.796875 2163.101562 2393.070312 2162.039062 2395.695312 C 2162.039062 2395.695312 2148.820312 2429.085938 2156.941406 2482.664062 C 2165.171875 2536.976562 2205.28125 2606.859375 2205.28125 2606.859375 C 2206.679688 2609.3125 2209.808594 2610.175781 2212.269531 2608.785156 C 2214.71875 2607.382812 2215.589844 2604.261719 2214.199219 2601.800781 C 2214.199219 2601.800781 2174.769531 2531.773438 2167.101562 2481.140625 C 2159.308594 2429.773438 2171.558594 2399.546875 2171.558594 2399.546875 C 2172.628906 2396.910156 2171.351562 2393.902344 2168.699219 2392.84375 Z M 2168.699219 2392.84375 "/>
<path fill-rule="nonzero" fill="rgb(100%, 65.039062%, 51.756287%)" fill-opacity="1" d="M 1298.621094 579.808594 C 1294.390625 579.808594 1290.710938 581.621094 1286.820312 584.101562 C 1282.921875 586.578125 1278.828125 589.890625 1274.570312 593.820312 C 1266.050781 601.679688 1256.851562 611.96875 1248.269531 622.210938 C 1231.121094 642.671875 1216.550781 663.039062 1216.550781 663.039062 C 1214.878906 665.351562 1215.398438 668.570312 1217.710938 670.230469 C 1220.03125 671.890625 1223.25 671.351562 1224.898438 669.019531 C 1224.898438 669.019531 1239.308594 648.871094 1256.140625 628.789062 C 1264.558594 618.75 1273.609375 608.75 1281.558594 601.410156 C 1285.53125 597.730469 1289.230469 594.730469 1292.320312 592.769531 C 1295.398438 590.808594 1297.878906 590.078125 1298.621094 590.078125 C 1302.488281 590.078125 1311.109375 591.539062 1320.710938 594.300781 C 1330.308594 597.050781 1341.140625 601.039062 1350.660156 605.820312 C 1360.179688 610.609375 1368.328125 616.308594 1372.5 621.640625 C 1374.589844 624.308594 1375.640625 626.769531 1375.878906 628.988281 C 1376.109375 631.21875 1375.710938 633.390625 1373.871094 636.140625 C 1369.730469 642.339844 1364.78125 645.519531 1359.011719 647.421875 C 1353.25 649.320312 1346.640625 649.75 1339.980469 649.75 C 1333.320312 649.75 1326.679688 649.320312 1320.539062 649.988281 C 1314.410156 650.660156 1308.050781 652.820312 1304.558594 658.621094 C 1295.019531 674.519531 1278.308594 702.351562 1278.308594 702.351562 C 1276.828125 704.789062 1277.628906 707.960938 1280.070312 709.421875 C 1282.511719 710.890625 1285.679688 710.101562 1287.140625 707.648438 C 1287.140625 707.648438 1303.820312 679.820312 1313.359375 663.929688 C 1314.640625 661.78125 1316.921875 660.75 1321.671875 660.230469 C 1326.421875 659.710938 1332.921875 660.019531 1339.980469 660.019531 C 1347.039062 660.019531 1354.71875 659.691406 1362.21875 657.210938 C 1369.71875 654.738281 1377.011719 649.941406 1382.421875 641.839844 C 1385.359375 637.429688 1386.609375 632.550781 1386.109375 627.898438 C 1385.621094 623.261719 1383.539062 619.070312 1380.609375 615.339844 C 1374.769531 607.859375 1365.539062 601.820312 1355.28125 596.660156 C 1345.019531 591.511719 1333.660156 587.328125 1323.519531 584.421875 C 1313.359375 581.5 1304.679688 579.800781 1298.621094 579.800781 Z M 1298.621094 579.808594 "/>
<path fill-rule="nonzero" fill="rgb(85.15625%, 93.359375%, 100%)" fill-opacity="1" d="M 1253.128906 309.371094 C 1251.800781 309.679688 1250.640625 310.5 1249.921875 311.660156 C 1248.398438 314.070312 1249.140625 317.269531 1251.558594 318.769531 C 1251.558594 318.769531 1343.691406 376.039062 1440.808594 444.25 C 1489.359375 478.351562 1539.140625 515.171875 1579.210938 548.839844 C 1619.289062 582.519531 1649.640625 613.609375 1658.878906 633.609375 C 1660.070312 636.179688 1663.128906 637.289062 1665.699219 636.101562 C 1668.269531 634.910156 1669.398438 631.890625 1668.230469 629.308594 C 1657.230469 605.460938 1626.300781 574.96875 1585.839844 540.980469 C 1545.378906 506.980469 1495.410156 470.019531 1446.710938 435.808594 C 1349.308594 367.410156 1256.980469 310.019531 1256.980469 310.019531 C 1255.828125 309.300781 1254.449219 309.070312 1253.128906 309.371094 Z M 1253.128906 309.371094 "/>
<path fill-rule="nonzero" fill="rgb(30.200195%, 30.200195%, 30.200195%)" fill-opacity="1" d="M 2377.339844 701.390625 C 2374.550781 700.898438 2371.890625 702.769531 2371.390625 705.558594 C 2371.390625 705.558594 2351.488281 819.371094 2341.921875 930.980469 C 2337.140625 986.789062 2334.910156 1042.019531 2339.148438 1082.640625 C 2341.269531 1102.949219 2344.890625 1119.578125 2351.238281 1131.308594 C 2354.410156 1137.171875 2358.351562 1141.921875 2363.410156 1144.839844 C 2368.46875 1147.761719 2374.578125 1148.558594 2380.789062 1147.128906 C 2392.898438 1144.339844 2402.121094 1135.359375 2408.980469 1123.238281 C 2415.839844 1111.121094 2420.71875 1095.621094 2424.480469 1078.070312 C 2432 1042.960938 2435.039062 999.589844 2438.410156 960.089844 C 2441.789062 920.589844 2445.761719 884.699219 2453.671875 866.460938 C 2455.648438 861.898438 2457.839844 858.5 2459.96875 856.421875 C 2462.109375 854.339844 2464 853.480469 2466.359375 853.371094 C 2471.070312 853.148438 2479.269531 857.089844 2490.371094 868.941406 C 2535.339844 917.019531 2564.769531 995.929688 2582.558594 1062.730469 C 2600.351562 1129.53125 2606.699219 1184.070312 2606.699219 1184.070312 C 2607.449219 1189.679688 2615.390625 1190.121094 2616.769531 1184.628906 L 2658.050781 1010.808594 C 2675.011719 1042.089844 2756.378906 1206.578125 2649.140625 1339.21875 C 2647.351562 1341.429688 2647.691406 1344.660156 2649.898438 1346.449219 C 2652.109375 1348.230469 2655.339844 1347.890625 2657.128906 1345.691406 C 2780.390625 1193.230469 2660.738281 993.179688 2660.738281 993.179688 C 2658.390625 989.179688 2652.359375 990.109375 2651.308594 994.621094 L 2612.230469 1159.339844 C 2610.101562 1143.5 2607.058594 1114.730469 2592.519531 1060.121094 C 2574.53125 992.558594 2545.128906 912.429688 2497.878906 861.921875 C 2485.921875 849.140625 2475.839844 842.660156 2465.878906 843.128906 C 2460.890625 843.359375 2456.359375 845.601562 2452.828125 849.03125 C 2449.289062 852.460938 2446.558594 857.011719 2444.230469 862.359375 C 2434.949219 883.769531 2431.558594 919.609375 2428.171875 959.210938 C 2424.789062 998.820312 2421.679688 1041.941406 2414.398438 1075.898438 C 2410.761719 1092.878906 2406.039062 1107.558594 2400.03125 1118.179688 C 2394.011719 1128.808594 2387.019531 1135.109375 2378.46875 1137.089844 C 2374.339844 1138.039062 2371.410156 1137.570312 2368.550781 1135.929688 C 2365.691406 1134.28125 2362.839844 1131.191406 2360.269531 1126.449219 C 2355.140625 1116.960938 2351.398438 1101.199219 2349.351562 1081.558594 C 2345.25 1042.28125 2347.410156 987.371094 2352.160156 931.871094 C 2361.679688 820.871094 2381.519531 707.328125 2381.519531 707.328125 C 2382 704.53125 2380.128906 701.878906 2377.339844 701.390625 Z M 2377.339844 701.390625 "/>
</svg>
