<svg xmlns="http://www.w3.org/2000/svg" viewBox="0 0 500 500"><g id="freepik--background-complete--inject-1"><path d="M464.3,70.11c1,7.06-4.29,12-15.26,13.52l-22.06,3-5.64-40.85,20.9-2.88c10.74-1.48,16.59,2.17,17.46,8.47A9.74,9.74,0,0,1,455.44,61C460.27,62,463.62,65.15,464.3,70.11ZM433.93,52.59,435,60.47l7.94-1.1c3.85-.53,5.65-2.15,5.29-4.77s-2.53-3.64-6.38-3.11Zm18.52,17.84c-.38-2.8-2.67-3.85-6.64-3.3l-9.69,1.33,1.15,8.29L447,75.41C450.92,74.87,452.84,73.23,452.45,70.43Z" style="fill:#e0e0e0"></path><rect x="38.05" y="305.55" width="44.39" height="7.03" style="fill:#ebebeb"></rect><rect x="38.05" y="331.15" width="44.39" height="7.03" style="fill:#ebebeb"></rect><rect x="38.05" y="318.8" width="22.19" height="7.03" style="fill:#ebebeb"></rect><polygon points="199.95 365.15 165.88 365.15 165.88 337.17 183.53 337.17 183.53 343.07 171.79 343.07 171.79 359.25 194.05 359.25 194.05 353.37 199.95 353.37 199.95 365.15" style="fill:#ebebeb"></polygon><polygon points="219.6 365.15 205.08 365.15 205.08 359.25 213.7 359.25 213.7 343.07 191.43 343.07 191.43 350.61 185.53 350.61 185.53 337.17 219.6 337.17 219.6 365.15" style="fill:#ebebeb"></polygon><path d="M468.87,128h5.89l-8.25,41.24h-5.89Z" style="fill:#ebebeb"></path><polygon points="25.01 79.46 116.91 79.46 116.91 212.7 25.64 212.7 25.01 79.46" style="fill:#e0e0e0"></polygon><rect x="18.12" y="80.09" width="91.06" height="131.99" transform="translate(127.29 292.16) rotate(180)" style="fill:#fff"></rect><path d="M109.8,79.46V212.7H17.49V79.46Zm-1.25,132V80.71H18.74V211.45Z" style="fill:#e0e0e0"></path><rect x="29.43" y="94.38" width="68.43" height="103.4" style="fill:#fff"></rect><path d="M29.43,94.38s0,.18,0,.51,0,.84,0,1.47c0,1.31,0,3.22,0,5.68,0,5,.05,12.19.08,21.31,0,18.23.09,44,.15,74.43l-.3-.3,68.42,0h0l-.32.33c0-39,0-75,.06-103.4l.26.26-49.79-.13L34.3,94.44l-3.61,0-1.26,0s.4,0,1.2,0l3.57,0,13.71-.07,50-.14h.26v.26c0,28.44,0,64.4.07,103.4v.33h-.34l-68.42,0h-.3v-.3c.06-30.47.11-56.35.15-74.63,0-9.09.06-16.29.08-21.24,0-2.44,0-4.32,0-5.62,0-.61,0-1.09,0-1.43S29.43,94.38,29.43,94.38Z" style="fill:#e0e0e0"></path><path d="M17.86,212.07a12,12,0,0,1,1.47-2.27c1-1.35,2.36-3.18,4-5.17s3.09-3.73,4.22-5a10.32,10.32,0,0,1,1.93-1.89c.14.12-2.48,3.3-5.64,7.26S18,212.19,17.86,212.07Z" style="fill:#e0e0e0"></path><path d="M18.12,80.09c.14-.11,2.79,3,5.91,6.94s5.54,7.24,5.4,7.35-2.79-3-5.91-6.94S18,80.2,18.12,80.09Z" style="fill:#e0e0e0"></path><path d="M109.19,80.19,97.26,94.91" style="fill:#fff"></path><path d="M97.26,94.91c-.14-.11,2.42-3.5,5.71-7.56s6.08-7.27,6.22-7.16-2.42,3.5-5.71,7.57S97.4,95,97.26,94.91Z" style="fill:#e0e0e0"></path><path d="M109.18,212.07c-.15.12-2.77-3-5.85-6.87S97.84,198,98,197.93s2.76,3,5.85,6.87S109.32,212,109.18,212.07Z" style="fill:#e0e0e0"></path><path d="M68.06,147.59H56l-1.44,3.32a7.33,7.33,0,0,0-.7,2.74A2.26,2.26,0,0,0,55,155.76a9.55,9.55,0,0,0,3.34.6v.93H47v-.93a5.07,5.07,0,0,0,3-1.52A19.94,19.94,0,0,0,53,149.7l12.2-27.2h.48l12.29,28a17.19,17.19,0,0,0,2.89,5,3.91,3.91,0,0,0,2.41.9v.93H66.75v-.93h.68a5.17,5.17,0,0,0,2.79-.55,1.34,1.34,0,0,0,.55-1.16,3.11,3.11,0,0,0-.15-.93c0-.15-.28-.78-.75-1.88Zm-.86-1.86L62.13,134,56.9,145.73Z" style="fill:#e0e0e0"></path><path d="M215.41,469.38c-1.62-1.39-5.24-5.8-2.45-10.93,1-1.88,3.2-2.81,5.16-3.64a20.92,20.92,0,0,0,5.67-2.94c3.07-2.61,3.92-6.95,6-10.44,2.34-4,6.7-7,11.32-6.78,5.28.24,9.69,4.55,11.69,9.47s2.06,10.39,2.11,15.7c0,2.94-.11,6.25-2.27,8.24-2,1.83-5,1.85-7.68,1.77L216,468.94" style="fill:#f5f5f5"></path><path d="M270.64,390H194.7l13.68,81.57a9.12,9.12,0,0,0,6.48,7.26l.27.08c.23.05.44.13.68.17a9.68,9.68,0,0,0,1.54.18v.08l.37-.06h33.85a9.46,9.46,0,0,0,1.86-.19,9.15,9.15,0,0,0,7.69-8l6.59-56.21.3-2.23h0l2.61-22.26Zm-14.32,52h-7.8l.79-23.67h9Zm2.78-23.67h7.46L263.78,442h-6.71Zm-22.27,49.91-.47-20.56h11.22l-.68,20.56ZM224.7,447.68h10.9l.48,20.56H226.3Zm.84,20.56H216.4c-.87-5.55-2-12.76-3.23-20.56h10.77ZM224.26,442l-1.84-23.67h12.51l.54,23.67Zm12,0-.55-23.67h12.88L247.77,442Zm-.68-29.35L235,390.72h14.43l-.73,21.93Zm-.75,0H222l-1.7-21.93h14Zm-13.58,0H207.65c-.48-3-.93-5.9-1.34-8.47-1.42-8.87-1.95-12.2-2.25-13.46h15.45Zm.44,5.68L223.5,442H212.28c-.38-2.4-.76-4.83-1.14-7.26-.88-5.59-1.76-11.18-2.59-16.41ZM211.52,442h-7.33l-4-23.67h7.57C209,425.64,210.23,433.79,211.52,442Zm.89,5.68c1.12,7.11,2.22,14.13,3.22,20.56h-7l-3.45-20.56Zm35.24,20.56.68-20.56h7.5l-1.75,20.56Zm1.85-55.59.73-21.93H260.7l-1.87,21.93Zm-46.15-21.93c.3,1.59,1.68,10.22,3.54,21.93h-7.62l-3.68-21.93Zm57.35,77.52h-5.87l1.76-20.56h6.52Zm6.52-55.59h-7.64l1.87-21.93h8.35Z" style="fill:#e0e0e0"></path></g><g id="freepik--Floor--inject-1"><path d="M476.65,481.65c0,.15-102.38.26-228.64.26s-228.66-.11-228.66-.26,102.35-.26,228.66-.26S476.65,481.51,476.65,481.65Z" style="fill:#263238"></path></g><g id="freepik--Screen--inject-1"><rect x="71.89" y="38.17" width="328.61" height="253.45" style="fill:#fff"></rect><rect x="91.2" y="198.5" width="282.28" height="8.5" style="fill:#ebebeb"></rect><rect x="91.06" y="187.23" width="282.28" height="8.5" style="fill:#ebebeb"></rect><rect x="91.06" y="175.81" width="282.28" height="8.5" style="fill:#ebebeb"></rect><rect x="91.06" y="164.39" width="282.28" height="8.5" style="fill:#ebebeb"></rect><rect x="91.2" y="210.17" width="282.28" height="8.5" style="fill:#ebebeb"></rect><rect x="91.2" y="221.18" width="282.28" height="8.5" style="fill:#ebebeb"></rect><rect x="91.2" y="232.64" width="282.28" height="8.5" style="fill:#ebebeb"></rect><rect x="91.2" y="243.53" width="282.28" height="8.5" style="fill:#ebebeb"></rect><rect x="91.2" y="254" width="282.28" height="8.5" style="fill:#ebebeb"></rect><rect x="91.2" y="265.9" width="282.28" height="8.5" style="fill:#ebebeb"></rect><rect x="71.89" y="37.92" width="328.94" height="18.86" style="fill:#598CFF"></rect><path d="M94.88,76.3h-2v-.74h4.91v.74h-2v5.2h-.84Z" style="fill:#263238"></path><path d="M97.68,79.25a2.34,2.34,0,1,1,2.34,2.3A2.24,2.24,0,0,1,97.68,79.25Zm3.85,0A1.52,1.52,0,1,0,100,80.83,1.48,1.48,0,0,0,101.53,79.25Z" style="fill:#263238"></path><path d="M105.37,77.54a.57.57,0,0,1,.57-.58.58.58,0,0,1,0,1.16A.57.57,0,0,1,105.37,77.54Zm0,3.42a.57.57,0,0,1,.57-.58.56.56,0,0,1,.56.58.57.57,0,0,1-.56.59A.57.57,0,0,1,105.37,81Z" style="fill:#263238"></path><path d="M91.2,111.11l.31-.65a3.07,3.07,0,0,0,1.94.68c1,0,1.45-.4,1.45-.91,0-1.43-3.55-.53-3.55-2.71,0-.9.7-1.68,2.24-1.68a3.51,3.51,0,0,1,1.89.52l-.28.68a3,3,0,0,0-1.61-.48c-1,0-1.42.42-1.42.93,0,1.43,3.55.54,3.55,2.69,0,.9-.72,1.67-2.27,1.67A3.47,3.47,0,0,1,91.2,111.11Z" style="fill:#263238"></path><path d="M101,107.34v4.44h-.76v-.67a1.81,1.81,0,0,1-1.51.72,1.75,1.75,0,0,1-1.92-1.93v-2.56h.81v2.46c0,.88.44,1.31,1.2,1.31a1.3,1.3,0,0,0,1.37-1.47v-2.3Z" style="fill:#263238"></path><path d="M107.1,109.56a2.16,2.16,0,0,1-2.24,2.27,1.88,1.88,0,0,1-1.59-.75v.7h-.77v-6.22h.8V108a1.9,1.9,0,0,1,1.56-.71A2.15,2.15,0,0,1,107.1,109.56Zm-.81,0a1.5,1.5,0,1,0-1.5,1.57A1.46,1.46,0,0,0,106.29,109.56Z" style="fill:#263238"></path><path d="M106.68,113.19l.26-.62a1,1,0,0,0,.65.21c.43,0,.67-.27.67-.78v-4.66h.8V112a1.32,1.32,0,0,1-1.42,1.47A1.54,1.54,0,0,1,106.68,113.19Zm1.43-7.23a.54.54,0,0,1,.55-.53.53.53,0,1,1-.55.53Z" style="fill:#263238"></path><path d="M114.6,109.83H111a1.51,1.51,0,0,0,1.61,1.3,1.65,1.65,0,0,0,1.28-.54l.45.52a2.25,2.25,0,0,1-1.76.72,2.22,2.22,0,0,1-2.39-2.27,2.17,2.17,0,0,1,2.23-2.26,2.14,2.14,0,0,1,2.2,2.29C114.61,109.65,114.6,109.75,114.6,109.83Zm-3.61-.58h2.85a1.43,1.43,0,0,0-2.85,0Z" style="fill:#263238"></path><path d="M115.31,109.56a2.21,2.21,0,0,1,2.35-2.26,2,2,0,0,1,1.81.94l-.61.4a1.37,1.37,0,0,0-1.21-.64,1.57,1.57,0,0,0,0,3.13,1.37,1.37,0,0,0,1.21-.64l.61.39a2,2,0,0,1-1.81,1A2.22,2.22,0,0,1,115.31,109.56Z" style="fill:#263238"></path><path d="M123.07,111.52a1.55,1.55,0,0,1-1,.31,1.27,1.27,0,0,1-1.41-1.39V108h-.75v-.66h.75v-1h.81v1h1.27V108h-1.27v2.41a.65.65,0,0,0,.7.74,1,1,0,0,0,.63-.21Z" style="fill:#263238"></path><path d="M125.82,107.89a.56.56,0,0,1,.57-.57.55.55,0,0,1,.55.57.56.56,0,0,1-.55.58A.57.57,0,0,1,125.82,107.89Zm0,3.39a.56.56,0,0,1,.57-.57.55.55,0,0,1,.55.57.55.55,0,0,1-.55.57A.56.56,0,0,1,125.82,111.28Z" style="fill:#263238"></path><path d="M83.46,47.35a2,2,0,1,1-2-2A2,2,0,0,1,83.46,47.35Z" style="fill:#fff"></path><path d="M90.73,47.35a2,2,0,1,1-2-2A2,2,0,0,1,90.73,47.35Z" style="fill:#fff"></path><path d="M98,47.35a2,2,0,1,1-2-2A2,2,0,0,1,98,47.35Z" style="fill:#fff"></path><path d="M148.66,147.25s0-.09,0-.24l0-.67q0-.93,0-2.58c0-2.26,0-5.51-.09-9.61l.15.14-59,.12h0l.26-.26h0v6.63c0,2.18,0,4.34,0,6.45L89.7,147l42,.12,12.43.07,3.36,0h.88l.31,0-.28,0h-.84l-3.31,0-12.37.07-42.16.11h-.26V134.17h0l.26-.26h0l59,.11h.15v.15c0,4.13-.06,7.42-.08,9.7,0,1.09,0,1.94,0,2.54V147A.85.85,0,0,1,148.66,147.25Z" style="fill:#263238"></path><path d="M185.06,147.25a.77.77,0,0,1,0-.25c0-.19,0-.42,0-.69,0-.65,0-1.52-.05-2.63,0-2.29-.05-5.54-.1-9.53l.19.18-32.28.08.26-.26h0v6.71c0,2.2,0,4.32,0,6.37l-.25-.25,23.07.12,6.74.07,1.82,0,.65,0a4.08,4.08,0,0,1-.59,0l-1.77,0-6.68.07-23.24.12h-.25v-6.62c0-1.09,0-2.2,0-3.33v-3.38h0l.26-.26,32.28.07h.18v.19c0,4-.08,7.32-.1,9.64,0,1.09,0,2,0,2.59S185.07,147.26,185.06,147.25Z" style="fill:#263238"></path><path d="M95.75,139H93.63v-.77h5.12V139H96.63v5.41h-.88Z" style="fill:#263238"></path><path d="M99.32,138.29a.56.56,0,0,1,.58-.56.55.55,0,0,1,.57.54.58.58,0,0,1-1.15,0Zm.15,1.45h.85v4.68h-.85Z" style="fill:#263238"></path><path d="M104.57,144.15a1.62,1.62,0,0,1-1,.33,1.34,1.34,0,0,1-1.49-1.47v-2.57h-.79v-.7h.79v-1h.85v1h1.34v.7h-1.34V143c0,.51.26.79.73.79a1.1,1.1,0,0,0,.67-.22Z" style="fill:#263238"></path><path d="M105.59,137.87h.85v6.55h-.85Z" style="fill:#263238"></path><path d="M112.27,142.36h-3.8a1.58,1.58,0,0,0,1.7,1.37,1.73,1.73,0,0,0,1.35-.56l.47.55a2.36,2.36,0,0,1-1.85.76,2.34,2.34,0,0,1-2.51-2.4,2.29,2.29,0,0,1,2.35-2.39,2.26,2.26,0,0,1,2.31,2.42A2.29,2.29,0,0,1,112.27,142.36Zm-3.8-.61h3a1.52,1.52,0,0,0-3,0Z" style="fill:#263238"></path><polygon points="139.27 140.13 144.88 140.13 142.08 142.94 139.27 140.13" style="fill:#263238"></polygon><polygon points="174.91 140.13 180.52 140.13 177.71 142.94 174.91 140.13" style="fill:#263238"></polygon><path d="M389.82,280.18c0-1.53-.08-58.4-.2-152.24l.2.19-305.88.07h0l.26-.26c0,53.66,0,105.17,0,152.24l-.25-.25,305.9.25-305.9.24h-.24v-.24c0-47.07,0-98.58,0-152.24v-.26h.28l305.88.07H390v.19C389.89,221.78,389.82,278.65,389.82,280.18Z" style="fill:#e0e0e0"></path><path d="M389.82,122.13s0-.6,0-1.73,0-2.82,0-5c0-4.41,0-10.91-.06-19.28l.11.1-306.35.16h0l.26-.26v26l-.26-.26,217.46.11,65.1.07,17.64,0,4.58,0c1,0,1.58,0,1.58,0h-1.54l-4.55,0-17.58,0-65,.08-217.65.11H83.2V95.83h.27L389.82,96h.1v.1c0,8.4-.05,14.91-.06,19.34,0,2.19,0,3.87,0,5S389.82,122.13,389.82,122.13Z" style="fill:#e0e0e0"></path><path d="M389.82,90.59s0-.59,0-1.73,0-2.82,0-5c0-4.41,0-10.9-.06-19.27l.11.1-306.35.16h0l.26-.26v26l-.26-.26,217.46.11,65.1.08,17.64,0,4.58,0,1.58,0-1.54,0-4.55,0-17.58,0-65,.08-217.65.11H83.2V64.29h.27l306.35.16h.1v.11c0,8.39-.05,14.91-.06,19.33,0,2.2,0,3.87,0,5S389.82,90.59,389.82,90.59Z" style="fill:#e0e0e0"></path><path d="M310.18,135.31a1.87,1.87,0,0,0-1.93,1.73h0v6.78h0a2.73,2.73,0,0,0,5.38,0h0v-5.47h-.53v5.24a2.19,2.19,0,0,1-4.36,0V137.1a1.41,1.41,0,0,1,2.82,0v5.5h0a.82.82,0,0,1-1.57,0v-4.24h-.52v4.05h0v.19h0a1.32,1.32,0,0,0,2.58,0h0v-.11s0-.06,0-.09h0V137h0A1.88,1.88,0,0,0,310.18,135.31Z" style="fill:#263238"></path><rect x="231.1" y="138.3" width="7.71" height="1.22" style="fill:#263238"></rect><rect x="231.1" y="142.75" width="7.71" height="1.22" style="fill:#263238"></rect><rect x="231.1" y="140.6" width="3.86" height="1.22" style="fill:#263238"></rect><rect x="260.05" y="138.3" width="7.71" height="1.22" style="fill:#263238"></rect><rect x="260.05" y="142.75" width="7.71" height="1.22" style="fill:#263238"></rect><rect x="263.9" y="140.6" width="3.86" height="1.22" style="fill:#263238"></rect><rect x="245.77" y="138.3" width="7.71" height="1.22" style="fill:#263238"></rect><rect x="245.77" y="142.75" width="7.71" height="1.22" style="fill:#263238"></rect><rect x="245.77" y="140.6" width="7.71" height="1.22" style="fill:#263238"></rect><polygon points="287.07 143.57 280.76 143.57 280.76 138.39 284.03 138.39 284.03 139.48 281.86 139.48 281.86 142.47 285.98 142.47 285.98 141.39 287.07 141.39 287.07 143.57" style="fill:#263238"></polygon><polygon points="290.7 143.57 288.02 143.57 288.02 142.47 289.61 142.47 289.61 139.48 285.49 139.48 285.49 140.88 284.4 140.88 284.4 138.39 290.7 138.39 290.7 143.57" style="fill:#263238"></polygon><polygon points="293.26 140.57 296.62 140.57 294.94 142.13 293.26 140.57" style="fill:#263238"></polygon><path d="M217.32,141.1v-2.91h1v2.87c0,1.06.48,1.52,1.31,1.52s1.3-.46,1.3-1.52v-2.87h.94v2.91a2.26,2.26,0,1,1-4.51,0Z" style="fill:#263238"></path><path d="M208.67,137.61h.86l-1.21,6h-.86Z" style="fill:#263238"></path><path d="M200.58,142c0,1-.86,1.65-2.48,1.65h-3.24v-6h3.07c1.58,0,2.36.65,2.36,1.58a1.42,1.42,0,0,1-.81,1.3A1.52,1.52,0,0,1,200.58,142Zm-4-3.14V140h1.17c.57,0,.86-.19.86-.58s-.29-.58-.86-.58Zm2.32,2.95c0-.41-.31-.61-.89-.61h-1.43v1.22H198C198.55,142.4,198.86,142.2,198.86,141.79Z" style="fill:#263238"></path><path d="M226.43,147.61a46.79,46.79,0,0,1-.26-6.91,46.88,46.88,0,0,1,.26-6.92,45.29,45.29,0,0,1,.26,6.92A45.2,45.2,0,0,1,226.43,147.61Z" style="fill:#e0e0e0"></path><path d="M272.26,147.61a45.2,45.2,0,0,1-.26-6.91,45.29,45.29,0,0,1,.26-6.92,46.88,46.88,0,0,1,.26,6.92A46.79,46.79,0,0,1,272.26,147.61Z" style="fill:#e0e0e0"></path><path d="M300,147.89a46.79,46.79,0,0,1-.26-6.91,46.68,46.68,0,0,1,.26-6.91,46.68,46.68,0,0,1,.26,6.91A46.79,46.79,0,0,1,300,147.89Z" style="fill:#e0e0e0"></path><path d="M321,147.48a46.79,46.79,0,0,1-.26-6.91,46.88,46.88,0,0,1,.26-6.92,44.46,44.46,0,0,1,.27,6.92A44.38,44.38,0,0,1,321,147.48Z" style="fill:#e0e0e0"></path><path d="M222.88,144.11a18.61,18.61,0,0,1-6.2,0,18.61,18.61,0,0,1,6.2,0Z" style="fill:#263238"></path><path d="M162.26,137.61v6h-.85v-5.27h-1.36v-.75Z" style="fill:#263238"></path><path d="M167.8,142.88v.75h-4.32V143l2.45-2.36c.64-.62.76-1,.76-1.37,0-.62-.44-1-1.28-1a1.91,1.91,0,0,0-1.54.65l-.59-.5a2.78,2.78,0,0,1,2.2-.91c1.26,0,2.06.64,2.06,1.67a2.43,2.43,0,0,1-1,1.89l-1.84,1.77Z" style="fill:#263238"></path><path d="M389.82,154.11c0,.14-68.6.26-153.2.26s-153.21-.12-153.21-.26,68.58-.26,153.21-.26S389.82,154,389.82,154.11Z" style="fill:#e0e0e0"></path><path d="M370.92,169.28c0,.14-62.29.26-139.12.26s-139.13-.12-139.13-.26S155,169,231.8,169,370.92,169.13,370.92,169.28Z" style="fill:#263238"></path><path d="M370.92,180.55c0,.15-62.29.26-139.12.26s-139.13-.11-139.13-.26,62.28-.26,139.13-.26S370.92,180.41,370.92,180.55Z" style="fill:#263238"></path><path d="M370.92,191.83c0,.14-62.29.26-139.12.26S92.67,192,92.67,191.83s62.28-.26,139.13-.26S370.92,191.68,370.92,191.83Z" style="fill:#263238"></path><path d="M370.92,203.1c0,.15-62.29.26-139.12.26s-139.13-.11-139.13-.26,62.28-.26,139.13-.26S370.92,203,370.92,203.1Z" style="fill:#263238"></path><path d="M370.92,214.38c0,.14-62.29.26-139.12.26s-139.13-.12-139.13-.26,62.28-.26,139.13-.26S370.92,214.23,370.92,214.38Z" style="fill:#263238"></path><path d="M370.92,225.65c0,.15-62.29.26-139.12.26s-139.13-.11-139.13-.26,62.28-.26,139.13-.26S370.92,225.51,370.92,225.65Z" style="fill:#263238"></path><path d="M370.92,236.93c0,.14-62.29.26-139.12.26s-139.13-.12-139.13-.26,62.28-.26,139.13-.26S370.92,236.78,370.92,236.93Z" style="fill:#263238"></path><path d="M371.12,247.8c0,.14-62.29.26-139.12.26s-139.13-.12-139.13-.26,62.28-.26,139.13-.26S371.12,247.66,371.12,247.8Z" style="fill:#263238"></path><path d="M371.32,258.67c0,.15-62.29.26-139.11.26s-139.14-.11-139.14-.26,62.28-.26,139.14-.26S371.32,258.53,371.32,258.67Z" style="fill:#263238"></path><path d="M93.28,269.54c0-.14,62.29-.26,139.11-.26s139.13.12,139.13.26-62.28.26-139.13.26S93.28,269.69,93.28,269.54Z" style="fill:#263238"></path><path d="M400.5,291.62c0-1.78-.08-100.35-.21-253.45l.21.22-328.58,0h0l.26-.26c0,91.3,0,177.68,0,253.45l-.23-.23,328.61.23-328.61.24h-.24v-.24c0-75.77,0-162.15,0-253.45v-.26h.29L400.5,38h.22v.21C400.59,191.27,400.5,289.84,400.5,291.62Z" style="fill:#263238"></path><path d="M272,116.87v21.8a7.28,7.28,0,0,0,7.28,7.28H306a2.5,2.5,0,0,1,2,1l6.54,14.25,7.88-14a2.55,2.55,0,0,1,1.89-.85h28A7.28,7.28,0,0,0,359.5,139V116.73a7.27,7.27,0,0,0-7.29-7.27l-72.9.13A7.28,7.28,0,0,0,272,116.87Z" style="fill:#598CFF"></path><path d="M290.34,135.7h-4.56v-4.3l10.5-11.47.21-.05a3.43,3.43,0,0,1,3.4.48c1.33,1.22,1,3.45.92,3.7l0,.22Zm-3-1.51h2.38l9.69-10.6a2.74,2.74,0,0,0-.49-2.12,1.93,1.93,0,0,0-1.78-.19l-9.8,10.7Z" style="fill:#fff"></path><path d="M320,132.8v1.49h-8.67V122.35h8.43v1.48h-6.72v3.67h6V129h-6v3.85Z" style="fill:#fff"></path><path d="M331,121.63v12.66h-1.57v-1.44a3.8,3.8,0,0,1-3.22,1.54,4.62,4.62,0,0,1,0-9.23,3.87,3.87,0,0,1,3.16,1.45v-5Zm-1.62,8.14a3,3,0,1,0-3,3.19A3,3,0,0,0,329.36,129.77Z" style="fill:#fff"></path><path d="M333.81,122.45a1.07,1.07,0,0,1,1.1-1.08,1.06,1.06,0,0,1,1.11,1,1.07,1.07,0,0,1-1.11,1.1A1.06,1.06,0,0,1,333.81,122.45Zm.29,2.79h1.63v9H334.1Z" style="fill:#fff"></path><path d="M343.94,133.76a3.11,3.11,0,0,1-2,.63,2.58,2.58,0,0,1-2.86-2.83v-5h-1.54v-1.35h1.54v-2h1.63v2h2.6v1.35h-2.6v4.9a1.34,1.34,0,0,0,1.42,1.52,2.08,2.08,0,0,0,1.28-.43Z" style="fill:#fff"></path></g><g id="freepik--Character--inject-1"><path d="M443.87,378.47s-22.58,10.3-44.54,10.3c-20.33,0-43.08-10.24-43.08-10.24Z" style="fill:#e0e0e0"></path><rect x="397.04" y="379.45" width="8.71" height="91.22" transform="translate(802.78 850.12) rotate(180)" style="fill:#e0e0e0"></rect><rect x="362.35" y="466.89" width="77.3" height="5.35" transform="translate(801.99 939.13) rotate(180)" style="fill:#e0e0e0"></rect><path d="M430.58,474.54a5.9,5.9,0,1,0,5.9-5.89A5.9,5.9,0,0,0,430.58,474.54Z" style="fill:#263238"></path><path d="M396.23,474.54a5.9,5.9,0,1,0,5.9-5.89A5.9,5.9,0,0,0,396.23,474.54Z" style="fill:#263238"></path><path d="M356.45,474.54a5.9,5.9,0,1,0,5.9-5.89A5.9,5.9,0,0,0,356.45,474.54Z" style="fill:#263238"></path><rect x="399.33" y="412.28" width="11.85" height="4.9" transform="translate(810.52 829.46) rotate(180)" style="fill:#e0e0e0"></rect><rect x="409.02" y="408.85" width="4.31" height="11.77" transform="translate(822.36 829.46) rotate(180)" style="fill:#e0e0e0"></rect><path d="M352.37,378.47H451a6.55,6.55,0,0,0,6.55-6.55h0a6.55,6.55,0,0,0-6.55-6.55H352.37a6.55,6.55,0,0,0-6.55,6.55h0A6.55,6.55,0,0,0,352.37,378.47Z" style="fill:#455a64"></path><path d="M443.24,206.07s7.94-3.1,7.61-9.87-9.45-13.47-8.91-23.63c.51-9.54-13.15-37.87-32.66-28a26.83,26.83,0,0,0-9.8.54c-6.29,1.8-8.25,7.82-12,13.78-5.73,9.2-9.64,16.45-6.87,22.86s3.93,8.29,1.78,13.76c-2.8,7.14-5.67,5.07-4.73,11.31l17,.27,1.61-4.16.18,4.5,10-.13Z" style="fill:#263238"></path><path d="M394.71,154.58c.21,2.63-1.51,5-3.25,7s-3.67,4-4,6.65c-.64,4.62,3.9,8.89,3,13.47-.48,2.45-2.48,4.43-2.83,6.91s1,4.73,2.57,6.55,3.54,3.32,5,5.29c0,0,2.95,4.79,12,1.67" style="fill:#263238"></path><path d="M402.45,151.24,424.88,156a4.18,4.18,0,0,1,3.91,4.1l-.27,48.55a15.1,15.1,0,0,1-3.16,9.16l-2.14,2.76c-4.88,6.29-14.76,5.65-18.49-1.38a5,5,0,0,1-.51-1.27,9.11,9.11,0,0,1-.21-1.1l-.43-4.73c-.22-4.32-.25-8.72-.25-8.68s-9.18-1.16-11.54-13c-1.17-5.88-1.24-15.6-1.05-23.55C390.91,159.7,395.3,150.76,402.45,151.24Z" style="fill:#ffbe9d"></path><path d="M394.15,176a1.54,1.54,0,0,0,1.53,1.49A1.47,1.47,0,0,0,397.2,176a1.54,1.54,0,0,0-1.53-1.49A1.47,1.47,0,0,0,394.15,176Z" style="fill:#263238"></path><path d="M393,171.83c.2.19,1.32-.71,3-.77s2.88.72,3.05.51-.12-.45-.66-.81a4.23,4.23,0,0,0-2.45-.65,3.94,3.94,0,0,0-2.35.86C393.1,171.38,392.94,171.74,393,171.83Z" style="fill:#263238"></path><path d="M408.87,175.6a1.54,1.54,0,0,0,1.53,1.49,1.47,1.47,0,0,0,1.53-1.44,1.53,1.53,0,0,0-1.54-1.48A1.46,1.46,0,0,0,408.87,175.6Z" style="fill:#263238"></path><path d="M408.64,171.43c.19.19,1.32-.71,3-.77s2.88.72,3,.51-.12-.45-.66-.81a4.18,4.18,0,0,0-2.45-.65,3.94,3.94,0,0,0-2.35.86C408.7,171,408.54,171.34,408.64,171.43Z" style="fill:#263238"></path><path d="M403.71,183.92a11.33,11.33,0,0,0-2.69-.38c-.42,0-.82-.09-.9-.37a2.2,2.2,0,0,1,.23-1.26c.36-1,.73-2.11,1.12-3.24,1.54-4.62,2.64-8.4,2.46-8.46s-1.59,3.63-3.14,8.24l-1.06,3.26a2.49,2.49,0,0,0-.16,1.66,1.09,1.09,0,0,0,.72.58,2.7,2.7,0,0,0,.71.07A10.15,10.15,0,0,0,403.71,183.92Z" style="fill:#263238"></path><path d="M403.33,203.4a30.23,30.23,0,0,0,15.77-4.87s-3.68,8.4-15.64,7.75Z" style="fill:#eb996e"></path><path d="M404.56,187.85a3,3,0,0,1,2.61-1.2,2.71,2.71,0,0,1,1.9.93,1.71,1.71,0,0,1,.21,1.95,2,2,0,0,1-2.13.63A6.11,6.11,0,0,1,405,189a2,2,0,0,1-.49-.47.54.54,0,0,1,0-.61" style="fill:#eb996e"></path><path d="M408.59,184.87c-.27,0-.21,1.78-1.68,3.1s-3.38,1.21-3.39,1.45.44.34,1.24.33a4.48,4.48,0,0,0,2.83-1.12,3.91,3.91,0,0,0,1.3-2.59C408.92,185.29,408.71,184.86,408.59,184.87Z" style="fill:#263238"></path><path d="M408.73,166.55c.18.44,1.81.17,3.75.32s3.51.63,3.75.22c.11-.2-.18-.61-.82-1a6.31,6.31,0,0,0-2.82-.86,6.16,6.16,0,0,0-2.9.46C409,166,408.65,166.34,408.73,166.55Z" style="fill:#263238"></path><path d="M393.24,164.63c.3.36,1.42-.07,2.78-.14s2.52.15,2.77-.25c.11-.19-.09-.56-.6-.9a4,4,0,0,0-4.48.32C393.24,164.06,393.1,164.45,393.24,164.63Z" style="fill:#263238"></path><path d="M434.8,156c-1.66-4.89-8.36-10.25-14.67-12.66a12,12,0,0,0-10.85,1.27l-8,5.3a11.1,11.1,0,0,0,7.7,8.33c2,.58,4.49.7,5.73,2.43s.6,4.37,1.79,6.19c1.64,2.52,6,2.31,7.24,5,.55,1.2.3,2.64.87,3.83.75,1.58,4.83,3.52,6.49,3s1.6-3.41,2.12-4.91a7.9,7.9,0,0,0,.14-5.28C432.55,165.12,435.91,159.23,434.8,156Z" style="fill:#263238"></path><path d="M426.19,180.16c0-.89.91-3,1.78-3.19,2.33-.45,6.55-.43,6.82,5.51.37,8.11-7.86,6.81-7.88,6.58S426.3,183.22,426.19,180.16Z" style="fill:#ffbe9d"></path><path d="M429.25,185.87s.14.09.39.19a1.39,1.39,0,0,0,1.06,0c.84-.35,1.5-1.74,1.47-3.21a4.58,4.58,0,0,0-.49-2,1.63,1.63,0,0,0-1.11-1,.72.72,0,0,0-.82.43c-.09.23,0,.39-.08.4s-.18-.12-.13-.46a.94.94,0,0,1,.3-.53,1.1,1.1,0,0,1,.77-.24,2,2,0,0,1,1.53,1.19,4.78,4.78,0,0,1,.6,2.24c0,1.64-.75,3.21-1.91,3.6a1.53,1.53,0,0,1-1.3-.16C429.27,186.07,429.22,185.89,429.25,185.87Z" style="fill:#eb996e"></path><path d="M373.67,241.39l-14.35,37.43-27,1.72-4.17,11.73,35.64,6.91s10.72,3.12,16.83-10.49l10.45-37.23Z" style="fill:#ffbe9d"></path><path d="M306.69,286.39a1.79,1.79,0,0,0,1.72,1,1.81,1.81,0,0,0,.44-.09c1-.33.93-2.41.93-2.41l4.89-.8s6.36,4.1,8.63,6.82,8,.52,8,.52l2-10.43-9-8.14s.56.48-.07-1-3.45-.95-3.45-.95c-.44-.75-2.29-1-2.29-1l-7.89.91a5.4,5.4,0,0,0-4,2.49l-3.34,5.28s-1.77,3.81-1.48,4.7a1.59,1.59,0,0,0,1.84,1s.39,2.5,1,2.59a5.58,5.58,0,0,0,2-.47Z" style="fill:#ffbe9d"></path><path d="M321.57,289.23a3,3,0,0,1-.47-.36l-1.32-1.06a55.85,55.85,0,0,0-5.19-3.58l.11,0-4.89.83.17-.21a5.44,5.44,0,0,1-.09,1.2,2.19,2.19,0,0,1-.56,1.17,1.21,1.21,0,0,1-.65.3,1.55,1.55,0,0,1-.68,0,2,2,0,0,1-1.22-.67,1.94,1.94,0,0,1-.21-.29l-.05-.08,0,0v0h0c-.06,0,.54.2.29.1h0l-.16.06c-.2.08-.41.16-.63.23a6,6,0,0,1-.67.16,2,2,0,0,1-.36,0,.81.81,0,0,1-.45-.08,1.41,1.41,0,0,1-.48-.65,6.07,6.07,0,0,1-.25-.67,12.73,12.73,0,0,1-.31-1.39l.29.2a1.87,1.87,0,0,1-1.83-.62,1.52,1.52,0,0,1-.33-1,4,4,0,0,1,.17-.94,26.53,26.53,0,0,1,1.35-3.52h0v0c.56-.9,1.17-1.85,1.78-2.82.38-.6.75-1.2,1.13-1.79a10,10,0,0,1,1.23-1.73,5.43,5.43,0,0,1,1.78-1.18,6.94,6.94,0,0,1,2-.42l7.45-.83h.06a7.1,7.1,0,0,1,1.3.34,2.22,2.22,0,0,1,1.14.8l-.28-.09a2.74,2.74,0,0,1,2.54.14,3.21,3.21,0,0,1,1.26,2l-.06-.1,6.2,5.58,1.67,1.54a4.43,4.43,0,0,1,.56.56,3.77,3.77,0,0,1-.63-.48l-1.74-1.46L324.21,273l0,0,0-.06a2.82,2.82,0,0,0-1.11-1.74,2.3,2.3,0,0,0-2.14-.09l-.17.07-.1-.16a1.9,1.9,0,0,0-.92-.6,6.81,6.81,0,0,0-1.22-.31h.06l-7.44.88a6.55,6.55,0,0,0-1.89.39,4.89,4.89,0,0,0-1.6,1.07,9.9,9.9,0,0,0-1.17,1.65l-1.13,1.79-1.78,2.82v0a27,27,0,0,0-1.32,3.44,3.68,3.68,0,0,0-.16.83,1,1,0,0,0,.23.67,1.38,1.38,0,0,0,1.34.45l.24,0,0,.24a11,11,0,0,0,.3,1.32,2.23,2.23,0,0,0,.51,1.06.4.4,0,0,0,.2,0l.3,0a4.52,4.52,0,0,0,.61-.15l.6-.21.15-.05h0l.29.11h0l0,0,0,.07a1.24,1.24,0,0,0,.17.23,1.55,1.55,0,0,0,.94.53,1.41,1.41,0,0,0,.54,0,.77.77,0,0,0,.44-.19,3,3,0,0,0,.54-2v-.18l.17,0,4.9-.76h.06l.05,0a47.13,47.13,0,0,1,5.13,3.72c.57.48,1,.86,1.27,1.13A2.94,2.94,0,0,1,321.57,289.23Z" style="fill:#eb996e"></path><path d="M319.47,273.66a9.85,9.85,0,0,1-2.53.75,25.24,25.24,0,0,1-6.52.47l.26-.17c-.13.39-.27.8-.44,1.2a19.54,19.54,0,0,1-4,6.22,16.45,16.45,0,0,1-1.66,1.5c-.43.32-.67.48-.7.45s.86-.8,2.09-2.2a21.88,21.88,0,0,0,3.8-6.16c.16-.4.3-.8.43-1.17l.07-.19h.19a30.2,30.2,0,0,0,6.43-.3C318.49,273.83,319.45,273.58,319.47,273.66Z" style="fill:#eb996e"></path><path d="M312,278.26a10.08,10.08,0,0,1-2,4.43,9.69,9.69,0,0,1-3.48,3.36c-.1-.12,1.56-1.5,3.06-3.66S311.83,278.21,312,278.26Z" style="fill:#eb996e"></path><path d="M332.89,288.26s-.08.06-.25.14a5,5,0,0,1-.78.3,8.4,8.4,0,0,1-3.11.36,8.6,8.6,0,0,1-4.48-1.62,9,9,0,0,1-3.38-5l.29.19a20.63,20.63,0,0,1-5.71.27,20.2,20.2,0,0,1-2.11-.32,6.56,6.56,0,0,1-2-.66,1.66,1.66,0,0,1-.76-.86,1.48,1.48,0,0,1,.13-1.15,1.5,1.5,0,0,1,.89-.69l.91-.22c2.4-.58,4.59-1,6.43-1.29s3.34-.46,4.38-.55a9.83,9.83,0,0,1,1.62-.08,9.25,9.25,0,0,1-1.59.28c-1,.15-2.52.38-4.35.71s-4,.79-6.37,1.39l-.9.24a.89.89,0,0,0-.58.46.92.92,0,0,0-.09.74,1.1,1.1,0,0,0,.55.58,6.09,6.09,0,0,0,1.85.59,19.64,19.64,0,0,0,2.06.31,20.43,20.43,0,0,0,5.57-.25l.23,0,.06.23a8.52,8.52,0,0,0,7.4,6.4,9.24,9.24,0,0,0,3-.21A10.1,10.1,0,0,1,332.89,288.26Z" style="fill:#eb996e"></path><path d="M323.62,422.12a2,2,0,0,1,0-.89,5.8,5.8,0,0,1,.9-2.28,3.44,3.44,0,0,1,.54-.65,1,1,0,0,1,1-.23.74.74,0,0,1,.45.45,1,1,0,0,1,0,.61,7.72,7.72,0,0,1-.47.91c-.35.59-.64,1.18-1.09,1.84a1.3,1.3,0,0,1-1.2.54,2.61,2.61,0,0,1-1.16-.51,9.91,9.91,0,0,1-1.71-1.57c-.24-.29-.46-.58-.67-.88a2.76,2.76,0,0,1-.5-1,1,1,0,0,1,.51-1.1,1.15,1.15,0,0,1,1.08.25,6.94,6.94,0,0,1,1.14,1.29,8.35,8.35,0,0,1,1.11,2.16,2.21,2.21,0,0,1,.2.87,16.88,16.88,0,0,0-1.62-2.81,6.91,6.91,0,0,0-1.09-1.15.73.73,0,0,0-.64-.17.47.47,0,0,0-.21.56,2.33,2.33,0,0,0,.44.81,10.16,10.16,0,0,0,.65.82,9.57,9.57,0,0,0,1.62,1.48,1.92,1.92,0,0,0,.91.42.76.76,0,0,0,.73-.33c.37-.54.73-1.21,1.07-1.77a5.25,5.25,0,0,0,.45-.81c.09-.26,0-.42-.14-.5-.4-.16-.8.3-1.08.69A8.77,8.77,0,0,0,323.62,422.12Z" style="fill:#263238"></path><polygon points="346.8 422.92 358.31 447.86 376.88 439.28 364.97 408.41 346.8 422.92" style="fill:#ffbe9d"></polygon><path d="M356.13,446.19,362.85,459s-17.21,17.8-15.59,21.78l40.46-19.4L376.6,435.67Z" style="fill:#455a64"></path><path d="M374.53,451.26a1.83,1.83,0,0,1,2,1.34,1.76,1.76,0,0,1-1.31,2,1.93,1.93,0,0,1-2.16-1.43,1.84,1.84,0,0,1,1.6-2" style="fill:#e0e0e0"></path><g style="opacity:0.6000000000000001"><path d="M387.72,461.39,386,458.16,347.87,478s-1.42,1.65-.61,2.82Z" style="fill:#fff"></path></g><path d="M362.1,459.12c.1.2,1.13-.19,2.41,0s2.19.75,2.34.59-.7-1.17-2.25-1.35S362,459,362.1,459.12Z" style="fill:#263238"></path><path d="M358.7,462.91c0,.21,1.06.14,2.13.65s1.69,1.31,1.88,1.21-.21-1.28-1.56-1.9S358.61,462.72,358.7,462.91Z" style="fill:#263238"></path><path d="M358.72,469.15c.2,0,0-1.17-1-2s-2.16-.82-2.16-.62.84.51,1.67,1.21S358.52,469.22,358.72,469.15Z" style="fill:#263238"></path><path d="M360.17,454.18c.17.14.95-.56,2.1-1s2.19-.53,2.21-.75-1.15-.52-2.5,0S360,454.07,360.17,454.18Z" style="fill:#263238"></path><path d="M352.34,442.86,322,367s.68-13,3.06-17.05S399.72,322,399.72,322s18.41-4.43,30.68,0,25.12,8.89,23.75,17.47C452.13,352,441.27,365,441.27,365l-53.14,1.58-29,10.56,19.5,55.9Z" style="fill:#263238"></path><polygon points="325.36 390.99 324.68 418.45 345.13 418.95 348.07 385.99 325.36 390.99" style="fill:#ffbe9d"></polygon><path d="M323.46,416l.37,14.48s-23.3,8.37-23.6,12.65l44.86.45,1.38-28Z" style="fill:#455a64"></path><path d="M337.72,428.66a1.84,1.84,0,0,1,1.25,2.11A1.76,1.76,0,0,1,336.9,432a1.93,1.93,0,0,1-1.31-2.24,1.83,1.83,0,0,1,2.3-1.06" style="fill:#e0e0e0"></path><g style="opacity:0.6000000000000001"><path d="M345.09,443.57l-.08-3.63-43,.92s-2,.85-1.79,2.26Z" style="fill:#fff"></path></g><path d="M323.11,430.23c0,.22,1.1.33,2.17,1s1.63,1.65,1.84,1.56-.12-1.35-1.43-2.19S323.06,430,323.11,430.23Z" style="fill:#263238"></path><path d="M318.38,432.13c-.05.21.89.59,1.63,1.53s.94,1.91,1.16,1.91.37-1.25-.57-2.39S318.39,431.92,318.38,432.13Z" style="fill:#263238"></path><path d="M315.65,437.73c.2,0,.52-1,0-2.24s-1.57-1.7-1.67-1.52.53.83,1,1.83S315.43,437.71,315.65,437.73Z" style="fill:#263238"></path><path d="M323.56,425c.09.2,1.09-.1,2.33,0s2.2.5,2.32.31-.81-1-2.27-1.07S323.45,424.77,323.56,425Z" style="fill:#263238"></path><path d="M337.3,314.75s-12.25-1-13.61,12.32S321,402.4,321,402.4l28.64,2.38,4.43-63.4L399.72,322S345.48,313.05,337.3,314.75Z" style="fill:#263238"></path><path d="M387.8,296.81s-7.43,20.85-6,23.17,20.54,11.89,20.54,11.89l47.85,18.37s4.91-7.81,4.91-19.82-16.64-33.61-16.64-33.61Z" style="fill:#263238"></path><path d="M402,320.89l-.23.12-.68.32-2.65,1.17-9.94,4.34-34.34,14.78.15-.22c-.43,6.26-.9,13-1.39,20-1.16,16.36-2.23,31.44-3.08,43.38l0,.21-.21,0-20.86-1.83-5.74-.53-1.51-.16a4.48,4.48,0,0,1-.51-.07,2.92,2.92,0,0,1,.52,0l1.51.09,5.75.42,20.87,1.65-.23.2c.82-11.94,1.86-27,3-43.38.49-7,1-13.76,1.41-20v-.15l.15-.06,34.41-14.61,10-4.2,2.69-1.1.69-.27A.86.86,0,0,1,402,320.89Z" style="fill:#455a64"></path><path d="M440,323a7.58,7.58,0,0,1-1.34-.37l-3.61-1.16a78,78,0,0,0-12-3.05,35.42,35.42,0,0,0-12.35.16,48.7,48.7,0,0,0-4.94,1.43,5.75,5.75,0,0,1,1.24-.63,22.72,22.72,0,0,1,3.62-1.17,33.13,33.13,0,0,1,12.51-.32,66.94,66.94,0,0,1,12.09,3.22c1.51.53,2.72,1,3.56,1.32A6.31,6.31,0,0,1,440,323Z" style="fill:#455a64"></path><path d="M433.28,312a33.47,33.47,0,0,0-4.19,0c-1.29.09-2.82.29-4.53.49s-3.57.43-5.51.8a25.67,25.67,0,0,0-9.38,3.47,31.57,31.57,0,0,0-3.25,2.62,3.92,3.92,0,0,1,.7-.9,14.26,14.26,0,0,1,2.34-2,24.11,24.11,0,0,1,9.49-3.69c2-.37,3.85-.59,5.56-.76s3.25-.33,4.56-.38a17.92,17.92,0,0,1,3.1.14A3.35,3.35,0,0,1,433.28,312Z" style="fill:#455a64"></path><path d="M370.09,237.54s8.55-14.27,10.93-17.16a19.09,19.09,0,0,1,7-5.14,14.48,14.48,0,0,1,3.33-1l12.31-2.72s0,8.4,8.83,8.92,16.21-11.74,16.21-11.74,14.22,2.2,17.62,3.95,8.75,4,11.7,18.7l2.06,14.42L435.57,248l-2.35,36.44L421.06,293s-33.71,8.76-35.86,9.34S382.33,248,382.33,248,373.67,242.45,370.09,237.54Z" style="fill:#598CFF"></path><path d="M386.22,231.41a5.87,5.87,0,0,0-.47,1.05c-.28.69-.64,1.7-1,3a57.59,57.59,0,0,0-2.51,20.48c.08,1.33.18,2.4.29,3.13a5.62,5.62,0,0,0,.2,1.13,4.62,4.62,0,0,0,0-1.15c-.05-.74-.1-1.8-.13-3.12a67.81,67.81,0,0,1,2.49-20.37c.35-1.27.66-2.29.88-3A4.4,4.4,0,0,0,386.22,231.41Z" style="fill:#263238"></path><path d="M436.46,230.54a4.48,4.48,0,0,1,0,1.12c0,.82-.07,1.83-.12,3-.12,2.67-.29,6.14-.47,10s-.38,7.42-.58,10c-.09,1.27-.18,2.3-.26,3a4.65,4.65,0,0,1-.17,1.1,4,4,0,0,1,0-1.11c0-.83.06-1.84.1-3,.11-2.68.26-6.14.42-10s.41-7.42.62-10c.11-1.28.21-2.31.29-3A4.92,4.92,0,0,1,436.46,230.54Z" style="fill:#263238"></path><path d="M387.27,291.09l46.17-10,2.13-33,20.53-1.89s-1.44,22.51-1.55,29.26c-.3,19.46-6.84,22.81-10.17,25.44s-59.18,1.44-59.18,1.44Z" style="fill:#ffbe9d"></path><path d="M361.06,297.07a1.79,1.79,0,0,0,1.72,1,2.42,2.42,0,0,0,.45-.1c1-.32.93-2.4.93-2.4l4.89-.8s6.36,4.1,8.62,6.82,8,.52,8,.52l2-10.43-9-8.14s.55.48-.07-1-3.45-.95-3.45-.95c-.44-.75-2.29-1-2.29-1l-7.9.91a5.41,5.41,0,0,0-4,2.48l-3.34,5.29s-1.76,3.81-1.48,4.69a1.58,1.58,0,0,0,1.84,1s.39,2.51,1.05,2.59a5.29,5.29,0,0,0,1.95-.47Z" style="fill:#ffbe9d"></path><path d="M377.88,289.58c0,.09-1.06,0-2.75.06a23.91,23.91,0,0,0-6.45,1.21,22.69,22.69,0,0,0-3.32,1.42c-.95.54-1.95,1-2.26,1.67a1,1,0,0,0,.09.95,1.32,1.32,0,0,0,.6.5,2.14,2.14,0,0,0,.69.1s-.25.22-.76.08a1.47,1.47,0,0,1-.76-.52,1.29,1.29,0,0,1-.19-1.24,2.57,2.57,0,0,1,1-1.11c.43-.28.88-.57,1.38-.84a20.59,20.59,0,0,1,10-2.57A9.27,9.27,0,0,1,377.88,289.58Z" style="fill:#eb996e"></path><path d="M378.43,294.62c0,.15-3.22,0-7.17.25s-7.13.71-7.16.56a8.38,8.38,0,0,1,2.06-.5,48.08,48.08,0,0,1,5.07-.57,45.2,45.2,0,0,1,5.1,0A7.92,7.92,0,0,1,378.43,294.62Z" style="fill:#eb996e"></path><path d="M361.11,296.87a3.33,3.33,0,0,1-.1-.84,17.44,17.44,0,0,1,0-2.31,8.87,8.87,0,0,1,.22-1.6,4.81,4.81,0,0,1,.77-1.72,10.78,10.78,0,0,1,3-3,15.45,15.45,0,0,1,3.78-1.91,13.49,13.49,0,0,1,3.41-.51c1,0,1.77,0,2.31,0a2.75,2.75,0,0,1,.84.09,25.66,25.66,0,0,1-3.13.26,14.84,14.84,0,0,0-3.29.61,15.36,15.36,0,0,0-3.63,1.88,10.75,10.75,0,0,0-2.87,2.88,6,6,0,0,0-1,3.09C361.17,295.66,361.22,296.88,361.11,296.87Z" style="fill:#eb996e"></path><path d="M372.52,282.54c0,.08-1.18.11-3.07.33s-4.73.41-6.38,2.91a26.91,26.91,0,0,0-4,6.2,16.54,16.54,0,0,0-.75,3,2.42,2.42,0,0,1,0-.84,7.83,7.83,0,0,1,.46-2.24,23.25,23.25,0,0,1,3.92-6.39,8.69,8.69,0,0,1,1.54-1.55,5.64,5.64,0,0,1,1.86-.88,17.16,17.16,0,0,1,3.35-.53A12.15,12.15,0,0,1,372.52,282.54Z" style="fill:#eb996e"></path><path d="M376,299.92a3,3,0,0,1-.47-.36l-1.33-1.06a54.51,54.51,0,0,0-5.19-3.58l.12,0-4.89.84.17-.21a5.32,5.32,0,0,1-.1,1.19,2.17,2.17,0,0,1-.55,1.18,1.25,1.25,0,0,1-.65.3,1.77,1.77,0,0,1-.69,0,2,2,0,0,1-1.21-.67,3.15,3.15,0,0,1-.22-.29l0-.08,0,0v0h0l.29.1h0l-.16.06c-.21.08-.42.16-.63.22a5.06,5.06,0,0,1-.67.17,2.2,2.2,0,0,1-.36,0,.78.78,0,0,1-.46-.09,1.54,1.54,0,0,1-.48-.64c-.09-.23-.17-.45-.24-.68a12.55,12.55,0,0,1-.31-1.38l.28.2a1.86,1.86,0,0,1-1.82-.62,1.54,1.54,0,0,1-.34-1,4.84,4.84,0,0,1,.18-.95,24.63,24.63,0,0,1,1.35-3.51v0h0l1.78-2.82,1.13-1.79a9.65,9.65,0,0,1,1.24-1.73,5.33,5.33,0,0,1,1.77-1.18,7.07,7.07,0,0,1,2-.42l7.44-.84h.06a6.3,6.3,0,0,1,1.31.34,2.18,2.18,0,0,1,1.13.79l-.27-.08a2.71,2.71,0,0,1,2.54.14,3.18,3.18,0,0,1,1.25,2l-.06-.1L385,289l1.67,1.54a4.51,4.51,0,0,1,.56.56,3.77,3.77,0,0,1-.63-.48l-1.74-1.47c-1.54-1.32-3.68-3.18-6.31-5.45l0,0v-.07a2.83,2.83,0,0,0-1.11-1.73,2.33,2.33,0,0,0-2.14-.1l-.17.08-.1-.16a1.88,1.88,0,0,0-.92-.6,7.27,7.27,0,0,0-1.22-.31h.06l-7.45.88a6.17,6.17,0,0,0-1.88.39,4.74,4.74,0,0,0-1.6,1.07,8.54,8.54,0,0,0-1.17,1.65c-.38.59-.75,1.19-1.13,1.79-.61,1-1.22,1.92-1.78,2.82v0a26.91,26.91,0,0,0-1.33,3.43,4.57,4.57,0,0,0-.16.84,1,1,0,0,0,.24.67,1.36,1.36,0,0,0,1.33.45l.25,0,0,.24a12,12,0,0,0,.29,1.32,2.56,2.56,0,0,0,.51,1.06.69.69,0,0,0,.2,0l.3,0c.21,0,.41-.09.62-.15l.6-.21.14-.06h0c-.25-.1.36.13.3.1h0v0l0,.06a1.88,1.88,0,0,0,.16.23,1.61,1.61,0,0,0,.95.54,1.37,1.37,0,0,0,.53,0,.85.85,0,0,0,.45-.19,3.08,3.08,0,0,0,.54-2v-.18l.16,0,4.9-.76h.06l.05,0a46.45,46.45,0,0,1,5.14,3.72c.57.48,1,.86,1.27,1.13A2.94,2.94,0,0,1,376,299.92Z" style="fill:#eb996e"></path><polygon points="419.68 314.15 411.92 314.15 411.92 315.86 428.92 481.69 437.99 481.69 419.68 314.15" style="fill:#455a64"></polygon><path d="M419.68,314.15s0,.3.08.87.15,1.43.26,2.54c.23,2.23.58,5.5,1,9.71.9,8.43,2.21,20.63,3.83,35.75,3.27,30.2,7.8,72.06,12.86,118.7l.26-.29h-9.07l.26.23c-8-78.05-14.85-144.09-17.18-165.8h0c0-.79,0-1.26,0-1.71l-.07.07,5.86,0,1.43,0h.47l-.45,0h-1.41l-5.9-.05h-.08v1.79h0c2.12,21.74,8.82,87.79,16.82,165.84l0,.24h9.59l0-.29c-5.14-46.7-9.75-88.61-13.08-118.86-1.69-15.08-3-27.25-4-35.67-.47-4.19-.84-7.43-1.09-9.65-.13-1.09-.23-1.92-.29-2.5S419.68,314.15,419.68,314.15Z" style="fill:#263238"></path><polygon points="282.45 314.15 274.68 314.15 274.68 315.9 290.87 481.65 298.84 481.65 282.45 314.15" style="fill:#263238"></polygon><polygon points="452.13 315.86 175.28 316.16 175.18 308.85 452.13 308.85 452.13 315.86" style="fill:#455a64"></polygon><polygon points="214.22 314.15 221.99 314.15 221.99 315.9 205.81 481.65 197.83 481.65 214.22 314.15" style="fill:#455a64"></polygon><path d="M213.87,316.32s0,.29-.06.86-.13,1.4-.23,2.49c-.21,2.2-.51,5.42-.91,9.57-.79,8.31-1.95,20.34-3.38,35.24-2.89,29.77-6.89,71-11.35,117l-.22-.24h8l-.22.19c7.56-76.74,14-141.75,16.1-163.34h0v-1.76l.06.06-5.86,0h-1.45l1.42,0,5.89,0h.06v.06c0,.46,0,.94,0,1.76h0c-2.09,21.6-8.37,86.62-15.8,163.38v.19h-8.42l0-.24c4.53-46,8.6-87.3,11.54-117.11,1.48-14.87,2.68-26.88,3.51-35.17.42-4.13.74-7.34,1-9.52.11-1.08.2-1.9.26-2.46Z" style="fill:#263238"></path><polygon points="326.41 314.78 318.64 314.78 318.64 316.54 334.83 481.65 342.81 481.65 326.41 314.78" style="fill:#455a64"></polygon><path d="M326.76,317s0,.29.07.85.13,1.4.23,2.49c.21,2.18.51,5.39.9,9.53.8,8.28,2,20.26,3.38,35.1,2.89,29.66,6.9,70.76,11.36,116.54l.22-.24h-8l.21.19c-7.56-76.45-14-141.21-16.09-162.72h0V317L319,317l5.87,0h1.9l-.45,0h-1.42l-5.9,0h-.06v1.82h0C321,340.22,327.3,405,334.72,481.46l0,.19h8.41l0-.24c-4.53-45.82-8.6-87-11.54-116.66-1.49-14.82-2.68-26.78-3.51-35-.42-4.12-.74-7.31-1-9.48-.12-1.08-.2-1.9-.26-2.46S326.76,317,326.76,317Z" style="fill:#263238"></path><path d="M451.1,315.91c0-.14-55.82-.25-124.66-.25s-124.67.11-124.67.25,55.81.25,124.67.25S451.1,316.05,451.1,315.91Z" style="fill:#263238"></path><path d="M277.67,257.51l60.81.49c2,0,3.86.95,4.16,2.9l6.64,44.32H380.6a1.83,1.83,0,0,1,0,3.66h-100l-6.83-46.78A4,4,0,0,1,277.67,257.51Z" style="fill:#e0e0e0"></path><path d="M277.67,257.51a3.32,3.32,0,0,0-1,.09,4,4,0,0,0-2.32,1.54,4,4,0,0,0-.75,1.94,11.09,11.09,0,0,0,.22,2.5c.26,1.79.55,3.86.88,6.17l5.64,39.15,0,.16h.16l97.06.06h2.61a2.56,2.56,0,0,0,1.38-.26,2.11,2.11,0,0,0,.94-1.1,2.07,2.07,0,0,0-.95-2.52,2.42,2.42,0,0,0-1.37-.26h-31l.24.2c-2.4-15.87-4.63-30.68-6.63-44a3.41,3.41,0,0,0-1.13-2.32,4.48,4.48,0,0,0-2.32-1,18.51,18.51,0,0,0-2.45-.08l-2.39,0-9.16-.06-16.27-.1L286,257.5h-7.79l-.55,0,.55,0,1.59,0,6.2.09,23.16.26,16.27.16,9.16.08,2.39,0a18.9,18.9,0,0,1,2.39.08,4.22,4.22,0,0,1,2.12.94,3,3,0,0,1,1,2.08l6.56,44,0,.2h31.15a2.1,2.1,0,0,1,1.14.19,1.58,1.58,0,0,1,0,2.77,2.09,2.09,0,0,1-1.14.2h-2.61l-97.06.06.19.16c-2.44-16.46-4.42-29.84-5.8-39.13l-.93-6.16a11.79,11.79,0,0,1-.25-2.46,4,4,0,0,1,3-3.45A7.94,7.94,0,0,1,277.67,257.51Z" style="fill:#263238"></path><path d="M314.46,282.63a3.81,3.81,0,1,1-3.8-3.81A3.81,3.81,0,0,1,314.46,282.63Z" style="fill:#fff"></path><path d="M346.82,308.47c-.09,0-2-11.28-4.33-25.21s-4.09-25.24-4-25.26,2,11.27,4.33,25.21S346.9,308.45,346.82,308.47Z" style="fill:#263238"></path></g></svg>