<svg xmlns="http://www.w3.org/2000/svg" viewBox="0 0 750 500"><g id="freepik--background-complete--inject-409"><path d="M242.62,69a15.16,15.16,0,0,0-5.71,2.75A7.62,7.62,0,0,1,235,72.86L227.6,42.54a4.15,4.15,0,0,0-5-3L191,47.23l.88,3.58a6.7,6.7,0,0,0,1.06,2.3,13.44,13.44,0,0,1,2.2,4.75,13.79,13.79,0,1,1-26.92.61,6.81,6.81,0,0,0,0-3L167.6,53l-32,7.74a5.11,5.11,0,0,0-3.75,6.18L138.74,95l-2.18.54-.76.16A16.81,16.81,0,1,0,141,123.45a6.55,6.55,0,0,1,1.28-.47l2.8-.68,7.7,31.38a5.11,5.11,0,0,0,6.18,3.74L246.25,136a4.16,4.16,0,0,0,3.05-5L241.46,99a7.66,7.66,0,0,1,1.71.19,15.3,15.3,0,0,0,9.36-1A15.51,15.51,0,0,0,242.62,69Z" style="fill:#ebebeb"></path><path d="M631.28,236.62a9.53,9.53,0,0,0,3.9.9,5.05,5.05,0,0,1,1.34.2l-8.28,17.84a2.63,2.63,0,0,0,1.27,3.49l18.57,8.62,1-2.11a3.93,3.93,0,0,0,.38-1.54,8.69,8.69,0,0,1,12.66-7.27,8.76,8.76,0,0,1,4.15,10.82,8.55,8.55,0,0,1-2.53,3.55,4.29,4.29,0,0,0-1.16,1.48l-.68,1.48,18.78,8.79a3.22,3.22,0,0,0,4.28-1.56l7.7-16.54,1.28.6a3.61,3.61,0,0,1,.44.22,10.59,10.59,0,1,0,8.37-15.7,4.14,4.14,0,0,1-.82-.27l-1.64-.77,8.58-18.47a3.24,3.24,0,0,0-1.57-4.28L655.9,202.24a2.63,2.63,0,0,0-3.49,1.27l-8.73,18.81a5.1,5.1,0,0,1-.77-.77,9.61,9.61,0,0,0-5-3.22,9.77,9.77,0,0,0-6.66,18.29Z" style="fill:#ebebeb"></path><path d="M662.7,436.43a7.43,7.43,0,0,0,1.88-2.51,3.81,3.81,0,0,1,.57-.9l10.16,11.6a2,2,0,0,0,2.9.19l12.08-10.56-1.2-1.37a3.35,3.35,0,0,0-1-.77A6.81,6.81,0,1,1,696,421.2a6.72,6.72,0,0,1,1.74,2.93,3.35,3.35,0,0,0,.7,1.3l.84,1,12.26-10.67a2.52,2.52,0,0,0,.24-3.56l-9.41-10.77.84-.73.29-.24a8.3,8.3,0,1,0-6.21-14.52,8.18,8.18,0,0,0-2.38,3.54,3.07,3.07,0,0,1-.46.49l-1.07.94-10.51-12a2.54,2.54,0,0,0-3.57-.24l-33.41,29.25a2.06,2.06,0,0,0-.19,2.9L656.39,423a4.28,4.28,0,0,1-.8.31,7.53,7.53,0,0,0-3.89,2.54,7.66,7.66,0,0,0,11,10.58Z" style="fill:#f5f5f5"></path><path d="M543.6,90.64a12.12,12.12,0,0,0-5-.31,6.06,6.06,0,0,1-1.7,0l6.58-23.71a3.28,3.28,0,0,0-2.29-4l-24.67-6.85-.78,2.8a5.14,5.14,0,0,0-.15,2,10.87,10.87,0,1,1-19.07-5.85,5.34,5.34,0,0,0,1.13-2.06l.54-2-25-7a4,4,0,0,0-5,2.8l-6.13,22-1.7-.47-.58-.19a13.26,13.26,0,1,0-7.12,21.08,5.57,5.57,0,0,1,1.06.17l2.19.61-6.81,24.55a4,4,0,0,0,2.8,5l68.27,18.95a3.28,3.28,0,0,0,4-2.28l6.94-25a6.87,6.87,0,0,1,1.1.78,11.93,11.93,0,0,0,6.8,3,12.22,12.22,0,0,0,4.47-23.93Z" style="fill:#f5f5f5"></path><path d="M32.79,346a11.19,11.19,0,0,0,4.64.69,6.13,6.13,0,0,1,1.6.11L31,368.48a3.1,3.1,0,0,0,1.81,4l22.54,8.39.95-2.56a4.86,4.86,0,0,0,.3-1.85,10.22,10.22,0,1,1,17.38,7,4.94,4.94,0,0,0-1.22,1.84l-.67,1.79,22.8,8.58a3.79,3.79,0,0,0,4.87-2.22l7.5-20.08,1.56.58c.18.06.35.13.53.21A12.44,12.44,0,1,0,117.67,355a4.84,4.84,0,0,1-1-.24l-2-.75L123,331.58a3.78,3.78,0,0,0-2.22-4.86L58.45,303.49a3.09,3.09,0,0,0-4,1.81L46,328.13a6.36,6.36,0,0,1-1-.83A11.23,11.23,0,0,0,38.9,324a11.48,11.48,0,0,0-6.11,22Z" style="fill:#f5f5f5"></path></g><g id="freepik--Puzzle--inject-409"><path d="M358.79,297.56c5.56-.38,10.38,1.12,15,3.29a16.75,16.75,0,0,0,6.82,1.67l6.09-.13.08-67.71a11.61,11.61,0,0,0-11.65-11.58l-64.37.24V222a18,18,0,0,1,1.89-7.83,35.62,35.62,0,0,0,3.06-21.74,36.19,36.19,0,0,0-71.81,6.19A35.43,35.43,0,0,0,247,213a17.85,17.85,0,0,1,1.61,7.25l.38,3.05H171.42a11.61,11.61,0,0,0-11.65,11.57v66.21h-5.53a16.88,16.88,0,0,1-7.4-1.79,35,35,0,0,0-21-2.89,34.25,34.25,0,0,0,5.86,67.95,33.63,33.63,0,0,0,13.69-2.91,17,17,0,0,1,6.86-1.52h7.1l.14,81a9.46,9.46,0,0,0,9.49,9.43H376.63c5.24,0,9.35-6.58,9.35-11.79V365h-8.4a15.11,15.11,0,0,0-5.67,1.11,31.43,31.43,0,0,1-43.14-30.27C329.4,320.09,343,298.66,358.79,297.56Z" style="fill:#e0e0e0"></path><path d="M358.79,297.56l-.55.07a15.46,15.46,0,0,0-1.63.25,22.37,22.37,0,0,0-6.09,2.16c-5.07,2.59-11.71,8.49-16.72,18.35A43.78,43.78,0,0,0,328.88,336a32.44,32.44,0,0,0,1.43,10.41,30.92,30.92,0,0,0,5.33,10.05,31.2,31.2,0,0,0,21.87,11.65,30.6,30.6,0,0,0,13.74-1.89,16.43,16.43,0,0,1,7.2-1.36h7.69V365c0,11.64,0,24,0,37.07q0,9.79,0,20.1v15.72a14.48,14.48,0,0,1-.18,2.7,14.09,14.09,0,0,1-.74,2.61,13.73,13.73,0,0,1-2.89,4.63,8.53,8.53,0,0,1-4.81,2.69c-1,.1-1.86.06-2.79.07H295.05l-105.93,0h-14c-2.35,0-4.67.05-7.08-.05a9.76,9.76,0,0,1-8.76-10c0-2.38,0-4.77,0-7.16q0-7.18,0-14.44,0-29-.11-59.05l.26.26H155a43.28,43.28,0,0,0-4.42.1,16.76,16.76,0,0,0-4.27,1.09,44.41,44.41,0,0,1-4.22,1.63,34,34,0,0,1-34.33-8.34,34.59,34.59,0,0,1-5.75-7.47,33.57,33.57,0,0,1-2-4.29c-.28-.74-.61-1.46-.83-2.22l-.63-2.3a34.47,34.47,0,0,1,17.7-39A34.5,34.5,0,0,1,127,296a35.57,35.57,0,0,1,11.28.26,36,36,0,0,1,5.43,1.47c.89.32,1.76.67,2.61,1.07a25.54,25.54,0,0,0,2.54,1.09c3.45,1.36,7.22.87,10.9,1l-.26.26q0-21.48,0-42.41V238a32.21,32.21,0,0,1,.21-5.18,11.48,11.48,0,0,1,2.05-4.77,11.84,11.84,0,0,1,8.81-4.87l78.4,0-.23.26c-.13-1-.26-2-.38-3h0v0a17.26,17.26,0,0,0-.93-5.47c-.29-.88-.68-1.71-1-2.59s-.68-1.75-1-2.64a36,36,0,0,1-1.73-11l.15-2.76c0-.46,0-.93.1-1.38l.22-1.37c.17-.9.25-1.82.49-2.7l.74-2.65a7.55,7.55,0,0,1,.44-1.29l.5-1.27a17.33,17.33,0,0,1,1.11-2.49l1.26-2.41L250.2,178a35.17,35.17,0,0,1,7.34-7.76l1-.84,1.11-.73c.75-.48,1.47-1,2.23-1.43a39.55,39.55,0,0,1,4.75-2.25,36.24,36.24,0,0,1,10.09-2.41,34,34,0,0,1,5.14-.08c.85.05,1.7.07,2.55.16l2.51.38a36.72,36.72,0,0,1,17.66,8.83,35.92,35.92,0,0,1,11,34.48,37.89,37.89,0,0,1-3,8.48,18.19,18.19,0,0,0-1.31,4.17,21.59,21.59,0,0,0-.27,4.33l-.19-.19,49-.16,11.13,0h2.72c.9,0,1.79,0,2.7.05a11.94,11.94,0,0,1,5,1.7,11.65,11.65,0,0,1,5.49,8.35,45.75,45.75,0,0,1,.12,4.95c0,1.62,0,3.22,0,4.8-.05,25.31-.09,45.43-.12,59.59v.07h-.08c-2.45,0-4.73.15-6.87.1a17.12,17.12,0,0,1-5.7-1.49,37.41,37.41,0,0,0-8.41-3,25.43,25.43,0,0,0-5.23-.56c-.59,0-1,0-1.3,0h-.43a15.72,15.72,0,0,1,1.73-.07,24.92,24.92,0,0,1,5.25.52,37.55,37.55,0,0,1,8.44,3,17.43,17.43,0,0,0,5.66,1.46c2.12,0,4.41-.08,6.86-.12l-.07.08V238a44.78,44.78,0,0,0-.12-4.91,11.39,11.39,0,0,0-5.36-8.14,11.54,11.54,0,0,0-4.9-1.64c-.88-.07-1.77-.06-2.67-.05H370.9l-11.14,0-49,.2h-.18v-.18a21,21,0,0,1,.27-4.4,19.49,19.49,0,0,1,1.33-4.26,36.73,36.73,0,0,0,3-8.4,35.57,35.57,0,0,0-10.88-34.09,36.28,36.28,0,0,0-17.47-8.72l-2.48-.37c-.84-.09-1.68-.11-2.53-.16a33.06,33.06,0,0,0-5.07.08,35.6,35.6,0,0,0-10,2.39,38,38,0,0,0-4.7,2.22c-.75.45-1.46,1-2.2,1.42l-1.09.72-1,.83a35,35,0,0,0-7.24,7.67l-1.47,2.22-1.25,2.38a18,18,0,0,0-1.09,2.46l-.49,1.25a7.45,7.45,0,0,0-.44,1.28l-.72,2.61c-.24.87-.32,1.78-.49,2.67l-.22,1.35c-.06.45-.06.91-.09,1.36l-.15,2.73a35.31,35.31,0,0,0,1.71,10.86c.29.88.61,1.76,1,2.62s.76,1.71,1.06,2.61a17.55,17.55,0,0,1,1,5.62v0c.13,1,.25,2,.39,3.05l0,.26H249l-78.37.06a11.34,11.34,0,0,0-8.44,4.67,11,11,0,0,0-2,4.56A32.94,32.94,0,0,0,160,238q0,10.31,0,20.76v42.67h-5.8a16.63,16.63,0,0,1-5.54-1c-.88-.3-1.75-.73-2.58-1.11s-1.69-.73-2.56-1a33.93,33.93,0,0,0-5.36-1.45,35.08,35.08,0,0,0-11.11-.26A33.9,33.9,0,0,0,99,338.3l.61,2.26c.22.75.55,1.46.82,2.19a32.56,32.56,0,0,0,2,4.22A34.14,34.14,0,0,0,124,363.2a33.45,33.45,0,0,0,17.9-.65,43.62,43.62,0,0,0,4.19-1.62,17.8,17.8,0,0,1,4.4-1.13c1.52-.17,3-.08,4.48-.1h4.69V360q0,30,.1,59.05,0,7.26,0,14.44,0,3.58,0,7.16a9.24,9.24,0,0,0,8.31,9.46c2.31.09,4.7,0,7,.05h14l105.93,0h79.71a24.61,24.61,0,0,0,2.73-.06,8.08,8.08,0,0,0,4.58-2.56,13.38,13.38,0,0,0,2.81-4.5,14.16,14.16,0,0,0,.73-2.54,14.36,14.36,0,0,0,.17-2.63c0-1.78,0-3.54,0-5.3V422.15q0-10.29,0-20.1c0-13.05,0-25.43,0-37.07l.16.16h-7.53a16,16,0,0,0-7.1,1.33,31.16,31.16,0,0,1-13.87,1.89,31.42,31.42,0,0,1-22-11.78,31,31,0,0,1-5.36-10.14A32.33,32.33,0,0,1,328.67,336a44,44,0,0,1,5-17.65c5-9.87,11.73-15.78,16.83-18.34a22.18,22.18,0,0,1,6.12-2.14,14.4,14.4,0,0,1,1.63-.22Z" style="fill:#263238"></path><path d="M630.76,300.33a34.63,34.63,0,0,0-14.14,3,18.23,18.23,0,0,1-4.73,1.39V233.55a9.47,9.47,0,0,0-9.48-9.48H528.35v8.4a15.26,15.26,0,0,0,1.11,5.66,31.06,31.06,0,0,1,2.29,11.72,31.45,31.45,0,1,1-59.95-13.27,15.52,15.52,0,0,0,1.54-6.62v-5.89l-75-.24a11.65,11.65,0,0,0-11.65,11.65l-.07,66h-5.12c-.58,0-1.17,0-1.75-.06a38.32,38.32,0,1,0-3.55,64.25,14.58,14.58,0,0,1,3.1-.34h6.57V439a11.65,11.65,0,0,0,11.65,11.65H602.41a9.48,9.48,0,0,0,9.48-9.49v-75a18.67,18.67,0,0,1,3.68,1.35,34.72,34.72,0,0,0,21.24,3,35.36,35.36,0,0,0-6-70.16Z" style="fill:#f5f5f5"></path><path d="M630.76,300.33l2.23.1a18.39,18.39,0,0,1,2.74.26l1.75.29a12.33,12.33,0,0,1,2,.45l2.22.61c.77.26,1.56.6,2.4.92.41.17.85.32,1.28.51l1.28.67a23.35,23.35,0,0,1,2.68,1.5,35.35,35.35,0,0,1,16.52,27.67c0,.86.12,1.72.12,2.6s-.09,1.75-.14,2.65c0,.44,0,.9-.1,1.34s-.13.9-.2,1.35l-.21,1.37c-.11.44-.21.9-.32,1.35a35.84,35.84,0,0,1-12.87,19.92,35.86,35.86,0,0,1-11.91,6c-1.1.34-2.25.51-3.39.78s-2.33.35-3.51.42a34.21,34.21,0,0,1-7.21-.21,34.64,34.64,0,0,1-7.21-1.76c-2.4-.81-4.57-2.21-7.06-2.77l.2-.16q0,17.28,0,36.64,0,9.66,0,19.82c0,3.38,0,6.81,0,10.27v7.85c0,.44,0,.9-.05,1.34a10.12,10.12,0,0,1-.22,1.34,9.72,9.72,0,0,1-7.44,7.23,13.42,13.42,0,0,1-2.75.21H523.25l-104,0H398.6a16.63,16.63,0,0,1-3.51-.24,12.81,12.81,0,0,1-3.33-1.22,12.08,12.08,0,0,1-4.89-5.07,11.44,11.44,0,0,1-1.11-3.39,21.23,21.23,0,0,1-.18-3.55V365.34l.26.25H381.1c-.81,0-1.65,0-2.45,0a15.4,15.4,0,0,0-2.43.32l.07,0a38.5,38.5,0,0,1-15.59,4.93,38.54,38.54,0,0,1-40-25.88,39.75,39.75,0,0,1-2.11-12.21,41.3,41.3,0,0,1,1.86-12.2A38.39,38.39,0,0,1,326,309.63a41.93,41.93,0,0,1,4-4.66l2.27-2.06c.76-.67,1.62-1.24,2.42-1.86a40.07,40.07,0,0,1,10.83-5.45,42.45,42.45,0,0,1,11.93-1.78,38.4,38.4,0,0,1,22.41,7.4l-.13-.05c2.26.11,4.57,0,6.85.06l-.26.25q0-21.15.05-41.74,0-10.31,0-20.44v-2.53c0-.84,0-1.69.07-2.55a11.92,11.92,0,0,1,9.81-10.45,32.47,32.47,0,0,1,5-.18l4.95,0,9.86,0,19.44.07,37.79.12h.23v5.52a15.81,15.81,0,0,1-.74,5.25,20.91,20.91,0,0,1-1,2.45c-.36.78-.67,1.58-1,2.39A31.2,31.2,0,0,0,478.43,272a32.33,32.33,0,0,0,7.91,5.68,30.77,30.77,0,0,0,18.58,3,31.24,31.24,0,0,0,16.48-7.87,30.61,30.61,0,0,0,5.69-7,29.65,29.65,0,0,0,3.42-8.17,30.71,30.71,0,0,0-.37-17.09c-.38-1.36-1-2.63-1.41-4a15.5,15.5,0,0,1-.57-4.22v-8.49h.19l54.2,0h18.06a28,28,0,0,1,2.89.07,10.12,10.12,0,0,1,2.78.75,9.67,9.67,0,0,1,5.75,8.88c0,3.57,0,7,0,10.43,0,27,0,47.57-.06,60.68l-.08-.07c3.34-.43,5.85-2.05,8.22-2.7a34.93,34.93,0,0,1,5.93-1.34,35.6,35.6,0,0,1,3.56-.28c.79,0,1.17,0,1.17,0l-1.17,0a35.36,35.36,0,0,0-9.46,1.68c-2.35.65-4.86,2.29-8.23,2.74h-.07v-.07c0-13.11,0-33.66-.07-60.68q0-5.07,0-10.43a9.37,9.37,0,0,0-5.58-8.61,9.64,9.64,0,0,0-2.7-.73c-.93-.09-1.9-.06-2.86-.06H582.55l-54.2,0,.19-.18v8.3a14.78,14.78,0,0,0,.56,4.12c.37,1.33,1,2.62,1.41,4a31.12,31.12,0,0,1,.39,17.31,30.06,30.06,0,0,1-3.46,8.27,30.78,30.78,0,0,1-5.76,7.08,31.6,31.6,0,0,1-16.7,8,31.17,31.17,0,0,1-18.84-3.05,32.77,32.77,0,0,1-8-5.76,31.83,31.83,0,0,1-5.95-8.06,31.22,31.22,0,0,1-1.73-25c.3-.82.62-1.64,1-2.43a20.42,20.42,0,0,0,1-2.4,15.46,15.46,0,0,0,.72-5.11v-5.28l.23.23-37.79-.11-19.44-.06-9.86,0H401.3a32.21,32.21,0,0,0-4.93.16,11.43,11.43,0,0,0-9.39,10c-.07.81-.08,1.65-.07,2.5v2.53q0,10.14,0,20.44,0,20.58,0,41.75v.25h-.26c-2.29,0-4.55.06-6.89-.06h-.07l-.07-.05a38,38,0,0,0-22.1-7.3,42.42,42.42,0,0,0-11.77,1.76A39.33,39.33,0,0,0,335,301.47c-.79.62-1.63,1.17-2.39,1.84l-2.23,2a40.87,40.87,0,0,0-3.92,4.6,38,38,0,0,0-5.54,10.76,41.13,41.13,0,0,0-1.83,12,38.26,38.26,0,0,0,11,26.48,38.37,38.37,0,0,0,30.53,11.1A38,38,0,0,0,376,365.45l0,0h0a15.27,15.27,0,0,1,2.51-.33c.86,0,1.66,0,2.48,0h5v72.35a19,19,0,0,0,.17,3.47,10.69,10.69,0,0,0,1.06,3.25A11.58,11.58,0,0,0,392,449a12.61,12.61,0,0,0,3.19,1.17,16.76,16.76,0,0,0,3.41.24h20.66l104,0h78.38a13.13,13.13,0,0,0,2.67-.19,9.3,9.3,0,0,0,7.13-6.94,10.57,10.57,0,0,0,.27-2.58V422.62q0-10.15,0-19.82,0-19.33,0-36.64V366l.2,0c2.56.59,4.73,2,7.08,2.79a34.9,34.9,0,0,0,7.15,1.76,34.32,34.32,0,0,0,7.15.21c1.17-.07,2.33-.23,3.48-.41s2.27-.44,3.36-.77a35.23,35.23,0,0,0,24.63-25.66c.11-.45.22-.9.32-1.35l.21-1.35.21-1.34c.07-.45.06-.9.09-1.34q.07-1.34.15-2.64c0-.86-.08-1.72-.11-2.58a35.3,35.3,0,0,0-16.38-27.57,22.43,22.43,0,0,0-2.67-1.5l-1.27-.67c-.43-.19-.86-.35-1.28-.52-.83-.32-1.62-.66-2.38-.92l-2.22-.62a12.26,12.26,0,0,0-2-.47l-1.75-.29a17.36,17.36,0,0,0-2.74-.28Z" style="fill:#263238"></path></g><g id="freepik--Characters--inject-409"><path d="M381,313.46s3.37-1.73,6.34-1.08,13.75,7.68,13.75,7.68l8.69-1.62L414.94,343,381,357.06Z" style="fill:#ae7461"></path><path d="M356,322s7.77-1,10.58-2.39,9.52-7.36,10.92-7.25,6.5,1.08,6.5,1.08l-2.06,6.17s10.17,6.17,13.2,8.44,12.55,12.44,13,14.93-.32,5.41-1.51,6.38-5.52-1-5.52-1a5.38,5.38,0,0,1-1,4.43c-1.62,2.17-5.4,1.41-5.4,1.41s-.33,3.57-2.06,4.22-5.63-1.3-5.63-1.3-1.17,3-2.58,3.35-5.42-2-5.42-2-17.31-12.44-21.2-14.28-5.09-1.95-5.09-1.95Z" style="fill:#ffbe9d"></path><path d="M387,357.17c-.07,0-.12-.3-.3-.76a12.89,12.89,0,0,0-.88-1.73,10.6,10.6,0,0,1-1.33-2.46,6.18,6.18,0,0,1,1.79,2.2,6.77,6.77,0,0,1,.77,1.89C387.14,356.84,387.06,357.18,387,357.17Z" style="fill:#eb996e"></path><path d="M394.19,355.07A28,28,0,0,1,392,351.8c-1.18-1.8-2.45-3-2.36-3.12a7.66,7.66,0,0,1,2.8,2.83A10.67,10.67,0,0,1,394.19,355.07Z" style="fill:#eb996e"></path><path d="M401.13,348.82c-.15,0-.63-1.83-1.83-3.85s-2.57-3.37-2.46-3.48a10.63,10.63,0,0,1,4.29,7.33Z" style="fill:#eb996e"></path><path d="M396.06,335.32a9.71,9.71,0,0,1,.26,5.84,12.71,12.71,0,0,1-.2-2.92A13.45,13.45,0,0,1,396.06,335.32Z" style="fill:#eb996e"></path><path d="M370.88,325.58s2.7-8.65,3.67-9.74,10-3.46,10-3.46l2.81,7.25-2,2.12-4.33-.28S378.34,328.61,370.88,325.58Z" style="fill:#ae7461"></path><path d="M354.28,342.7s-1.24.95,0,3.22,4.59.65,5.67,0c0,0-1.62,3.79.43,5a8.08,8.08,0,0,0,4.55.86s-.11,2.27,2.81,3.79,3.68,0,3.68,0,.32,3.78,3.67,4.11,4.54-.83,4.54-.83l-1.51-2.24s1.95-4,.44-5.69a5.22,5.22,0,0,0-4-1.52s.67-3.51-1.26-4.49a3.55,3.55,0,0,0-5.12,1.57s-.22-3.85-3-3.76a6.26,6.26,0,0,0-4.33,1.81Z" style="fill:#ae7461"></path><path d="M368.17,346.46a8.23,8.23,0,0,1-1.29,2.89,8.37,8.37,0,0,1-1.89,2.52,11.37,11.37,0,0,1,1.44-2.79A11.59,11.59,0,0,1,368.17,346.46Z" style="fill:#6f4439"></path><path d="M374.62,349.87a7.58,7.58,0,0,1-1.47,3,7.75,7.75,0,0,1-2.26,2.46,126.8,126.8,0,0,1,3.73-5.45Z" style="fill:#6f4439"></path><path d="M307.61,390.69H291.2L287,450.37h16.46c2.8-9.09,9.8-56.45,9.8-56.45Z" style="fill:#263238"></path><path d="M214.68,390.69s-10.51,24.63-9.46,34.6,6.95,25.08,6.95,25.08h81.28a188.24,188.24,0,0,0,4-20.64c1.76-12.32,6.48-39,6.48-39Z" style="fill:#263238"></path><path d="M322.08,153c-2.75-3.47-6.14-6.8-6.84-11.17-.65-4,1.11-8.4-.69-12-2.22-4.49-8.58-5.36-11.34-9.53-1.33-2-1.65-4.58-3-6.61-2.24-3.46-6.86-4.57-11-4.34S281.13,110.86,277,111c-5.66.12-11.39-2-16.88-.65-6.06,1.49-10,6.6-14.11,11.53l-5.36,5.69a22,22,0,0,1-3.51,2.58c-2.2,1.27-4.68,2.1-6.6,3.77-4.11,3.57-4.13,10.82,0,14.41a10.69,10.69,0,0,0-7.7,10.12c0,2.51,1,4.91,1.58,7.34s1,5.12-.15,7.37-4.13,3.68-6.26,2.35a11.28,11.28,0,0,0,5.76,7.78,6.71,6.71,0,0,1-4.61,1.78c4.06,11,16.23,17.21,27.9,17.83s23.06-3.28,34.1-7.12l31.83-6.67c2.79-.5,4.1-3.8,4.19-6.64s-.48-5.81.66-8.41c1.55-3.56,5.86-5.28,7.48-8.82C327.12,161.18,324.82,156.49,322.08,153Z" style="fill:#263238"></path><path d="M246.34,178.17c-1.94-7.21-3.85-14.47-4.52-21.91s0-15.12,2.9-22c.45-1,4.18-8,5.3-7.81.8.12-1.61,6.65-1.24,7.37,3.54,6.86,4.18,14.93,3.16,22.59a101,101,0,0,1-5.6,21.74" style="fill:#263238"></path><path d="M247.07,149.68c.35-18.73,11.55-34.13,30.26-33.25l1.72.18a33.48,33.48,0,0,1,30,34.11c-.4,16.23-1,34.16-2.06,42.78-2.11,17.85-20.28,18.75-20.28,18.75s-.49,29.48-.49,29.48l-42.54-29.47Z" style="fill:#ffbe9d"></path><path d="M286.68,212.25a43.45,43.45,0,0,1-22.54-9.33s4.19,15.1,22.19,15.37Z" style="fill:#eb996e"></path><path d="M302.83,164.58a2.57,2.57,0,0,1-2.74,2.31,2.44,2.44,0,0,1-2.38-2.58,2.57,2.57,0,0,1,2.73-2.32A2.47,2.47,0,0,1,302.83,164.58Z" style="fill:#263238"></path><path d="M304.42,157.74c-.35.3-2.13-1.34-4.88-1.62s-4.91.88-5.17.51c-.13-.16.26-.73,1.2-1.28a7.14,7.14,0,0,1,4.18-.82,6.71,6.71,0,0,1,3.84,1.71C304.37,157,304.59,157.61,304.42,157.74Z" style="fill:#263238"></path><path d="M278,164.58a2.56,2.56,0,0,1-2.73,2.31,2.45,2.45,0,0,1-2.39-2.58,2.57,2.57,0,0,1,2.73-2.32A2.47,2.47,0,0,1,278,164.58Z" style="fill:#263238"></path><path d="M277.4,156c-.35.3-2.14-1.33-4.89-1.61s-4.9.88-5.16.51c-.13-.17.25-.73,1.2-1.28a7.06,7.06,0,0,1,4.18-.82,6.77,6.77,0,0,1,3.84,1.7C277.34,155.25,277.57,155.88,277.4,156Z" style="fill:#263238"></path><path d="M285,178.16c0-.16,1.74-.27,4.54-.34.71,0,1.39-.06,1.56-.53a3.62,3.62,0,0,0-.25-2.13q-.72-2.66-1.51-5.56c-2.08-7.91-3.51-14.38-3.19-14.46s2.27,6.26,4.34,14.17q.75,2.92,1.42,5.58a4,4,0,0,1,.08,2.79,1.77,1.77,0,0,1-1.26.91,4.6,4.6,0,0,1-1.21,0C286.75,178.49,285,178.32,285,178.16Z" style="fill:#263238"></path><path d="M276.74,179.21c.45,0,.14,3,2.47,5.38s5.54,2.4,5.52,2.82c0,.19-.77.5-2.12.4a7.51,7.51,0,0,1-4.62-2.18,6.54,6.54,0,0,1-1.88-4.5C276.13,179.87,276.54,179.17,276.74,179.21Z" style="fill:#263238"></path><path d="M278.42,144.85c-.35.72-3.05.08-6.32.13s-6,.65-6.32-.07c-.15-.34.37-1,1.5-1.6a11,11,0,0,1,9.63-.05C278,143.86,278.58,144.51,278.42,144.85Z" style="fill:#263238"></path><path d="M304.25,148.49c-.55.57-2.38-.28-4.65-.55s-4.24,0-4.62-.72c-.16-.34.21-.93,1.11-1.43a6.8,6.8,0,0,1,7.47,1C304.3,147.54,304.49,148.21,304.25,148.49Z" style="fill:#263238"></path><path d="M247.13,163.07c-.29-.16-11.9-4.93-12.8,7.33S245.93,181,246,180.69,247.13,163.07,247.13,163.07Z" style="fill:#ffbe9d"></path><path d="M242.57,175.77c0-.05-.22.13-.59.27a2.16,2.16,0,0,1-1.6-.09c-1.26-.56-2.2-2.7-2.1-4.92a7.07,7.07,0,0,1,.82-3,2.48,2.48,0,0,1,1.73-1.52,1.08,1.08,0,0,1,1.21.68c.14.35.05.59.11.62s.28-.19.22-.7a1.38,1.38,0,0,0-.43-.81,1.64,1.64,0,0,0-1.16-.4,3,3,0,0,0-2.37,1.74,7.43,7.43,0,0,0-1,3.36c-.1,2.48,1,4.89,2.73,5.53a2.3,2.3,0,0,0,2-.18C242.53,176.06,242.61,175.79,242.57,175.77Z" style="fill:#eb996e"></path><path d="M302.39,129.89c2.06-1-3.49-7.78-8.22-10.31-7.16-3.82-18.29-6.6-25.21-5.11-8.34,1.79-15.4,5.43-20,12.61s-6.69,15.77-7,24.29c-.1,2.6,0,5.32,1.24,7.61,1.54,2.82,4.72,4.74,4.33,8.47a5.17,5.17,0,0,0,1,3.83c2.09,2.53,5,.46,6.39-1.7,3-4.64,3.67-10.35,4.26-15.84.42-3.9.84-7.89,0-11.72-.47-2.08-1.31-4.08-1.66-6.18a7.4,7.4,0,0,1,1.26-6.07,7.71,7.71,0,0,1,1.06-1,12.83,12.83,0,0,1,12.85-1.6c6.75,2.89,18.31,7.3,21.55,5.16,4.65-3.09,5.85-5.22,5.85-5.22Z" style="fill:#263238"></path><path d="M269.7,112.84c6.89-1.82,14.56-1.21,20.66,2.47,3.23,2,6.08,4.93,6.87,8.63s-1.05,8.06-4.64,9.26l-.25.14c-5.35,1.42-8.7.5-13.8-1.64-4.3-1.8-8-4.76-12.33-6.55a25,25,0,0,0-14.57-1.36C256.68,118.75,262.82,114.66,269.7,112.84Z" style="fill:#263238"></path><path d="M272.81,110.71a5.3,5.3,0,0,1,1.25.13,19.2,19.2,0,0,1,3.3.89,21.22,21.22,0,0,1,4.52,2.33,17.89,17.89,0,0,1,4.5,4.31,16.73,16.73,0,0,1,2.47,5.72,29.38,29.38,0,0,1,.76,5c.1,1.44.1,2.61.09,3.41a5.91,5.91,0,0,1-.09,1.25,5.69,5.69,0,0,1-.11-1.25c-.05-.8-.11-2-.26-3.38a33.62,33.62,0,0,0-.85-4.93,17,17,0,0,0-2.44-5.54,17.63,17.63,0,0,0-4.35-4.21,21.87,21.87,0,0,0-4.38-2.38A45,45,0,0,0,272.81,110.71Z" style="fill:#455a64"></path><path d="M284.1,110a4.8,4.8,0,0,1,1.06.29,9.22,9.22,0,0,1,1.21.46l1.53.77a15.86,15.86,0,0,1,6.36,7.48,18.58,18.58,0,0,1,.9,2.7,18.12,18.12,0,0,1,.4,2.62,17.63,17.63,0,0,1,.05,2.39,16.74,16.74,0,0,1-.28,2.07,11.19,11.19,0,0,1-.46,1.66,7.42,7.42,0,0,1-.49,1.19,4.58,4.58,0,0,1-.57,1,21.91,21.91,0,0,0,1.16-3.87,19.05,19.05,0,0,0,.21-2,21,21,0,0,0-.09-2.33,20.35,20.35,0,0,0-.42-2.54,21.17,21.17,0,0,0-.89-2.61,16.25,16.25,0,0,0-6.07-7.37l-1.47-.83a10.92,10.92,0,0,0-1.16-.53A3.92,3.92,0,0,1,284.1,110Z" style="fill:#455a64"></path><path d="M292.1,238.77c0,1.69,8.43,38.73,11.66,47.83s13.45,100.34,12.1,106.84-4.84,6.24-4.84,6.24-82.58-5.2-91.46-4.42-12.64.52-14.79-9.62.06-62.83-1.82-75.57-1.9-18.91-2.63-37.83c-.63-16.41,3.1-29.56,10.9-39.06s25.07-19.09,25.07-19.09l6.13-8.94,43.34,22.93,1-5.22,2.63,8.12Z" style="fill:#455a64"></path><g style="opacity:0.30000000000000004"><path d="M310.73,351.68c-.73-1.84-3.07-2.31-5-2.52-18.37-2-37.48-6.63-50.9-19.33-5.24-5-9.38-11-13.37-17-8.72-13.18-16.91-26.7-25.1-40.22L210,275c3.91,19.08,7.75,32.89,14.1,48.53s11.29,30.82,27.39,35.94c10.41,3.31,30.18.77,41.07-.08A64.38,64.38,0,0,0,306,357.29a9,9,0,0,0,3.66-1.86A3.61,3.61,0,0,0,310.73,351.68Z"></path></g><path d="M207.73,270c.47.85,37.22,79.35,53.63,82.58s67.41,4,77.36,2.09,19.69-3.63,19.69-3.63,7.21-17.12.63-31.7l-13.7.43s-38.09-2.06-43.47-3.53-10-6.51-14.87-6.24l-29-67.43s-18.83-17.49-32.28-12.11S203.78,263,207.73,270Z" style="fill:#455a64"></path><path d="M346.4,353.78a5.94,5.94,0,0,1,.27-1.32c.22-.84.49-2.06.77-3.57s.55-3.33.73-5.36a56.91,56.91,0,0,0,.14-6.62,54.17,54.17,0,0,0-1.86-11.86c-.41-1.49-.78-2.68-1.07-3.5a7.89,7.89,0,0,1-.38-1.29,6.57,6.57,0,0,1,.57,1.22,35.54,35.54,0,0,1,1.23,3.46,48.28,48.28,0,0,1,2,11.95,53.37,53.37,0,0,1-.18,6.68,46.51,46.51,0,0,1-.85,5.39,33.7,33.7,0,0,1-.94,3.55A7.73,7.73,0,0,1,346.4,353.78Z" style="fill:#263238"></path><path d="M258,242.59s.19.4.55,1.19l1.54,3.52L266,260.8c5.06,11.71,12.33,28.56,21.21,49.13l-.2-.12a12.53,12.53,0,0,1,6.43,2c2,1.1,3.93,2.38,6.05,3.35a20.25,20.25,0,0,0,6.9,1.6c2.41.29,4.87.5,7.37.72,10,.82,20.59,1.48,31.62,2.09h0l13.7-.44h.17l.07.15A35.27,35.27,0,0,1,362,335a51.43,51.43,0,0,1-3.36,16.19l0,.13-.14,0-8.71,1.61-9.54,1.76a64.31,64.31,0,0,1-9.54,1c-6.34.28-12.58.31-18.72.28s-12.16-.18-18.06-.4-11.66-.51-17.29-.94c-2.81-.2-5.58-.47-8.32-.77a58.53,58.53,0,0,1-8-1.34,14.17,14.17,0,0,1-3.49-2,30.75,30.75,0,0,1-3-2.6,63.37,63.37,0,0,1-5.09-5.74,211.48,211.48,0,0,1-15.44-23.22c-8.61-14.72-14.83-27.05-19.1-35.57-2.12-4.27-3.73-7.6-4.81-9.87s-1.61-3.47-1.61-3.47.16.29.44.87.72,1.44,1.27,2.56l4.89,9.82c4.33,8.49,10.59,20.79,19.24,35.47A211.22,211.22,0,0,0,249,341.88a62.62,62.62,0,0,0,5.06,5.69,29.72,29.72,0,0,0,2.92,2.56,13.54,13.54,0,0,0,3.38,1.94,58.87,58.87,0,0,0,7.95,1.3c2.72.3,5.49.56,8.3.76,5.61.42,11.38.72,17.27.93s11.92.35,18,.38,12.37,0,18.69-.29a64.57,64.57,0,0,0,9.47-1l9.53-1.76,8.72-1.61-.2.16a51,51,0,0,0,3.33-16,34.87,34.87,0,0,0-2.69-15.49l.24.15-13.7.43h0c-11-.63-21.62-1.29-31.63-2.13-2.5-.22-5-.44-7.38-.73-1.22-.14-2.42-.29-3.61-.52a13.34,13.34,0,0,1-3.42-1.13c-2.16-1-4.1-2.29-6.08-3.38a12.1,12.1,0,0,0-6.2-1.93h-.14l-.06-.13c-8.81-20.61-16-37.48-21-49.2L260,247.35l-1.49-3.54C258.19,243,258,242.59,258,242.59Z" style="fill:#263238"></path><path d="M254.19,237.29s-.51-.47-1.43-1.32a27.09,27.09,0,0,0-4.2-3.17,27.45,27.45,0,0,0-7.14-3.09,25.56,25.56,0,0,0-18.54,1.86,27,27,0,0,0-6.39,4.44A26.54,26.54,0,0,0,213,240a18.29,18.29,0,0,1-1.14,1.57,2,2,0,0,1,.23-.45c.17-.28.38-.72.74-1.24a24.38,24.38,0,0,1,3.41-4.09,26.18,26.18,0,0,1,32.51-3.25,23.46,23.46,0,0,1,4.15,3.34,14.35,14.35,0,0,1,1,1.06A1.88,1.88,0,0,1,254.19,237.29Z" style="fill:#263238"></path><path d="M286.89,310.07a33.73,33.73,0,0,1-1.85,5.7,35.56,35.56,0,0,1-2.34,5.51,33.49,33.49,0,0,1,1.85-5.69A35.42,35.42,0,0,1,286.89,310.07Z" style="fill:#263238"></path><path d="M353.47,323s.14-.07.38,0a1.43,1.43,0,0,1,.73.72,1.56,1.56,0,0,1,0,1.56,1.77,1.77,0,0,1-1.73.8,1.67,1.67,0,0,1-1.31-1.4,1.59,1.59,0,0,1,.5-1.47,1.3,1.3,0,0,1,1-.32c.24,0,.36.08.35.11s-.58,0-1.08.47a1.29,1.29,0,0,0-.28,1.12,1.25,1.25,0,0,0,.92,1,1.37,1.37,0,0,0,1.26-.56,1.23,1.23,0,0,0,.09-1.14C354,323.17,353.45,323.07,353.47,323Z" style="fill:#263238"></path><path d="M286.8,230.69a6.44,6.44,0,0,1-1-.51l-2.74-1.57.2-.08c-.54,2.73-1.07,6.75-2,11.57l-.07.32-.27-.17c-4-2.54-8.86-5.44-14-8.55-3.84-2.3-7.43-4.62-10.73-6.62s-6.37-3.72-8.92-5.15l-6.07-3.38-1.65-.92a6.19,6.19,0,0,1-.56-.35,2.54,2.54,0,0,1,.61.26l1.69.84c1.47.74,3.57,1.83,6.16,3.23s5.64,3.08,9,5l10.76,6.6c5.15,3.11,10,6,14,8.61l-.34.14c.95-4.78,1.54-8.81,2.16-11.53l0-.18.16.09,2.67,1.67A7.06,7.06,0,0,1,286.8,230.69Z" style="fill:#263238"></path><g style="opacity:0.30000000000000004"><path d="M245.11,218.51l22.62,16.86c5,3.71,10.07,7.48,16,9.37L283.38,229l-2.31,11Z"></path></g><path d="M478,139.78a8.11,8.11,0,0,1-3.74-15.7,8.44,8.44,0,0,1,7.08-14.36,10.09,10.09,0,0,1,15.06-8.56,11.36,11.36,0,0,1,14-.55,8.07,8.07,0,0,1,7.38,13.56" style="fill:#263238"></path><path d="M476.87,140.94a34.41,34.41,0,0,1,33.64-32.33l1.78,0c19.23.73,29.35,17.47,28.09,36.66l1.14,68.5h0L494.8,230.51l-.41-24.67s-18.52-2.49-19.12-21C475,176,475.87,157.58,476.87,140.94Z" style="fill:#ae7461"></path><path d="M494.24,205.82a44.77,44.77,0,0,0,24-7.57s-5.42,13.4-23.87,12.11Z" style="fill:#6f4439"></path><path d="M482.06,157.63a2.64,2.64,0,0,0,2.59,2.61,2.52,2.52,0,0,0,2.67-2.44,2.64,2.64,0,0,0-2.59-2.61A2.53,2.53,0,0,0,482.06,157.63Z" style="fill:#263238"></path><path d="M481,149.89c.33.34,2.3-1.18,5.13-1.23s4.95,1.32,5.25,1c.14-.16-.2-.77-1.12-1.41a7.26,7.26,0,0,0-4.21-1.21,7,7,0,0,0-4.08,1.41C481.14,149.11,480.86,149.74,481,149.89Z" style="fill:#263238"></path><path d="M507.9,157.63a2.63,2.63,0,0,0,2.6,2.6,2.52,2.52,0,0,0,2.67-2.43,2.65,2.65,0,0,0-2.6-2.61A2.54,2.54,0,0,0,507.9,157.63Z" style="fill:#263238"></path><path d="M508.92,149.85c.33.34,2.3-1.18,5.13-1.23s5,1.32,5.25,1c.15-.16-.2-.77-1.12-1.41A7.24,7.24,0,0,0,514,147a7,7,0,0,0-4.08,1.41C509,149.07,508.75,149.7,508.92,149.85Z" style="fill:#263238"></path><path d="M499.05,171.09c0-.16-1.76-.43-4.62-.73-.73-.06-1.42-.19-1.55-.68a3.74,3.74,0,0,1,.44-2.16c.65-1.77,1.32-3.62,2-5.56,2.82-7.91,4.84-14.41,4.52-14.52s-2.86,6.21-5.68,14.12q-1,2.92-1.94,5.59a4.19,4.19,0,0,0-.31,2.85,1.81,1.81,0,0,0,1.21,1,4.78,4.78,0,0,0,1.23.14C497.26,171.28,499,171.26,499.05,171.09Z" style="fill:#263238"></path><path d="M507.86,140.21c.39.71,2.8-.12,5.79-.27s5.52.28,5.78-.47c.11-.36-.43-1-1.52-1.55a9.07,9.07,0,0,0-4.51-.85,8.67,8.67,0,0,0-4.31,1.42C508.11,139.17,507.69,139.87,507.86,140.21Z" style="fill:#263238"></path><path d="M480.48,139.85c.61.64,2.93-.08,5.75-.17s5.21.33,5.74-.36c.24-.33-.15-1-1.21-1.55a9.68,9.68,0,0,0-9.26.42C480.52,138.88,480.21,139.55,480.48,139.85Z" style="fill:#263238"></path><path d="M478.48,132.44s4.63-11.66,10.15-14.47c6.68-3.4,9.73,3.94,16.13,2s12.77-5.19,19.44-.35c7.31,5.29,4,9.18,4.62,17.36,2.48,33.17,8.74,42.43,10.14,26.76.16-1.72,4.89-3.18,5.44-10.43.73-9.41.85-20.81-1.38-27.43-1.88-5.58-5.16-9.4-11-13.56-9.2-6.56-21.65-6.45-30.08-5.43S477.41,118,478.48,132.44Z" style="fill:#263238"></path><path d="M537.78,163.27a5,5,0,0,1,5.31-4.94c3.45.26,7.32,2.13,7.24,9.25-.15,12.63-12.8,9.88-12.82,9.52S537.67,168.55,537.78,163.27Z" style="fill:#ae7461"></path><path d="M540.32,172.38s.22.15.59.33a2.19,2.19,0,0,0,1.64,0c1.34-.47,2.49-2.58,2.57-4.85a7.16,7.16,0,0,0-.58-3.16,2.53,2.53,0,0,0-1.63-1.71,1.13,1.13,0,0,0-1.31.59c-.17.35-.09.61-.16.63s-.27-.22-.16-.74a1.4,1.4,0,0,1,.51-.78,1.6,1.6,0,0,1,1.22-.31,3.08,3.08,0,0,1,2.27,2,7.5,7.5,0,0,1,.72,3.53c-.11,2.54-1.44,4.91-3.27,5.42a2.38,2.38,0,0,1-2-.36C540.34,172.68,540.27,172.4,540.32,172.38Z" style="fill:#6f4439"></path><path d="M537,138.83a11.89,11.89,0,0,1-5.29,2.57c-2,.24-4.25-.85-4.63-2.8-.16-.88,0-1.9-.56-2.57s-2-.51-3-.38a8.05,8.05,0,0,1-8.48-5.6c-.9,1.42-3.09,1.4-4.52.52s-2.38-2.36-3.51-3.61-2.72-2.35-4.38-2.08c-.93.15-1.79.73-2.73.66-1.66-.11-2.51-2-2.79-3.67s-.52-3.56-1.94-4.42-3-.29-4.52,0-3.5-.06-3.92-1.54a3,3,0,0,1,.52-2.3,8.15,8.15,0,0,1,9.58-3.29,11.08,11.08,0,0,1,20.31-2.57,11.26,11.26,0,0,1,18.06,3.74,8.15,8.15,0,0,1,9.43,11.66c2.29,1.25,4.28,3.47,4.38,6.08s-2.39,5.26-4.93,4.63a4.51,4.51,0,0,1-7.71,4.66" style="fill:#263238"></path><path d="M496,114a.58.58,0,0,0,0,.23c0,.15,0,.38.09.67a7.87,7.87,0,0,0,1,2.41,9.05,9.05,0,0,0,2.86,2.93,8.4,8.4,0,0,0,5.2,1.37l-.22-.28a4.57,4.57,0,0,0,.32,3.48,12.82,12.82,0,0,0,2.23,3.06,9.24,9.24,0,0,0,1.44,1.42,4.33,4.33,0,0,0,2,.7,4.59,4.59,0,0,0,4-1.53l-.47-.13a9.48,9.48,0,0,0,4.15,6.47,6.89,6.89,0,0,0,4.17,1.27,12.28,12.28,0,0,0,4.06-1l-.34-.14a9.93,9.93,0,0,0,3.07,3.83A5.29,5.29,0,0,0,534,139.9a6.94,6.94,0,0,0,5.24-5.55l-.28.14a6.49,6.49,0,0,0,4.35.55,7,7,0,0,0,3-1.41,6.11,6.11,0,0,0,1.38-1.57,3.16,3.16,0,0,0,.31-.66,7.65,7.65,0,0,1-1.82,2.06,6.81,6.81,0,0,1-2.92,1.28,6.23,6.23,0,0,1-4.11-.59l-.24-.13,0,.27a6.56,6.56,0,0,1-5,5.14,4.81,4.81,0,0,1-4-1.05,9.38,9.38,0,0,1-2.88-3.64l-.1-.23-.24.09a11.78,11.78,0,0,1-3.89.93,6.32,6.32,0,0,1-3.85-1.18,9,9,0,0,1-3.92-6.09l-.09-.6-.39.47a4.11,4.11,0,0,1-3.56,1.36,3.9,3.9,0,0,1-1.78-.61,9,9,0,0,1-1.36-1.33,12.47,12.47,0,0,1-2.17-2.93,4.06,4.06,0,0,1-.34-3.14l.1-.31-.32,0a8.16,8.16,0,0,1-5-1.23,9.07,9.07,0,0,1-2.84-2.77A9.81,9.81,0,0,1,496,114Z" style="fill:#455a64"></path><path d="M508.83,172.07c-.45.05.07,3-2.1,5.59s-5.4,2.8-5.35,3.22c0,.19.81.45,2.15.25a7.55,7.55,0,0,0,4.5-2.52A6.58,6.58,0,0,0,509.6,174C509.49,172.7,509,172,508.83,172.07Z" style="fill:#263238"></path><path d="M405.71,315.68c1.6-.64,54.45-7,54.45-7l21.44-18.16-2,52.56-67.48,6.5Z" style="fill:#92E3A9"></path><path d="M472.12,298.56c-.64.32-5.94,5-5.94,5l1.62,40.47Z" style="opacity:0.30000000000000004"></path><path d="M562.16,393.73H472.9s4.72,25.19,6.47,36.79a148.61,148.61,0,0,0,4.31,19.85h80.85s6-14.63,7.09-24S562.16,393.73,562.16,393.73Z" style="fill:#263238"></path><path d="M466.25,396.77s-2.5,28.71,0,53.6h30.92V427.44Z" style="fill:#263238"></path><path d="M483.43,256,493.05,235l1.19-13s18.45-11.6,27.2-16A190.64,190.64,0,0,1,542,197.65v12.28Z" style="fill:#ebebeb"></path><path d="M563.83,363.63s5.23-70.22,5.58-75.44c0,0,3.09-37.52-3.57-51.8s-21.57-26.85-21.57-26.85l-1.38-7.5L513.78,220.4l-13.46,11.7a135,135,0,0,0-12.7,15.8c-3.82,5.29-8.07,12.09-10,20.64-.69,3.13-8.7,40.51-8.94,66.56,0,0-1.23,22.74-2.55,35.61-1.62,15.94-4.1,52.27-3.56,73.79L557,441.62c23.32-3.56,19.22-5.88,19.22-5.88Z" style="fill:#92E3A9"></path><path d="M542,209.93l-.65.3-1.93.8c-.82.4-1.82.92-3,1.53s-2.47,1.42-3.86,2.41a107.35,107.35,0,0,0-20.73,19.16l-.05.07h-.08l-9.06,1.67.2-.23c-.14,4.21-.29,8.62-.45,13.19v.1l-.08.08A125,125,0,0,0,489,263.61a57.8,57.8,0,0,0-4.56,6.89l-.5.89-.37.93a17.59,17.59,0,0,0-.69,1.88c-.4,1.28-.8,2.55-1.13,3.83-1.39,5.1-2.55,10.08-3.63,14.82-2.14,9.49-3.93,18.07-5.42,25.27-3,14.42-4.63,23.37-4.63,23.37a16.21,16.21,0,0,1,.21-1.64c.16-1.07.43-2.65.79-4.68.74-4.05,1.84-9.9,3.27-17.12s3.19-15.8,5.32-25.3c1.06-4.75,2.21-9.73,3.6-14.85.33-1.29.73-2.57,1.14-3.86a17.65,17.65,0,0,1,.69-1.92l.39-1,.5-.91a56.64,56.64,0,0,1,4.61-7A125.25,125.25,0,0,1,502,248.64l-.08.18c.16-4.57.32-9,.47-13.19v-.19l.19,0,9.06-1.64-.13.08a104.53,104.53,0,0,1,20.93-19.09c1.4-1,2.77-1.69,3.91-2.37s2.2-1.1,3-1.48l1.95-.75Z" style="fill:#263238"></path><path d="M510.3,265.42l1.14,93.69-14.27,91.26h37.61s17.1-69.29,21.08-83.85c3.86-14.14,9.66-85.31,10.17-88.8.2-1.37,4.28-26-7.73-37.55" style="fill:#92E3A9"></path><path d="M558.3,240.17s.28.26.79.78a22.2,22.2,0,0,1,2.06,2.53A31.45,31.45,0,0,1,565.84,255a64.31,64.31,0,0,1,.72,19.77c-.57,3.83-.85,7.94-1.26,12.31s-.82,9-1.26,13.83c-.9,9.7-1.91,20.33-3.13,31.73-.63,5.69-1.28,11.59-2.09,17.65a144.51,144.51,0,0,1-3.31,18.57c-6.29,25-13.2,52.58-20.47,81.54l0,.2H496.87l0-.29c5.28-33.66,10.16-64.73,14.32-91.25v0c-.3-28.37-.55-51.79-.73-68.13-.07-8.16-.13-14.54-.17-18.91,0-2.16,0-3.82,0-5s0-1.69,0-1.69,0,.57.06,1.69.05,2.8.09,5c.06,4.36.16,10.75.29,18.91.21,16.34.53,39.76.91,68.13v0h0c-4.14,26.53-9,57.6-14.23,91.27l-.25-.3h37.61l-.25.19,20.52-81.53a144.51,144.51,0,0,0,3.32-18.51c.81-6.05,1.47-11.95,2.11-17.64,1.24-11.39,2.27-22,3.2-31.71q.68-7.28,1.29-13.83c.43-4.35.73-8.51,1.3-12.32a64.78,64.78,0,0,0-.62-19.69,31.73,31.73,0,0,0-4.59-11.53,22.45,22.45,0,0,0-2-2.55C558.55,240.46,558.3,240.17,558.3,240.17Z" style="fill:#263238"></path><path d="M530.2,368.33a15.23,15.23,0,0,1-2.91-.84c-1.77-.6-4.18-1.52-6.79-2.68s-4.91-2.33-6.54-3.24a15,15,0,0,1-2.58-1.59,20,20,0,0,1,2.75,1.27c1.67.82,4,1.93,6.58,3.09s5,2.12,6.71,2.81A21.23,21.23,0,0,1,530.2,368.33Z" style="fill:#263238"></path><path d="M465.8,374.54a.87.87,0,0,1,0-.24c0-.2,0-.43,0-.72,0-.67.08-1.59.15-2.76.15-2.43.37-5.88.64-10.13.58-8.55,1.4-20.36,2.56-33.38s2.48-24.81,3.57-33.31c.54-4.25,1-7.69,1.35-10.06.17-1.15.31-2.06.41-2.73.05-.28.09-.51.12-.7a.81.81,0,0,1,.06-.24s0,.08,0,.24,0,.43-.07.72c-.07.67-.18,1.58-.31,2.74-.29,2.42-.69,5.86-1.19,10.08-1,8.51-2.26,20.28-3.42,33.3s-2,24.83-2.7,33.37c-.34,4.24-.62,7.68-.81,10.12-.1,1.16-.19,2.08-.25,2.75,0,.29-.05.52-.07.71A.68.68,0,0,1,465.8,374.54Z" style="fill:#263238"></path><path d="M542,228.35a47.63,47.63,0,0,0-3.54-7.46,49.25,49.25,0,0,0-5.19-6.43,8.31,8.31,0,0,1,1.91,1.54,25.19,25.19,0,0,1,3.72,4.61,24.79,24.79,0,0,1,2.54,5.35A8.45,8.45,0,0,1,542,228.35Z" style="fill:#263238"></path><path d="M475.61,344.76a1.14,1.14,0,0,1,.09.68,2.76,2.76,0,0,1-.82,1.7,2.6,2.6,0,0,1-2.71.62,3,3,0,0,1-1.4-1,2.8,2.8,0,0,1-.56-1.76,3.65,3.65,0,0,1,.72-2.18,2.26,2.26,0,0,1,.88-.69c.36-.13.62-.2.92-.29h.07a3.07,3.07,0,0,1,1.81.52,2.31,2.31,0,0,1,.84,1.19,2.49,2.49,0,0,1,.16,1.22c-.07,0-.12-.44-.41-1.12a2.16,2.16,0,0,0-.8-1,2.84,2.84,0,0,0-1.6-.38h.07c-.27.1-.62.2-.87.3a1.86,1.86,0,0,0-.67.56,3.28,3.28,0,0,0-.6,1.87,2.39,2.39,0,0,0,1.6,2.3,2.23,2.23,0,0,0,2.3-.43,2.74,2.74,0,0,0,.87-1.46C475.59,345,475.56,344.77,475.61,344.76Z" style="fill:#263238"></path><path d="M474.21,377.89a1.14,1.14,0,0,1,.09.68,2.71,2.71,0,0,1-.82,1.7,2.59,2.59,0,0,1-2.71.62,3.09,3.09,0,0,1-1.4-1,2.8,2.8,0,0,1-.56-1.76,3.68,3.68,0,0,1,.72-2.18,2.26,2.26,0,0,1,.88-.69c.36-.13.62-.2.92-.29h.07a3.07,3.07,0,0,1,1.81.52,2.31,2.31,0,0,1,.84,1.19,2.49,2.49,0,0,1,.16,1.22c-.06,0-.12-.44-.41-1.12a2.09,2.09,0,0,0-.8-1,2.84,2.84,0,0,0-1.6-.38h.07c-.27.1-.62.2-.86.3a1.81,1.81,0,0,0-.68.56,3.28,3.28,0,0,0-.6,1.87,2.39,2.39,0,0,0,1.6,2.3,2.23,2.23,0,0,0,2.3-.43,2.74,2.74,0,0,0,.87-1.46C474.19,378.14,474.16,377.9,474.21,377.89Z" style="fill:#263238"></path><path d="M554.07,234.63c-.05.09-1.29-.71-3.49-1.55a24.15,24.15,0,0,0-4-1.13,26.17,26.17,0,0,0-5-.44,26.49,26.49,0,0,0-5,.58,24.27,24.27,0,0,0-3.92,1.24c-2.17.9-3.39,1.73-3.45,1.64a4,4,0,0,1,.83-.62,8.08,8.08,0,0,1,1-.63,15.65,15.65,0,0,1,1.43-.73,22.25,22.25,0,0,1,4-1.37,23.14,23.14,0,0,1,10.21-.14,22.83,22.83,0,0,1,4,1.26,14.25,14.25,0,0,1,1.45.69,7.55,7.55,0,0,1,1.06.6A4,4,0,0,1,554.07,234.63Z" style="fill:#263238"></path><g style="opacity:0.30000000000000004"><path d="M471.68,322.27c4.07-5.93,5.57-11.52,7.75-18.38,3.23-10.19,4.13-21.7,9.21-31.11,3-5.54,6.5-11.22,11.7-14.78s5.82-7.87,5.72-19.78c3.63,0,7.46-2.76,7.91-3.25a20.2,20.2,0,0,0,4.45-8.33c-2.54,2.77-6.78,7.35-6.78,7.35s-9.19,1.71-9.06,1.65c-.22,4.58-.23,8.61-.46,13.19,0,0-17.63,18.71-19,22.47S471.68,322.27,471.68,322.27Z"></path></g><g style="opacity:0.30000000000000004"><path d="M537.14,439.06c22.35-42.29,29.29-97.9,28-150.87,0,0-6.41,64.39-8.58,75.44S537.14,439.06,537.14,439.06Z"></path></g><path d="M540.55,203.12a2.46,2.46,0,0,1-.5.39l-1.49,1L533,208.15,514.69,220,506.78,225v0l-2.52,2a20.45,20.45,0,0,0-2.26,1.93c-1.39,1.34-2.62,2.64-3.73,3.82l-.2.21-.11-.26L495.08,226c-.31-.75-.56-1.36-.76-1.83a2.86,2.86,0,0,1-.23-.65,2.94,2.94,0,0,1,.33.61c.22.45.5,1,.85,1.78l3,6.6-.31-.05c1.09-1.2,2.31-2.52,3.7-3.88a20.19,20.19,0,0,1,2.28-2l2.51-2h0l7.9-5.07,18.43-11.69,5.62-3.5,1.54-.92A3.31,3.31,0,0,1,540.55,203.12Z" style="fill:#263238"></path></g><g id="freepik--light-bulb--inject-409"><path d="M70.33,159.65c-.12.07-4.37-7.31-9.5-16.47s-9.18-16.64-9.06-16.71,4.37,7.3,9.5,16.47S70.45,159.58,70.33,159.65Z" style="fill:#263238"></path><path d="M84.69,127.85c.14,0-.06,5.65-.45,12.61s-.81,12.59-.94,12.58.06-5.65.45-12.61S84.55,127.84,84.69,127.85Z" style="fill:#263238"></path><path d="M60.06,167.47c-.05.13-4.84-1.37-10.71-3.36s-10.59-3.69-10.54-3.82,4.83,1.37,10.7,3.35S60.1,167.34,60.06,167.47Z" style="fill:#263238"></path><path d="M131.92,181.65A39.88,39.88,0,1,0,94.3,237.52l4,9.22,32-14s-2.07-5.25-4-9.9A39.88,39.88,0,0,0,131.92,181.65Z" style="fill:#92E3A9"></path><path d="M125.56,234.81s-.1-.15-.26-.43-.42-.71-.73-1.26c-.64-1.12-1.57-2.77-2.74-4.91-2.31-4.29-5.58-10.56-9.15-18.51-.9-2-1.82-4.08-2.74-6.28-.46-1.1-.92-2.22-1.4-3.36a12.59,12.59,0,0,1-1.08-3.64,4.25,4.25,0,0,1,.29-2,2.57,2.57,0,0,1,1.38-1.46,2.44,2.44,0,0,1,2,.23,3.75,3.75,0,0,1,1.44,1.49,4.63,4.63,0,0,1-.07,4.12,7,7,0,0,1-2.94,3.1,7.49,7.49,0,0,1-4.29.93,7.92,7.92,0,0,1-4.18-1.66,9.41,9.41,0,0,1-2.87-3.58,6.78,6.78,0,0,1-.66-2.26,3.29,3.29,0,0,1,.52-2.33,2.11,2.11,0,0,1,1-.72,2.57,2.57,0,0,1,1.23-.09,3.78,3.78,0,0,1,2.15,1.14,8.11,8.11,0,0,1,1.41,2,22.11,22.11,0,0,1,1,2.21,16.48,16.48,0,0,1,1.21,4.77,9.05,9.05,0,0,1-.83,4.9,7.15,7.15,0,0,1-1.49,2,5.61,5.61,0,0,1-2.17,1.27,5.16,5.16,0,0,1-2.5.09,6.67,6.67,0,0,1-2.28-1,14.92,14.92,0,0,1-3.52-3.34c-.5-.62-1-1.27-1.42-1.92a14,14,0,0,1-1.25-2,4,4,0,0,1-.39-2.36,2.6,2.6,0,0,1,.48-1.12,1.74,1.74,0,0,1,1-.64,2,2,0,0,1,1.2.16,3.74,3.74,0,0,1,1,.63,7.77,7.77,0,0,1,1.5,1.74A13.37,13.37,0,0,1,98,209.22a8.49,8.49,0,0,1-1.44,4,6.47,6.47,0,0,1-3.3,2.54,5.53,5.53,0,0,1-4-.34,6.28,6.28,0,0,1-2.89-2.64,5.24,5.24,0,0,1-.63-1.83,2.9,2.9,0,0,1,.34-1.89,1.46,1.46,0,0,1,1.74-.6,3.48,3.48,0,0,1,1.48,1.1,15.06,15.06,0,0,1,1.77,3l1.5,3c3.89,7.81,6.92,14.18,8.94,18.62,1,2.22,1.76,4,2.26,5.14.24.59.43,1,.56,1.35l.18.46-.21-.45c-.13-.31-.33-.75-.58-1.34-.52-1.17-1.29-2.9-2.32-5.11-2-4.43-5.1-10.78-9-18.57-.49-1-1-2-1.51-3a14.27,14.27,0,0,0-1.75-3,3.22,3.22,0,0,0-1.38-1,1.25,1.25,0,0,0-1.48.51A2.75,2.75,0,0,0,86,211a5.15,5.15,0,0,0,.61,1.75,6,6,0,0,0,2.79,2.53,5.28,5.28,0,0,0,3.83.32,6.11,6.11,0,0,0,3.16-2.45,8.31,8.31,0,0,0,1.4-3.91A13.13,13.13,0,0,0,95.32,201a7.62,7.62,0,0,0-1.45-1.69,2.53,2.53,0,0,0-2-.73,1.74,1.74,0,0,0-1.3,1.54,3.66,3.66,0,0,0,.37,2.19,13.29,13.29,0,0,0,1.22,2c.45.65.92,1.29,1.42,1.9A14.88,14.88,0,0,0,97,209.43a6.72,6.72,0,0,0,2.19.92,5,5,0,0,0,2.36-.08,6,6,0,0,0,3.49-3.17,8.73,8.73,0,0,0,.79-4.75,16,16,0,0,0-1.18-4.68,12.84,12.84,0,0,0-2.37-4.1,3.51,3.51,0,0,0-2-1.06,2,2,0,0,0-2,.7,3,3,0,0,0-.47,2.13,6.85,6.85,0,0,0,.63,2.17A9.23,9.23,0,0,0,101.3,201a7.69,7.69,0,0,0,4,1.61,7.24,7.24,0,0,0,4.14-.89,6.75,6.75,0,0,0,2.84-3,4.4,4.4,0,0,0,.08-3.89,3.54,3.54,0,0,0-1.35-1.39,2.14,2.14,0,0,0-1.82-.22,2.38,2.38,0,0,0-1.25,1.32,4.05,4.05,0,0,0-.27,1.85,12.26,12.26,0,0,0,1.06,3.57l1.38,3.37q1.38,3.28,2.72,6.27c3.55,8,6.79,14.24,9.07,18.55,1.15,2.15,2.06,3.8,2.69,4.93l.7,1.28C125.48,234.65,125.56,234.81,125.56,234.81Z" style="fill:#fff"></path><path d="M97.46,234.72a2.75,2.75,0,0,1-.49.05c-.32,0-.8.06-1.41.06a34.76,34.76,0,0,1-5.17-.31,36.39,36.39,0,0,1-7.47-1.78,37.2,37.2,0,0,1-20-16.62,35.64,35.64,0,0,1-2.25-4.66c-.23-.57-.37-1-.48-1.32a3.55,3.55,0,0,1-.14-.47,3.71,3.71,0,0,1,.2.45c.12.29.28.74.53,1.3a39.42,39.42,0,0,0,2.32,4.6,38.16,38.16,0,0,0,4.51,6.16,38.1,38.1,0,0,0,27.94,12.53c.61,0,1.09,0,1.41,0Z" style="fill:#263238"></path><path d="M58.56,202a7.44,7.44,0,0,1,.49,2,7.64,7.64,0,0,1,.21,2.06,7.44,7.44,0,0,1-.49-2A7.21,7.21,0,0,1,58.56,202Z" style="fill:#263238"></path><path d="M131.59,191.91a3.81,3.81,0,0,1-.11-.41c-.06-.3-.15-.69-.26-1.18-.05-.26-.11-.55-.18-.86s-.18-.64-.28-1A24.14,24.14,0,0,0,130,186l-.5-1.39c-.18-.48-.42-1-.64-1.47-.42-1-1-2.05-1.58-3.15a38.43,38.43,0,0,0-10.65-12c-1-.7-2-1.41-2.94-1.94-.47-.28-.92-.58-1.37-.81l-1.32-.67c-.83-.45-1.63-.74-2.31-1-.35-.14-.67-.29-1-.4l-.83-.28-1.15-.4a1.57,1.57,0,0,1-.39-.16,2.65,2.65,0,0,1,.41.11l1.16.34.84.26c.31.11.63.24,1,.38.69.29,1.5.57,2.34,1l1.33.65c.46.23.91.53,1.4.8a34,34,0,0,1,3,1.94,37.55,37.55,0,0,1,10.72,12.08,34.64,34.64,0,0,1,1.57,3.19c.21.51.45,1,.63,1.48l.49,1.4a24.18,24.18,0,0,1,.72,2.44c.09.37.19.7.26,1s.11.6.15.86q.13.75.21,1.2A2.57,2.57,0,0,1,131.59,191.91Z" style="fill:#263238"></path><g style="opacity:0.2"><path d="M82.47,172c-1.31-1.26-3.49-1.63-5.77-1.35a12.51,12.51,0,0,0-8.22,4.76c-6,7.56-8.27,14.49-7.13,24.54.38,3.4,2.09,8.56,4.85,10.85a6.51,6.51,0,0,0,5,1.55c4.65-.61,6.17-6.06,5.77-10.45-.38-4.09-1.71-8.3-.4-12.19,1.09-3.21,3.78-5.56,5.65-8.38S84.91,174.39,82.47,172Z" style="fill:#fff"></path></g><g style="opacity:0.2"><path d="M96.49,164.2c-2.37-1.75-6.17-1.24-7.76.52a6.51,6.51,0,0,0-1.43,5.49,6,6,0,0,0,4.87,4.54,5.63,5.63,0,0,0,5.76-3.22C98.87,169.36,98.39,165.6,96.49,164.2Z" style="fill:#fff"></path></g><g id="freepik--2ggvdetif--inject-409"><path d="M115.4,261.4a10.78,10.78,0,0,1,2.9.93,2.33,2.33,0,0,0,2.06.07l6.44-2.83a2.36,2.36,0,0,0,1.38-1.74,4.46,4.46,0,0,1,1.45-2.68Z" style="fill:#263238"></path></g><path d="M100.55,246.52c.06.13,6,9.54,8.23,13.13a5.17,5.17,0,0,0,4.27,2.48,4.79,4.79,0,0,0,2-.4l14.09-6.19s3.68-1.61,3.24-4.9c-.48-3.46-4.12-16.28-4.12-16.28Z" style="fill:#e0e0e0"></path><rect x="105.94" y="252.79" width="28.33" height="1.61" rx="0.76" transform="translate(-92.45 70.42) rotate(-23.9)" style="fill:#e0e0e0"></rect><path d="M132.68,248.9a.89.89,0,0,0,.38-.43.75.75,0,0,0-.08-.67.7.7,0,0,0-.77-.37c-1.34.56-3.3,1.48-5.72,2.55l-18.91,8.43a.62.62,0,0,0-.37.47.66.66,0,0,0,0,.31,1.06,1.06,0,0,0,.15.28.66.66,0,0,0,.56.22,4,4,0,0,0,.65-.26l2.66-1.18,5-2.22,8.52-3.74,5.76-2.51,1.57-.67.41-.16c.09,0,.14-.06.14,0l-.13.07-.4.19-1.55.72-5.72,2.58-8.5,3.79-5,2.24-2.66,1.18-.34.15a1.69,1.69,0,0,1-.38.13.92.92,0,0,1-.79-.31,1.11,1.11,0,0,1-.2-.37.79.79,0,0,1,0-.43.87.87,0,0,1,.52-.67l18.94-8.36c2.43-1.05,4.37-1.93,5.77-2.48a.79.79,0,0,1,.86.44.81.81,0,0,1,.06.72A.69.69,0,0,1,132.68,248.9Z" style="fill:#263238"></path><rect x="103.98" y="249.62" width="29.46" height="1.61" rx="0.76" transform="translate(-91.29 69.58) rotate(-23.9)" style="fill:#e0e0e0"></rect><path d="M131.81,245.5a.84.84,0,0,0,.38-.45.81.81,0,0,0-.1-.69.72.72,0,0,0-.84-.31l-5.93,2.67-19.65,8.75a.62.62,0,0,0-.37.5.56.56,0,0,0,0,.31.74.74,0,0,0,.17.29.67.67,0,0,0,.6.17c.2-.07.46-.2.68-.29l2.76-1.23,5.23-2.3,8.85-3.9,6-2.6,1.63-.69.43-.18.15-.05-.14.08-.41.19-1.62.74-5.94,2.68-8.82,3.95-5.22,2.32-2.76,1.22c-.25.1-.44.21-.73.31a.92.92,0,0,1-.84-.23,1,1,0,0,1-.23-.38.85.85,0,0,1-.06-.45.89.89,0,0,1,.53-.7l19.67-8.68c2.53-1.1,4.56-2,6-2.6a.83.83,0,0,1,.94.37.85.85,0,0,1,.08.75A.69.69,0,0,1,131.81,245.5Z" style="fill:#263238"></path><rect x="102.23" y="246.45" width="30.19" height="1.61" rx="0.76" transform="translate(-90.12 68.75) rotate(-23.9)" style="fill:#e0e0e0"></rect><path d="M130.75,242.18A.77.77,0,0,0,131,241a.71.71,0,0,0-.86-.27l-6.09,2.74-20.11,9a.6.6,0,0,0-.37.51.55.55,0,0,0,0,.33.8.8,0,0,0,.18.28.64.64,0,0,0,.62.13c.22-.08.47-.2.71-.31l2.83-1.25,5.34-2.36,9.06-4,6.12-2.67,1.67-.71.44-.18.15-.06s-.05,0-.14.08l-.43.21-1.65.75L122.45,246l-9,4-5.34,2.38-2.83,1.25-.73.32a.87.87,0,0,1-.87-.19,1,1,0,0,1-.25-.37.89.89,0,0,1-.07-.46.88.88,0,0,1,.52-.72L124,243.32l6.12-2.66a.81.81,0,0,1,1,.32.9.9,0,0,1,.11.76A.66.66,0,0,1,130.75,242.18Z" style="fill:#263238"></path><rect x="100.26" y="243.28" width="31.35" height="1.61" rx="0.76" transform="translate(-88.96 67.91) rotate(-23.9)" style="fill:#e0e0e0"></rect><path d="M129.89,238.78a.78.78,0,0,0,.4-.48.9.9,0,0,0-.16-.73.74.74,0,0,0-.93-.19l-6.31,2.84L102,249.51a.64.64,0,0,0-.38.54.8.8,0,0,0,.28.62.63.63,0,0,0,.65.07l.75-.33,2.93-1.29,5.55-2.45,9.39-4.14,6.35-2.77,1.73-.74.45-.18.16-.06-.15.08-.44.21-1.71.79-6.31,2.84-9.38,4.18-5.54,2.47-2.93,1.3-.75.33a.91.91,0,0,1-.91-.1.94.94,0,0,1-.28-.38.88.88,0,0,1,.43-1.22l20.9-9.22,6.34-2.77a.81.81,0,0,1,1,.24.93.93,0,0,1,.15.78.74.74,0,0,1-.3.4A.43.43,0,0,1,129.89,238.78Z" style="fill:#263238"></path><path d="M93.19,239.4c.12.26,3.4,6.16,5.09,9.2a4.18,4.18,0,0,0,3,2.08l1.85.3,27.23-12,1-1.54a4.15,4.15,0,0,0,.46-3.64l-3.39-9.91Z" style="fill:#92E3A9"></path><g style="opacity:0.30000000000000004"><path d="M109.06,259.29a38.21,38.21,0,0,0,8.4-2.93c2.32-1,4.63-2,7.13-3.13,1.83-.85,3.49-1.69,5.3-2.58a5.55,5.55,0,0,0,1.94-1.4Z"></path></g><g style="opacity:0.30000000000000004"><path d="M106.69,256.54a45.24,45.24,0,0,0,9-3.21c2.51-1.11,5-2.13,7.69-3.37,2-.92,3.77-1.82,5.72-2.77a6.28,6.28,0,0,0,2.11-1.48Z"></path></g><g style="opacity:0.30000000000000004"><path d="M105.31,253.39a44.23,44.23,0,0,0,9-3.21c2.5-1.11,5-2.12,7.69-3.37,2-.91,3.77-1.81,5.72-2.76a6.59,6.59,0,0,0,2.11-1.48Z"></path></g><g style="opacity:0.30000000000000004"><path d="M103.93,250.25a45.46,45.46,0,0,0,9-3.21c2.5-1.11,5-2.13,7.69-3.37,2-.92,3.77-1.82,5.72-2.77a6.28,6.28,0,0,0,2.11-1.48Z"></path></g><path d="M93.19,239.4c.12.26,3.4,6.16,5.09,9.2a4.18,4.18,0,0,0,3,2.08l1.85.3,27.23-12,1-1.54a4.15,4.15,0,0,0,.46-3.64l-3.39-9.91Z" style="opacity:0.30000000000000004"></path><path d="M131.72,235.45c0,.06-7.23,3.31-16.22,7.26s-16.29,7.09-16.32,7,7.23-3.31,16.22-7.26S131.69,235.38,131.72,235.45Z" style="fill:#263238"></path><path d="M128.15,223.83c0,.08-7.83,3.64-17.58,8s-17.67,7.77-17.7,7.7,7.83-3.63,17.58-8S128.12,223.76,128.15,223.83Z" style="fill:#263238"></path></g><g id="freepik--speech-bubble--inject-409"><path d="M448.32,157l-12.49-1.46a40.18,40.18,0,1,1,8.09-11.89l0,0Z" style="fill:#fff"></path><path d="M448.32,157s-.11-.3-.31-.88l-.87-2.56-3.32-9.89.22,0,0,0a.12.12,0,0,1-.17,0,.13.13,0,0,1,0-.15,40.19,40.19,0,0,0,3.25-19.49,39.73,39.73,0,0,0-1-6.1,44.91,44.91,0,0,0-2.13-6.26,39.83,39.83,0,0,0-76.1,10.46,40.57,40.57,0,0,0,1.84,18.24,39.18,39.18,0,0,0,9.07,14.68,39.93,39.93,0,0,0,27.41,12.09l1.71,0a10.41,10.41,0,0,0,1.68-.05l3.27-.29a56,56,0,0,0,6.08-1.33,39.93,39.93,0,0,0,16.85-10.11.1.1,0,0,1,.1,0l9.25,1.15,2.4.31.83.11-.78-.07-2.38-.25-9.35-1,.1,0A39.86,39.86,0,0,1,419,165.87a54.6,54.6,0,0,1-6.13,1.37l-3.3.31a10.7,10.7,0,0,1-1.7.06l-1.73,0a40.37,40.37,0,0,1-37-27,41,41,0,0,1-1.88-18.48,40.13,40.13,0,0,1,7.1-18.11,16.55,16.55,0,0,1,1.48-1.94l1.55-1.88,1.71-1.72a18.18,18.18,0,0,1,1.77-1.63l1.85-1.53c.6-.52,1.31-.91,1.95-1.37s1.31-.91,2-1.3l2.08-1.12A39.88,39.88,0,0,1,406.41,87a40.49,40.49,0,0,1,29.94,12.42,40.11,40.11,0,0,1,8,12.12,43.64,43.64,0,0,1,2.13,6.33,39.47,39.47,0,0,1,1,6.17A40.11,40.11,0,0,1,444,143.65l-.21-.13v0a.14.14,0,0,1,.18,0,.21.21,0,0,1,0,.06c1.39,4.37,2.47,7.73,3.2,10,.35,1.11.62,2,.8,2.55S448.32,157,448.32,157Z" style="fill:#263238"></path><polygon points="388.81 128.26 393.61 122.95 403.79 131.13 418.91 113.76 423.86 118.58 403.56 140.91 388.81 128.26" style="fill:#263238"></polygon><path d="M338.28,160.42l7.93-1a.11.11,0,0,1,.08,0,34.31,34.31,0,0,0,14.45,8.67,49.24,49.24,0,0,0,5.21,1.14l2.81.25a8.6,8.6,0,0,0,1.44,0l1.47,0a34.08,34.08,0,0,0,12.16-2.64c1-.44,2.08-.93,3.09-1.48l-.93-.37a39.86,39.86,0,0,1-13.14-8.9,38.86,38.86,0,0,1-9-14.57A40.32,40.32,0,0,1,362,123.46a39.33,39.33,0,0,1,7-17.75,18.06,18.06,0,0,1,1.46-1.9l1.52-1.84.65-.66-1.12,0a34.36,34.36,0,0,0-25.37,10.47A33.93,33.93,0,0,0,339.28,122a37.85,37.85,0,0,0-1.83,5.37,34.14,34.14,0,0,0,1.93,21.94.13.13,0,0,1,0,.13l-2.83,8.41c-.32,1-.57,1.69-.75,2.2s-.26.75-.26.75l.71-.1Z" style="fill:#f5f5f5"></path><path d="M338.28,160.42s-.23.05-.69.12l-2.07.3-.1,0,0-.1c.78-2.34,2.06-6.22,3.77-11.39l0-.06s0,.07,0,0l-.07-.16-.14-.33-.27-.67c-.19-.45-.35-.92-.53-1.4-.33-1-.63-2-.9-3a33.52,33.52,0,0,1-1-6.91,33.92,33.92,0,0,1,.56-7.8,34.53,34.53,0,0,1,1.06-4.08,29.13,29.13,0,0,1,1.61-4.09,34.19,34.19,0,0,1,12.5-14.34,34.54,34.54,0,0,1,20.51-5.45l.57,0-.4.4-.65.66v0a40.49,40.49,0,0,0-9.49,18.92A39.23,39.23,0,0,0,387,165.21l.49.18-.46.22a41,41,0,0,1-5.41,2.35,35.42,35.42,0,0,1-5.44,1.35,36.4,36.4,0,0,1-10.24.14h0c-1.16-.24-2.29-.43-3.39-.67a29.15,29.15,0,0,1-3.16-.93,34.68,34.68,0,0,1-5.48-2.47,33.73,33.73,0,0,1-7.62-5.81c0-.09-.23,0-.38,0l-.47.05-.89.11-1.62.19-2.54.29-1.55.17c-.36,0-.54,0-.54,0l.53-.09,1.55-.22,2.53-.34,1.62-.21.89-.12.47-.06.24,0a.31.31,0,0,1,.15,0,.14.14,0,0,1,.1,0l.05,0a34.1,34.1,0,0,0,7.62,5.7,34.71,34.71,0,0,0,12,4h0a44,44,0,0,0,4.93.27,33.67,33.67,0,0,0,5.22-.45,34.89,34.89,0,0,0,5.37-1.35,41.94,41.94,0,0,0,5.33-2.34l0,.4A39.63,39.63,0,0,1,362.1,121a40.81,40.81,0,0,1,9.61-19.15h0l.66-.66.17.44A34,34,0,0,0,339.94,121a28.86,28.86,0,0,0-1.6,4,33,33,0,0,0-1.07,4,33.84,33.84,0,0,0,.36,14.56c.26,1,.55,2.06.87,3,.17.47.33.94.51,1.39l.27.67.14.32.06.16a.25.25,0,0,1-.05.32l0-.06c-1.77,5.17-3.08,9.06-3.91,11.34l-.06-.07,2.08-.25Z" style="fill:#263238"></path></g><g id="freepik--chart--inject-409"><rect x="657.44" y="89.54" width="21.34" height="76.91" rx="4.45" style="fill:#455a64"></rect><rect x="590.58" y="134.81" width="21.34" height="34.92" rx="4.6" style="fill:#455a64"></rect><rect x="623.55" y="115.82" width="21.34" height="53.9" rx="4.92" style="fill:#455a64"></rect><path d="M670.89,64.13a3.7,3.7,0,0,1-.51.68l-1.59,1.87-6,6.9L641.84,97.17l-.23.27-.3-.2-13.1-8.55.56-.08-.5.59c-10.79,12.65-20.55,24.11-27.69,32.49l-.19.21-.22-.17L589.76,114,587,111.86a5.84,5.84,0,0,1-.94-.79,7.4,7.4,0,0,1,1,.66l2.9,2,10.57,7.52-.4,0,27.5-32.65.5-.59.25-.29.31.21,13.08,8.58-.53.07,21.15-23.39,6.2-6.75,1.69-1.78A3.39,3.39,0,0,1,670.89,64.13Z" style="fill:#263238"></path><path d="M671.56,80.37a29,29,0,0,1-.29-4.91c-.08-3-.13-7.24-.13-11.9l.49.42-.42.07c-4.7.77-9,1.43-12.05,1.86a29.06,29.06,0,0,1-5,.52,31.36,31.36,0,0,1,4.93-1.12c3.07-.58,7.31-1.33,12-2.1l.43-.07.49-.08v.5c0,4.66,0,8.86-.13,11.9A27,27,0,0,1,671.56,80.37Z" style="fill:#263238"></path></g></svg>