<?xml version="1.0" encoding="iso-8859-1"?>
<!-- Uploaded to: SVG Repo, www.svgrepo.com, Generator: SVG Repo Mixer Tools -->
<svg version="1.1" id="Layer_1" xmlns="http://www.w3.org/2000/svg" xmlns:xlink="http://www.w3.org/1999/xlink" 
	 viewBox="0 0 512 512" xml:space="preserve">
<rect x="61.487" y="114.407" style="fill:#E6E6E6;" width="389.022" height="389.022"/>
<circle style="fill:#CCCCCC;" cx="256.004" cy="308.924" r="146.327"/>
<path style="fill:#B3B3B3;" d="M255.999,162.596c-6.388,0-12.679,0.411-18.851,1.205c71.908,9.249,127.472,70.693,127.472,145.118
	s-55.564,135.868-127.472,145.118c6.172,0.794,12.463,1.205,18.851,1.205c80.811,0,146.323-65.512,146.323-146.323
	S336.812,162.596,255.999,162.596z"/>
<g>
	<circle style="fill:#4D4D4D;" cx="190.883" cy="308.924" r="20.564"/>
	<circle style="fill:#4D4D4D;" cx="321.125" cy="308.924" r="20.564"/>
</g>
<path d="M351.139,197.416c2.858-3.771,2.118-9.145-1.652-12.005c-27.086-20.531-59.412-31.384-93.486-31.384
	c-85.408,0-154.893,69.484-154.893,154.891s69.484,154.891,154.891,154.891s154.891-69.484,154.891-154.891
	c0-39.824-15.084-77.665-42.474-106.554c-3.256-3.434-8.68-3.581-12.114-0.322c-3.434,3.256-3.578,8.679-0.322,12.114
	c24.357,25.691,37.772,59.344,37.772,94.762c0,75.958-61.796,137.754-137.754,137.754s-137.754-61.796-137.754-137.754
	s61.796-137.754,137.754-137.754c30.305,0,59.052,9.649,83.134,27.904C342.906,201.927,348.28,201.188,351.139,197.416z"/>
<path d="M61.487,441.167c4.732,0,8.569-3.836,8.569-8.569V122.974h296.768c4.732,0,8.569-3.836,8.569-8.569
	c0-4.732-3.836-8.569-8.569-8.569H61.487c-4.732,0-8.569,3.836-8.569,8.569v318.193C52.919,437.33,56.754,441.167,61.487,441.167z"
	/>
<path d="M450.513,105.837H397.67c-4.732,0-8.569,3.836-8.569,8.569c0,4.732,3.836,8.569,8.569,8.569h44.274v371.889H70.056v-32.56
	c0-4.732-3.836-8.569-8.569-8.569s-8.569,3.836-8.569,8.569v41.129c0,4.732,3.836,8.569,8.569,8.569h389.026
	c4.732,0,8.569-3.836,8.569-8.569V114.406C459.081,109.674,455.245,105.837,450.513,105.837z"/>
<path d="M198.967,45.83l-5.723,4.181c-9.709,7.095-15.503,18.509-15.503,30.534c0,4.732,3.836,8.569,8.569,8.569h30.847
	c4.732,0,8.569-3.836,8.569-8.569s-3.836-8.569-8.569-8.569h-20.411c1.456-3.192,3.714-6.012,6.61-8.129l5.723-4.181
	c9.709-7.095,15.504-18.509,15.504-30.534v-5.712C224.583,10.506,214.077,0,201.162,0c-12.913,0-23.421,10.506-23.421,23.421v5.712
	c0,4.732,3.836,8.569,8.569,8.569c4.732,0,8.569-3.836,8.569-8.569v-5.712c0-3.465,2.818-6.284,6.284-6.284s6.284,2.818,6.284,6.284
	v5.712C207.444,35.708,204.275,41.95,198.967,45.83z"/>
<path d="M254.948,45.83l-5.723,4.181c-9.709,7.095-15.503,18.509-15.503,30.534c0,4.732,3.836,8.569,8.569,8.569h30.847
	c4.732,0,8.569-3.836,8.569-8.569s-3.836-8.569-8.569-8.569h-20.411c1.456-3.192,3.714-6.012,6.61-8.129l5.723-4.181
	c9.709-7.095,15.504-18.509,15.504-30.534v-5.712C280.564,10.506,270.058,0,257.143,0c-12.913,0-23.421,10.506-23.421,23.421v5.712
	c0,4.732,3.836,8.569,8.569,8.569c4.732,0,8.569-3.836,8.569-8.569v-5.712c0-3.465,2.818-6.284,6.284-6.284s6.284,2.818,6.284,6.284
	v5.712C263.425,35.708,260.256,41.95,254.948,45.83z"/>
<path d="M310.267,89.113c13.23,0,23.992-10.762,23.992-23.992V23.992C334.259,10.762,323.496,0,310.267,0l0,0
	c-13.229,0-23.992,10.762-23.992,23.992v41.129C286.275,78.351,297.038,89.113,310.267,89.113z M303.412,23.992
	c0-3.78,3.074-6.855,6.855-6.855s6.855,3.074,6.855,6.855v41.129c0,3.78-3.076,6.855-6.855,6.855s-6.855-3.074-6.855-6.855V23.992z"
	/>
<path d="M161.746,308.919c0,16.064,13.069,29.133,29.133,29.133s29.133-13.069,29.133-29.133s-13.069-29.133-29.133-29.133
	S161.746,292.855,161.746,308.919z M202.875,308.919c0,6.615-5.381,11.996-11.996,11.996c-6.615,0-11.996-5.381-11.996-11.996
	s5.381-11.996,11.996-11.996C197.494,296.923,202.875,302.304,202.875,308.919z"/>
<path d="M321.12,279.786c-16.064,0-29.133,13.069-29.133,29.133s13.069,29.133,29.133,29.133s29.133-13.069,29.133-29.133
	S337.184,279.786,321.12,279.786z M321.12,320.915c-6.615,0-11.996-5.381-11.996-11.996s5.381-11.996,11.996-11.996
	s11.996,5.381,11.996,11.996S327.735,320.915,321.12,320.915z"/>
</svg>