<svg xmlns="http://www.w3.org/2000/svg" viewBox="0 0 500 500"><g id="freepik--Floor--inject-3"><ellipse id="freepik--floor--inject-3" cx="248.17" cy="344.63" rx="235.61" ry="136.03" style="fill:#f0f0f0"></ellipse></g><g id="freepik--Shadows--inject-3"><ellipse id="freepik--Shadow--inject-3" cx="394.63" cy="380.98" rx="39.96" ry="23.07" style="fill:#e0e0e0"></ellipse><path id="freepik--shadow--inject-3" d="M118.66,411.16,37.15,364.1c-2.55-1.47-2.55-3.85,0-5.32l133.36-77a10.17,10.17,0,0,1,9.21,0l81.51,47.06c2.55,1.47,2.55,3.85,0,5.32l-133.36,77A10.17,10.17,0,0,1,118.66,411.16Z" style="fill:#e0e0e0"></path></g><g id="freepik--Plants--inject-3"><g id="freepik--plants--inject-3"><path d="M115.88,350.78s-.58-19.39-8.9-35.1-20.66-26.1-32.83-28.09-23,8.46-10.54,17.29S98.7,323.55,107,353.39Z" style="fill:#407BFF"></path><g style="opacity:0.15"><path d="M115.88,350.78s-.58-19.39-8.9-35.1-20.66-26.1-32.83-28.09-23,8.46-10.54,17.29S98.7,323.55,107,353.39Z"></path></g><path d="M112.7,345.49a.28.28,0,0,0,.13,0,.66.66,0,0,0,.44-.82C103,311.73,79.49,296.38,68.5,292.87a.65.65,0,0,0-.82.42.66.66,0,0,0,.42.83C78.87,297.56,101.9,312.64,112,345A.67.67,0,0,0,112.7,345.49Z" style="fill:#fff"></path><path d="M52.7,334.52c.82,2.45,3.28,3.92,5.58,5.11s4.8,2.47,5.89,4.82c2.18,4.74-2.69,10.67-.31,15.32a8.1,8.1,0,0,0,5.21,3.7,53.78,53.78,0,0,0,5.36,1,20.43,20.43,0,0,0,2.59.05c2.51-.13,5.22,0,7.37,1.49,3.39,2.35,4.06,7,5.91,10.65a17,17,0,0,0,11.34,8.69c4,.92,10.17.58,11.39-1.11.92-1.29-1.07-5.63-1-7.21a64.52,64.52,0,0,0-.4-12.19,22.85,22.85,0,0,1-.26-5.54q.31-3.1.59-6.22c.19-2.24.88-4,.29-6.29a23.35,23.35,0,0,0-3-6.22c-1.19-1.93-2.39-3.84-3.61-5.75a32.34,32.34,0,0,0-4.86-6.34A17,17,0,0,0,88.12,324c-3.83.27-7.72,2.05-11.59,1.5s-7.37-1.89-11.26-2c-4.06-.1-8.34,1.23-11,4.48A7.14,7.14,0,0,0,52.7,334.52Z" style="fill:#407BFF"></path><path d="M110.64,373.86h0a.57.57,0,0,0,.47-.67c-6.08-36.14-42.74-44.72-51.49-44.91a.59.59,0,0,0-.6.57.57.57,0,0,0,.57.59c8.56.19,44.42,8.59,50.37,43.94A.6.6,0,0,0,110.64,373.86Z" style="fill:#fff"></path><path d="M71.05,352.11a.56.56,0,0,0,.32-.13c.1-.08,10.45-8.53,25.95-4.74a.59.59,0,0,0,.27-1.14,32.2,32.2,0,0,0-27,5,.58.58,0,0,0,.43,1Z" style="fill:#fff"></path></g></g><g id="freepik--Device--inject-3"><g id="freepik--device--inject-3"><path d="M253.39,33.39,126,106.93a10.28,10.28,0,0,0-4.63,8V402.23c0,2.95,2.08,4.16,4.63,2.67l127.38-73.53a10.28,10.28,0,0,0,4.63-8V36.06C258,33.11,255.94,31.91,253.39,33.39Zm-2,263.48c0,2.53-1.77,4.14-4,5.4L131.56,369.14c-2.19,1.26-4,.24-4-2.3v-225a8.83,8.83,0,0,1,4-6.89L247.38,68.07c2.2-1.28,4-.25,4,2.28Z" style="fill:#37474f"></path><path d="M125.43,405.2a10.38,10.38,0,0,1-8.69-.29l-5.3-3.06a10.22,10.22,0,0,1-4.65-8V106.56a8.64,8.64,0,0,1,.81-3.46,9.54,9.54,0,0,1,.55-1.11s0,0,0,0l14.57,8.42h0a13.17,13.17,0,0,0-.81,1.7,8.54,8.54,0,0,0-.56,2.87V402.24C121.38,405,123.15,406.19,125.43,405.2Z" style="fill:#263238"></path><path d="M190.8,342.89c4-2.33,7.31-.44,7.31,4.22a16.15,16.15,0,0,1-7.31,12.67c-4,2.33-7.31.44-7.31-4.22A16.17,16.17,0,0,1,190.8,342.89Z" style="fill:#407BFF"></path><path d="M189.7,76.36c1.71-1,3.1-.19,3.1,1.79a6.87,6.87,0,0,1-3.1,5.38c-1.72,1-3.11.19-3.11-1.8A6.84,6.84,0,0,1,189.7,76.36Z"></path><path d="M177.71,95.25l24-13.85c1.43-.82,2.59-.24,2.59,1.31a5.54,5.54,0,0,1-2.59,4.3l-24,13.85c-1.43.82-2.59.24-2.59-1.31A5.54,5.54,0,0,1,177.71,95.25Z"></path><path d="M251.35,296.87c0,2.53-1.77,4.14-4,5.4L131.56,369.14c-2.19,1.26-4,.24-4-2.3v-225a8.83,8.83,0,0,1,4-6.89L247.38,68.07c2.2-1.28,4-.25,4,2.28Z" style="fill:#407BFF"></path><path d="M258,35.33c-.33-2.41-2.26-3.28-4.57-1.94L126,106.93a9.5,9.5,0,0,0-3.27,3.46L108.16,102a9.46,9.46,0,0,1,3.28-3.44L238.81,25a10.23,10.23,0,0,1,9.27,0L253.4,28A10.37,10.37,0,0,1,258,35.33Z" style="fill:#455a64"></path></g></g><g id="freepik--Screen--inject-3"><g id="freepik--App--inject-3"><path d="M267.48,77.76a2.77,2.77,0,0,0-2.81.28L148.85,144.89a8.83,8.83,0,0,0-4,6.89v225a2.88,2.88,0,0,0,1.07,2.51c.73.48,3.67,2.08,4.35,2.51a2.74,2.74,0,0,0,2.87-.24L269,314.73c2.2-1.26,4-2.87,4-5.4V82.81a2.79,2.79,0,0,0-1.16-2.56Z" style="fill:#e0e0e0"></path><path d="M273,309.33c0,2.53-1.78,4.14-4,5.4L153.16,381.6c-2.19,1.27-4,.24-4-2.29v-225a8.78,8.78,0,0,1,4-6.88L269,80.53c2.2-1.28,4-.24,4,2.28Z" style="fill:#fafafa"></path><path d="M270.76,81c1.08,0,1.2,1.28,1.2,1.83V309.33c0,1.76-1.07,3.16-3.48,4.54L152.66,380.74a2.69,2.69,0,0,1-1.27.4c-1.08,0-1.2-1.28-1.2-1.83v-225a7.86,7.86,0,0,1,3.47-6L269.49,81.39a2.61,2.61,0,0,1,1.27-.41m0-1a3.64,3.64,0,0,0-1.78.55L153.16,147.39a8.78,8.78,0,0,0-4,6.88v225c0,1.8.9,2.83,2.2,2.83a3.55,3.55,0,0,0,1.77-.54L269,314.73c2.2-1.26,4-2.87,4-5.4V82.81c0-1.79-.89-2.83-2.2-2.83Z" style="fill:#e0e0e0"></path><path d="M214,151.92c16.71-9.64,30.25-1.83,30.25,17.46S230.7,212.12,214,221.76s-30.24,1.83-30.24-17.46S197.29,161.56,214,151.92Z" style="fill:#407BFF"></path><path d="M216.49,164.41l4.27,9.06,9.54-3.66c1.32-.5,1.84,1.35.89,3.13l-6.9,13,1.63,11.73c.22,1.61-1.15,3.74-2.33,3.59l-8.53-1-8.54,10.91c-1.17,1.5-2.55,1-2.32-.91l1.63-13.62-6.91-5c-.95-.69-.43-3.15.89-4.16l9.54-7.36,4.27-14C214.21,164.14,215.91,163.16,216.49,164.41Z" style="fill:#fafafa"></path><path d="M172.52,273.14c0,4.14,3.1,5.7,6.91,3.5l64.81-37.42c3.81-2.2,6.9-7.33,6.9-11.47s-3.09-5.69-6.9-3.49l-64.81,37.41C175.62,263.88,172.52,269,172.52,273.14Z" style="fill:#407BFF"></path><path d="M172.52,273.14c0,4.14,3.1,5.7,6.91,3.5l64.81-37.42c3.81-2.2,6.9-7.33,6.9-11.47s-3.09-5.69-6.9-3.49l-64.81,37.41C175.62,263.88,172.52,269,172.52,273.14Z" style="fill:#fff;opacity:0.6000000000000001"></path><path d="M179.15,266.83l65.37-37.75c1.27-.73,2.3-.21,2.3,1.17a4.94,4.94,0,0,1-2.3,3.82l-65.37,37.75c-1.27.73-2.31.21-2.31-1.17A4.91,4.91,0,0,1,179.15,266.83Z" style="fill:#455a64"></path><path d="M172.52,298.08c0,4.14,3.1,5.7,6.91,3.5l64.81-37.42c3.81-2.2,6.9-7.33,6.9-11.47s-3.09-5.69-6.9-3.49l-64.81,37.41C175.62,288.82,172.52,294,172.52,298.08Z" style="fill:#407BFF"></path><path d="M172.52,298.08c0,4.14,3.1,5.7,6.91,3.5l64.81-37.42c3.81-2.2,6.9-7.33,6.9-11.47s-3.09-5.69-6.9-3.49l-64.81,37.41C175.62,288.82,172.52,294,172.52,298.08Z" style="fill:#fff;opacity:0.6000000000000001"></path><path d="M183.32,289.36c1.2-.69,2.16-.13,2.16,1.24a4.77,4.77,0,0,1-2.16,3.75c-1.19.68-2.16.13-2.16-1.25A4.78,4.78,0,0,1,183.32,289.36Z" style="fill:#455a64"></path><ellipse cx="190.14" cy="287.92" rx="3.05" ry="1.76" transform="translate(-154.27 308.69) rotate(-60.01)" style="fill:#455a64"></ellipse><path d="M197,281.49c1.2-.69,2.16-.13,2.16,1.24a4.77,4.77,0,0,1-2.16,3.75c-1.19.68-2.16.13-2.16-1.25A4.78,4.78,0,0,1,197,281.49Z" style="fill:#455a64"></path><path d="M203.77,277.55c1.19-.69,2.16-.13,2.16,1.25a4.78,4.78,0,0,1-2.16,3.74c-1.19.69-2.16.13-2.16-1.25A4.79,4.79,0,0,1,203.77,277.55Z" style="fill:#455a64"></path><path d="M210.59,273.62c1.19-.69,2.15-.13,2.15,1.24a4.79,4.79,0,0,1-2.15,3.75c-1.2.69-2.16.13-2.16-1.25A4.75,4.75,0,0,1,210.59,273.62Z" style="fill:#455a64"></path><ellipse cx="217.4" cy="272.18" rx="3.05" ry="1.76" transform="translate(-127 324.43) rotate(-60.01)" style="fill:#455a64"></ellipse><path d="M224.22,265.75c1.19-.69,2.16-.13,2.16,1.24a4.8,4.8,0,0,1-2.16,3.75c-1.2.69-2.16.13-2.16-1.25A4.75,4.75,0,0,1,224.22,265.75Z" style="fill:#455a64"></path><ellipse cx="231.03" cy="264.31" rx="3.05" ry="1.76" transform="translate(-113.37 332.3) rotate(-60.01)" style="fill:#455a64"></ellipse><path d="M237.85,257.88c1.19-.69,2.16-.13,2.16,1.25a4.79,4.79,0,0,1-2.16,3.74c-1.2.69-2.16.13-2.16-1.25A4.75,4.75,0,0,1,237.85,257.88Z" style="fill:#455a64"></path><path d="M244.66,253.94c1.19-.69,2.16-.13,2.16,1.25a4.78,4.78,0,0,1-2.16,3.74c-1.19.69-2.16.13-2.16-1.25A4.79,4.79,0,0,1,244.66,253.94Z" style="fill:#455a64"></path><path d="M201.32,306.4,231,289.27c2.54-1.47,4.6-.28,4.6,2.66v4.33a10.19,10.19,0,0,1-4.6,8l-29.67,17.13c-2.55,1.47-4.61.28-4.61-2.66v-4.33A10.17,10.17,0,0,1,201.32,306.4Z" style="fill:#407BFF"></path><path d="M201,313.91v.28c0,1.47,1,2.07,2.31,1.33L229,300.73a5.1,5.1,0,0,0,2.3-4v-.29c0-1.47-1-2.07-2.3-1.33l-25.63,14.8A5.07,5.07,0,0,0,201,313.91Z" style="fill:#fafafa"></path></g></g><g id="freepik--Terms--inject-3"><g id="freepik--Message--inject-3"><g id="freepik--Code--inject-3"><path d="M194.72,216.39l120.67-69.66c1.27-.73,2.3-.14,2.3,1.33v96a5.09,5.09,0,0,1-2.3,4L194.72,317.7c-1.27.74-2.3.14-2.3-1.33v-96A5.09,5.09,0,0,1,194.72,216.39Z" style="fill:#37474f;opacity:0.7000000000000001"></path><path d="M193.09,218.11l-5.87-3.4a4.69,4.69,0,0,0-.68,2.27v96a1.66,1.66,0,0,0,.66,1.48c.43.25,5.45,3.12,5.85,3.38a1.66,1.66,0,0,1-.63-1.47v-96A4.75,4.75,0,0,1,193.09,218.11Z" style="fill:#263238;opacity:0.7000000000000001"></path><path d="M316.93,146.52c-.82-.5-5.39-3.12-5.76-3.34a1.62,1.62,0,0,0-1.65.14L188.85,213a4.74,4.74,0,0,0-1.63,1.72l5.87,3.4a4.74,4.74,0,0,1,1.63-1.72L315.4,146.73A1.69,1.69,0,0,1,316.93,146.52Z" style="fill:#455a64;opacity:0.5"></path></g><path d="M211,217.33a.15.15,0,0,1,.18,0,.33.33,0,0,1,.08.24v1.56a.8.8,0,0,1-.08.33.51.51,0,0,1-.18.22l-1.68,1v7.56a.8.8,0,0,1-.08.33.51.51,0,0,1-.18.22l-1.26.72a.14.14,0,0,1-.18,0,.32.32,0,0,1-.07-.23v-7.57l-1.69,1a.14.14,0,0,1-.18,0,.29.29,0,0,1-.08-.23v-1.56a.8.8,0,0,1,.08-.33.46.46,0,0,1,.18-.22Z" style="fill:#fafafa"></path><path d="M217.37,221.6a.15.15,0,0,1,.19,0,.33.33,0,0,1,.07.24v1.56a.71.71,0,0,1-.07.32.56.56,0,0,1-.19.23l-4.53,2.62a.14.14,0,0,1-.18,0,.28.28,0,0,1-.08-.23v-9.52a.67.67,0,0,1,.08-.33.46.46,0,0,1,.18-.22l4.46-2.58a.14.14,0,0,1,.18,0,.3.3,0,0,1,.08.23v1.56a.8.8,0,0,1-.08.33.46.46,0,0,1-.18.22l-3,1.7v1.59l2.74-1.58a.14.14,0,0,1,.18,0,.3.3,0,0,1,.08.23v1.57a.76.76,0,0,1-.08.32.46.46,0,0,1-.18.22l-2.74,1.58v1.65Z" style="fill:#fafafa"></path><path d="M222.06,210.93a3.39,3.39,0,0,1,1.13-.44,1.19,1.19,0,0,1,.85.13,1.36,1.36,0,0,1,.54.74,4.47,4.47,0,0,1,.18,1.39,6.62,6.62,0,0,1-.29,2,5.19,5.19,0,0,1-.84,1.6l1.18,2.83a.32.32,0,0,1,0,.14.66.66,0,0,1-.06.27.45.45,0,0,1-.15.18l-1.3.75c-.13.07-.22.08-.27,0a.5.5,0,0,1-.13-.19l-1.07-2.54-.88.51v3.15a.78.78,0,0,1-.07.33.47.47,0,0,1-.19.22l-1.25.73a.14.14,0,0,1-.18,0,.32.32,0,0,1-.08-.23V213a.8.8,0,0,1,.08-.33.46.46,0,0,1,.18-.22ZM221,216l1.08-.62a2.09,2.09,0,0,0,.67-.62,1.74,1.74,0,0,0,.26-1c0-.41-.08-.65-.26-.7a.83.83,0,0,0-.67.15l-1.08.62Z" style="fill:#fafafa"></path><path d="M229.14,214.56a1.09,1.09,0,0,1-.13-.17l-.9-1.91v4.88a.77.77,0,0,1-.07.32.49.49,0,0,1-.19.23l-1.25.72a.15.15,0,0,1-.18,0,.33.33,0,0,1-.08-.24v-9.52a.8.8,0,0,1,.08-.33.51.51,0,0,1,.18-.22l1.11-.64c.13-.07.23-.07.29,0a.92.92,0,0,1,.12.16l1.55,3.19,1.56-5a2.47,2.47,0,0,1,.12-.31.65.65,0,0,1,.29-.32l1.11-.65a.14.14,0,0,1,.18,0,.3.3,0,0,1,.08.23v9.52a.8.8,0,0,1-.08.33.46.46,0,0,1-.18.22l-1.26.72a.13.13,0,0,1-.18,0,.32.32,0,0,1-.08-.23v-4.88l-.9,2.95a3.32,3.32,0,0,1-.12.32.56.56,0,0,1-.23.25l-.61.36C229.27,214.61,229.2,214.61,229.14,214.56Z" style="fill:#fafafa"></path><path d="M237.31,202a2.56,2.56,0,0,1,1.13-.38,1.66,1.66,0,0,1,.88.19,1.51,1.51,0,0,1,.59.61,1.92,1.92,0,0,1,.22.86.58.58,0,0,1-.06.26.47.47,0,0,1-.14.18l-1.26.72a.36.36,0,0,1-.21.07.44.44,0,0,1-.17-.08l-.09-.1a.5.5,0,0,0-.18-.11.53.53,0,0,0-.29,0,1.06,1.06,0,0,0-.42.16,2.71,2.71,0,0,0-.35.24,1.59,1.59,0,0,0-.29.29,1.13,1.13,0,0,0-.21.35,1,1,0,0,0-.09.41.42.42,0,0,0,.1.32.41.41,0,0,0,.3.09,2.27,2.27,0,0,0,.57-.08l.88-.23a3.27,3.27,0,0,1,.92-.12,1.13,1.13,0,0,1,.66.25,1.42,1.42,0,0,1,.39.66,3.87,3.87,0,0,1,.13,1.12,4.9,4.9,0,0,1-.22,1.47,6,6,0,0,1-.62,1.37,6.25,6.25,0,0,1-.94,1.18,5.35,5.35,0,0,1-1.18.9,2.9,2.9,0,0,1-1.19.42,1.62,1.62,0,0,1-.92-.16,1.49,1.49,0,0,1-.61-.63,2.14,2.14,0,0,1-.23-1,.54.54,0,0,1,.07-.27.35.35,0,0,1,.13-.17l1.26-.73a.46.46,0,0,1,.21-.07.34.34,0,0,1,.15.07,1.29,1.29,0,0,1,.12.12.83.83,0,0,0,.2.16.68.68,0,0,0,.33,0,1,1,0,0,0,.48-.17,3.91,3.91,0,0,0,.85-.66,1.22,1.22,0,0,0,.34-.81.31.31,0,0,0-.13-.3.57.57,0,0,0-.37-.05,3.3,3.3,0,0,0-.64.12l-.91.23a1.37,1.37,0,0,1-1.44-.25,2.64,2.64,0,0,1-.46-1.76,5.26,5.26,0,0,1,.19-1.32,6.87,6.87,0,0,1,.54-1.33,5.91,5.91,0,0,1,.86-1.19A4.61,4.61,0,0,1,237.31,202Z" style="fill:#fafafa"></path><path d="M244,202.09a8.2,8.2,0,0,1,.24-1.69,7.09,7.09,0,0,1,.58-1.6,6.58,6.58,0,0,1,.92-1.39,4.78,4.78,0,0,1,1.25-1,2.52,2.52,0,0,1,1.24-.4,1.42,1.42,0,0,1,.93.32,2,2,0,0,1,.58.93,5,5,0,0,1,.24,1.42c0,.42,0,.86,0,1.32s0,.89,0,1.3a8.1,8.1,0,0,1-.24,1.69,8,8,0,0,1-.58,1.62,6.3,6.3,0,0,1-.93,1.38,4.86,4.86,0,0,1-1.24,1,2.5,2.5,0,0,1-1.25.41,1.3,1.3,0,0,1-.92-.32,2,2,0,0,1-.58-.94,5,5,0,0,1-.24-1.42c0-.39,0-.82,0-1.28S244,202.52,244,202.09Zm4.2.12c0-.18,0-.38,0-.6s0-.44,0-.67,0-.44,0-.65,0-.39,0-.55a2.17,2.17,0,0,0-.1-.62.9.9,0,0,0-.23-.41.56.56,0,0,0-.36-.15,1.12,1.12,0,0,0-.52.17,2,2,0,0,0-.52.43,2.65,2.65,0,0,0-.37.57,3.78,3.78,0,0,0-.23.67,6,6,0,0,0-.1.74c0,.18,0,.37,0,.58s0,.43,0,.66,0,.45,0,.66,0,.41,0,.58a1.7,1.7,0,0,0,.33,1c.2.21.49.2.89,0a2.15,2.15,0,0,0,.88-1A4.16,4.16,0,0,0,248.24,202.21Z" style="fill:#fafafa"></path><path d="M256.25,191.2a.14.14,0,0,1,.18,0,.33.33,0,0,1,.07.24V193a.74.74,0,0,1-.07.32.54.54,0,0,1-.18.23l-2.87,1.65v2l2.68-1.55a.14.14,0,0,1,.18,0,.32.32,0,0,1,.07.23v1.57a.77.77,0,0,1-.07.32.46.46,0,0,1-.18.22l-2.68,1.54v3.19a.74.74,0,0,1-.07.32.46.46,0,0,1-.18.22l-1.26.73a.15.15,0,0,1-.18,0,.33.33,0,0,1-.08-.24v-9.52a.72.72,0,0,1,.08-.32.49.49,0,0,1,.18-.23Z" style="fill:#fafafa"></path><path d="M262.84,187.24a2.7,2.7,0,0,1,1.13-.38,1.66,1.66,0,0,1,.88.19,1.57,1.57,0,0,1,.59.61,1.92,1.92,0,0,1,.22.86.59.59,0,0,1-.07.26.34.34,0,0,1-.14.18l-1.25.72a.3.3,0,0,1-.21.07.33.33,0,0,1-.17-.08l-.09-.1a.5.5,0,0,0-.18-.11.54.54,0,0,0-.29,0,1.06,1.06,0,0,0-.42.16,2.71,2.71,0,0,0-.35.24,1.59,1.59,0,0,0-.29.29,1.38,1.38,0,0,0-.22.35,1.15,1.15,0,0,0-.08.41.35.35,0,0,0,.4.41,2.39,2.39,0,0,0,.57-.08l.88-.23a3.27,3.27,0,0,1,.92-.12,1.13,1.13,0,0,1,.66.25,1.42,1.42,0,0,1,.39.66,4.25,4.25,0,0,1,.13,1.12,5.13,5.13,0,0,1-.22,1.47,6.26,6.26,0,0,1-.62,1.37,6,6,0,0,1-.94,1.18,5.35,5.35,0,0,1-1.18.9,2.63,2.63,0,0,1-1.19.42,1.6,1.6,0,0,1-.92-.16,1.49,1.49,0,0,1-.61-.63,2.14,2.14,0,0,1-.23-1,.66.66,0,0,1,.06-.27.42.42,0,0,1,.14-.17l1.26-.73a.46.46,0,0,1,.21-.07.34.34,0,0,1,.15.07,1.56,1.56,0,0,1,.11.12,1.16,1.16,0,0,0,.21.16.68.68,0,0,0,.33,0,1,1,0,0,0,.48-.17,3.91,3.91,0,0,0,.85-.66,1.2,1.2,0,0,0,.34-.81.34.34,0,0,0-.13-.3.57.57,0,0,0-.37,0,3.3,3.3,0,0,0-.64.12L262,194a1.37,1.37,0,0,1-1.44-.25,2.58,2.58,0,0,1-.46-1.76,4.84,4.84,0,0,1,.19-1.32,5.81,5.81,0,0,1,.54-1.33,5.91,5.91,0,0,1,.86-1.19A4.61,4.61,0,0,1,262.84,187.24Z" style="fill:#fafafa"></path><path d="M272.08,190a.14.14,0,0,1,.18,0,.32.32,0,0,1,.08.23v1.57a.79.79,0,0,1-.08.32.46.46,0,0,1-.18.22L267.54,195a.14.14,0,0,1-.18,0,.33.33,0,0,1-.08-.24v-9.52a.79.79,0,0,1,.08-.32.46.46,0,0,1,.18-.22L272,182.1a.14.14,0,0,1,.18,0,.33.33,0,0,1,.08.24v1.56a.8.8,0,0,1-.08.33.51.51,0,0,1-.18.22l-2.95,1.7v1.59l2.74-1.58a.15.15,0,0,1,.18,0,.33.33,0,0,1,.08.24V188a.8.8,0,0,1-.08.33.46.46,0,0,1-.18.22l-2.74,1.58v1.65Z" style="fill:#fafafa"></path><path d="M276.77,179.35a3.68,3.68,0,0,1,1.13-.45,1.26,1.26,0,0,1,.85.13,1.33,1.33,0,0,1,.53.75,4.1,4.1,0,0,1,.19,1.38,6.33,6.33,0,0,1-.3,2,5.42,5.42,0,0,1-.84,1.6l1.19,2.82a.4.4,0,0,1,0,.15.63.63,0,0,1-.07.26.35.35,0,0,1-.15.18l-1.3.75c-.12.08-.22.09-.27,0a.8.8,0,0,1-.13-.19l-1.06-2.54-.88.51v3.15a.72.72,0,0,1-.08.32.49.49,0,0,1-.18.23l-1.26.72a.14.14,0,0,1-.18,0,.33.33,0,0,1-.07-.24v-9.52a.77.77,0,0,1,.07-.32.46.46,0,0,1,.18-.22Zm-1.08,5.09,1.08-.63a1.87,1.87,0,0,0,.66-.62,1.69,1.69,0,0,0,.27-1c0-.42-.09-.65-.27-.71a.9.9,0,0,0-.66.15l-1.08.63Z" style="fill:#fafafa"></path><path d="M282.86,186.15q-.37.21-.51-.3l-2-8.08c0-.06,0-.1,0-.12v-.06a.65.65,0,0,1,.06-.26.35.35,0,0,1,.15-.18l1.2-.7c.13-.07.22-.08.28,0a.4.4,0,0,1,.1.18l1.33,5.72,1.33-7.25a.81.81,0,0,1,.1-.3.62.62,0,0,1,.27-.29l1.21-.69a.12.12,0,0,1,.15,0,.25.25,0,0,1,.06.19.13.13,0,0,1,0,.06s0,.07,0,.15l-1.95,10.34a1.23,1.23,0,0,1-.51.88Z" style="fill:#fafafa"></path><path d="M288.23,183.05a.14.14,0,0,1-.18,0,.29.29,0,0,1-.08-.24v-9.52a.61.61,0,0,1,.08-.32.49.49,0,0,1,.18-.23l1.25-.72a.14.14,0,0,1,.18,0,.33.33,0,0,1,.08.24v9.52a.76.76,0,0,1-.08.32.54.54,0,0,1-.18.23Z" style="fill:#fafafa"></path><path d="M293.1,173.84c0,.13,0,.31,0,.54v1.41c0,.23,0,.4,0,.53a3.5,3.5,0,0,0,.08.59.92.92,0,0,0,.22.43.47.47,0,0,0,.36.16,1,1,0,0,0,.54-.17,2.18,2.18,0,0,0,.54-.43,2.36,2.36,0,0,0,.34-.48,2.66,2.66,0,0,0,.21-.5,2.93,2.93,0,0,0,.11-.45,1.72,1.72,0,0,1,.11-.39.52.52,0,0,1,.22-.22l1.25-.72a.12.12,0,0,1,.15,0,.3.3,0,0,1,.06.2,6.15,6.15,0,0,1-.24,1.55,6.69,6.69,0,0,1-.63,1.51,7.33,7.33,0,0,1-.94,1.32,4.88,4.88,0,0,1-1.18,1,2.53,2.53,0,0,1-1.23.39,1.37,1.37,0,0,1-.92-.33,2.1,2.1,0,0,1-.59-.93,5.33,5.33,0,0,1-.23-1.41c0-.39,0-.82,0-1.28s0-.91,0-1.34a8,8,0,0,1,.82-3.29,6.58,6.58,0,0,1,.92-1.39,4.79,4.79,0,0,1,1.23-1,2.52,2.52,0,0,1,1.18-.39,1.55,1.55,0,0,1,.94.23,1.66,1.66,0,0,1,.63.78,3.48,3.48,0,0,1,.24,1.28.62.62,0,0,1-.06.26.35.35,0,0,1-.15.18l-1.25.73c-.11.06-.18.07-.22,0a.58.58,0,0,1-.11-.27,1.35,1.35,0,0,0-.11-.32.61.61,0,0,0-.21-.26.57.57,0,0,0-.34-.09,1.4,1.4,0,0,0-.54.19,2.19,2.19,0,0,0-.54.46,2.22,2.22,0,0,0-.36.59,3,3,0,0,0-.22.66A5.56,5.56,0,0,0,293.1,173.84Z" style="fill:#fafafa"></path><path d="M303.55,171.84a.14.14,0,0,1,.18,0,.3.3,0,0,1,.08.23v1.56a.8.8,0,0,1-.08.33.46.46,0,0,1-.18.22L299,176.82a.14.14,0,0,1-.18,0,.33.33,0,0,1-.07-.24v-9.52a.74.74,0,0,1,.07-.32.46.46,0,0,1,.18-.22l4.46-2.58c.08,0,.14,0,.19,0a.33.33,0,0,1,.07.24v1.56a.71.71,0,0,1-.07.32.45.45,0,0,1-.19.23l-2.94,1.7v1.59l2.73-1.58a.15.15,0,0,1,.19,0,.33.33,0,0,1,.07.24v1.56a.78.78,0,0,1-.07.33.6.6,0,0,1-.19.22l-2.73,1.58v1.65Z" style="fill:#fafafa"></path><path d="M257.53,215.39l11.91-6.87c.66-.38,1.19-.08,1.2.69v.3a2.65,2.65,0,0,1-1.2,2.07l-11.91,6.88c-.66.38-1.2.07-1.2-.69v-.3A2.65,2.65,0,0,1,257.53,215.39Z" style="fill:#fafafa"></path><path d="M205.68,245.32l46.65-26.92c.66-.38,1.2-.07,1.2.7v.3a2.62,2.62,0,0,1-1.2,2.07l-46.65,26.92c-.66.38-1.19.07-1.19-.69v-.3A2.66,2.66,0,0,1,205.68,245.32Z" style="fill:#fafafa"></path><path d="M274.81,205.42l27.84-16.08c.67-.39,1.2-.08,1.2.69v.3a2.64,2.64,0,0,1-1.19,2.07l-27.85,16.08c-.66.38-1.2.07-1.2-.69v-.3A2.65,2.65,0,0,1,274.81,205.42Z" style="fill:#fafafa"></path><path d="M238.41,234.48l11.91-6.88c.66-.38,1.2-.07,1.2.69v.3a2.65,2.65,0,0,1-1.2,2.08l-11.91,6.87c-.66.38-1.2.07-1.2-.69v-.3A2.65,2.65,0,0,1,238.41,234.48Z" style="fill:#fafafa"></path><path d="M256,224.29l46.64-26.91c.67-.39,1.2-.08,1.2.69v.3a2.64,2.64,0,0,1-1.19,2.07L256,227.36c-.67.38-1.2.07-1.2-.69v-.3A2.64,2.64,0,0,1,256,224.29Z" style="fill:#fafafa"></path><path d="M205.61,253.42l27.85-16.08c.66-.39,1.2-.08,1.2.69v.3a2.65,2.65,0,0,1-1.2,2.07l-27.85,16.08c-.66.39-1.19.08-1.19-.69v-.3A2.64,2.64,0,0,1,205.61,253.42Z" style="fill:#fafafa"></path><path d="M205.68,237.27l20.41-11.78c.66-.38,1.19-.07,1.19.69v.3a2.66,2.66,0,0,1-1.19,2.08l-20.41,11.78c-.66.38-1.19.07-1.19-.7v-.29A2.64,2.64,0,0,1,205.68,237.27Z" style="fill:#fafafa"></path><path d="M284.45,191.8l18.44-10.65c.67-.39,1.2-.08,1.2.69v.3a2.62,2.62,0,0,1-1.2,2.07l-18.44,10.65c-.66.38-1.2.07-1.2-.69v-.3A2.65,2.65,0,0,1,284.45,191.8Z" style="fill:#fafafa"></path><path d="M231.28,222.48l46.65-26.92c.66-.38,1.2-.07,1.2.69v.3a2.65,2.65,0,0,1-1.2,2.07l-46.65,26.92c-.66.38-1.2.07-1.2-.69v-.3A2.65,2.65,0,0,1,231.28,222.48Z" style="fill:#fafafa"></path><path d="M257.53,240.34l11.91-6.87c.66-.39,1.19-.08,1.2.69v.3a2.65,2.65,0,0,1-1.2,2.07l-11.91,6.88c-.66.38-1.2.07-1.2-.69v-.3A2.65,2.65,0,0,1,257.53,240.34Z" style="fill:#fafafa"></path><path d="M205.68,270.27l46.65-26.92c.66-.38,1.2-.07,1.2.7v.3a2.62,2.62,0,0,1-1.2,2.07l-46.65,26.92c-.66.38-1.19.07-1.19-.69v-.3A2.66,2.66,0,0,1,205.68,270.27Z" style="fill:#fafafa"></path><path d="M274.81,230.37l27.84-16.09c.67-.38,1.2-.07,1.2.7v.3a2.64,2.64,0,0,1-1.19,2.07l-27.85,16.08c-.66.38-1.2.07-1.2-.69v-.3A2.65,2.65,0,0,1,274.81,230.37Z" style="fill:#fafafa"></path><path d="M238.41,259.43l11.91-6.88c.66-.38,1.2-.07,1.2.69v.3a2.65,2.65,0,0,1-1.2,2.08l-11.91,6.87c-.66.38-1.2.07-1.2-.69v-.3A2.65,2.65,0,0,1,238.41,259.43Z" style="fill:#fafafa"></path><path d="M256,249.24l46.64-26.91c.67-.39,1.2-.08,1.2.69v.3a2.64,2.64,0,0,1-1.19,2.07L256,252.31c-.67.38-1.2.07-1.2-.69v-.3A2.64,2.64,0,0,1,256,249.24Z" style="fill:#fafafa"></path><path d="M205.61,278.37l27.85-16.08c.66-.39,1.2-.08,1.2.69v.3a2.65,2.65,0,0,1-1.2,2.07l-27.85,16.08c-.66.39-1.19.08-1.19-.69v-.3A2.64,2.64,0,0,1,205.61,278.37Z" style="fill:#fafafa"></path><path d="M205.68,262.22l20.41-11.78c.66-.38,1.19-.07,1.19.69v.3a2.66,2.66,0,0,1-1.19,2.08l-20.41,11.78c-.66.38-1.19.07-1.19-.7v-.29A2.64,2.64,0,0,1,205.68,262.22Z" style="fill:#fafafa"></path><path d="M284.45,216.74l18.44-10.65c.67-.38,1.2-.07,1.2.7v.3a2.62,2.62,0,0,1-1.2,2.07l-18.44,10.65c-.66.38-1.2.07-1.2-.69v-.3A2.68,2.68,0,0,1,284.45,216.74Z" style="fill:#fafafa"></path><path d="M231.28,247.43l46.65-26.92c.66-.38,1.2-.07,1.2.69v.3a2.65,2.65,0,0,1-1.2,2.07l-46.65,26.92c-.66.38-1.2.07-1.2-.69v-.3A2.65,2.65,0,0,1,231.28,247.43Z" style="fill:#fafafa"></path><path d="M278.83,248.17c3-1.72,5.4-.33,5.4,3.12a11.94,11.94,0,0,1-5.4,9.35c-3,1.72-5.4.33-5.4-3.12A11.94,11.94,0,0,1,278.83,248.17Z" style="fill:#407BFF"></path><path d="M279,258.51a1,1,0,0,1-.7-.29l-2.37-2.3a1,1,0,0,1,1.39-1.43l1.32,1.29,4.72-11.23a1,1,0,1,1,1.84.77l-5.28,12.58a1,1,0,0,1-.72.59Z" style="fill:#fafafa"></path><path d="M289.28,243.13l5-2.86c1-.58,1.84-.11,1.84,1.07v5.72a4.1,4.1,0,0,1-1.84,3.19l-5,2.86c-1,.59-1.84.11-1.84-1.06v-5.72A4.08,4.08,0,0,1,289.28,243.13Z" style="fill:#fff;opacity:0.30000000000000004"></path><path d="M222.63,280.37c3-1.72,5.4-.32,5.4,3.12a11.93,11.93,0,0,1-5.4,9.36c-3,1.72-5.4.32-5.4-3.12A12,12,0,0,1,222.63,280.37Z" style="fill:#f28f8f"></path><path d="M233,275.69l5-2.86c1-.59,1.84-.11,1.84,1.06v5.72a4,4,0,0,1-1.84,3.19l-5,2.87c-1,.58-1.84.11-1.84-1.07v-5.72A4.08,4.08,0,0,1,233,275.69Z" style="fill:#fff;opacity:0.30000000000000004"></path><path d="M224.65,289.55a1,1,0,0,1-.69-.28l-4-3.87a1,1,0,1,1,1.38-1.43l4,3.86a1,1,0,0,1,0,1.41A1,1,0,0,1,224.65,289.55Z" style="fill:#fafafa"></path><path d="M220.45,292.22a.92.92,0,0,1-.42-.1,1,1,0,0,1-.47-1.32l4.35-9.23a1,1,0,0,1,1.33-.47,1,1,0,0,1,.47,1.32l-4.35,9.23A1,1,0,0,1,220.45,292.22Z" style="fill:#fafafa"></path></g></g><g id="freepik--speach-bubble--inject-3"><g id="freepik--speach-bubble--inject-3"><path d="M387.65,121.84l-3.28-6.18L387,108v-4.67L378.92,108v4.67l3.48,6a.51.51,0,0,0,.23.21h0Z" style="fill:#407BFF"></path><path d="M387.65,121.84l-3.28-6.18L387,108v-4.67L378.92,108v4.67l3.48,6a.51.51,0,0,0,.23.21h0Z" style="opacity:0.2"></path><path d="M407,66.26a5.38,5.38,0,0,0-2.43-4.2l-2-1.14a5.38,5.38,0,0,0-4.85,0L367.44,78.43a5.34,5.34,0,0,0-2.42,4.2v33.3a5.34,5.34,0,0,0,2.42,4.2l2,1.14a5.36,5.36,0,0,0,4.84,0l9.74-5.62,3.47,6a.52.52,0,0,0,.94-.09L392.07,111l12.46-7.22A5.35,5.35,0,0,0,407,99.57Z" style="fill:#407BFF"></path><path d="M365,115.93a5.34,5.34,0,0,0,2.42,4.2l2,1.14a5.42,5.42,0,0,0,4.43.2c-1.14.43-2-.22-2-1.6V86.57a4.92,4.92,0,0,1,.71-2.39l-6.82-3.94a5,5,0,0,0-.71,2.39Z" style="opacity:0.2"></path><path d="M406.88,65.57c-.28-1-1.22-1.35-2.34-.71L374.26,82.37a4.88,4.88,0,0,0-1.7,1.81l-6.82-3.93a4.88,4.88,0,0,1,1.7-1.81l30.27-17.51a5.38,5.38,0,0,1,4.85,0l2,1.14A5.34,5.34,0,0,1,406.88,65.57Z" style="fill:#fff;opacity:0.5"></path><path id="freepik--Check--inject-3" d="M399.48,74.17a2.79,2.79,0,0,0-3.64,1.49l-10.52,25-2.5-2.43a2.78,2.78,0,0,0-3.88,4l5.43,5.28a2.79,2.79,0,0,0,1.94.78,3.41,3.41,0,0,0,.55,0,2.77,2.77,0,0,0,2-1.65L401,77.82A2.79,2.79,0,0,0,399.48,74.17Z" style="fill:#fafafa"></path></g></g><g id="freepik--Character--inject-3"><g id="freepik--character--inject-3"><path d="M406.82,187c7.12,0,10.69,2.36,13.66,8.86,2.84,6.21,9.74,28.1,9.31,32.48s-15.69,23.32-15.69,23.32l-6.39-7.81,10.36-16.83-9.71-20.25Z" style="fill:#ffa8a7"></path><g id="freepik--character--inject-3"><path d="M402.56,373.7,397,381.38s2.75,2.46,8.22,2.67c4.95.19,6.31-1.68,6.49-2.07.47-1,.26-3.08.09-5.17-.13-1.58-.09-4.29-1-4.29Z" style="fill:#263238"></path><path d="M394.37,375.78s-10.78,1.59-13.31,1.32c-2.61.25-6.55.27-8.56.85-3.32.95-1.26,6,5,7.67,4,1.08,10.56,1.15,14.67,2.38s7,3.08,11.82,1.72c3.26-.93,3.39-3.55,3.08-5.48-.53-3.21-.62-6.32-2.36-6.66C402.56,377.15,394.37,375.78,394.37,375.78Z" style="fill:#263238"></path><path d="M421.49,254.14c-.93-8.07-5.32-14.4-9.94-21.58L399.62,267.7l-3,11s.21,25.25.6,31.29,4.44,55.16,4.44,55.16l.73,9.7c6.87,1.9,8.31.1,8.38-1.4s.82-7.48.82-7.48,6.52-35.92,6.78-41.12a47,47,0,0,0-2.54-17.9C417.16,294.35,423.47,271.19,421.49,254.14Z" style="fill:#ffa8a7"></path><path d="M401.62,365.16l.73,9.7c6.87,1.9,8.31.1,8.38-1.4,0-.34.07-.93.14-1.62-1.11,2.48-3.38,1.76-4.68-1.78s-7-34.4-7-34.4C400.38,350.12,401.62,365.16,401.62,365.16Z" style="fill:#f28f8f"></path><path d="M411.55,232.56l-34.95,4s-8.63,61.71-9.29,67.53a30.49,30.49,0,0,0,3.43,18.8c2.33,4.75,20.81,45.39,23,52.86,0,0-9,1-12.66,1.31-4.22,1.1-2.35,2.58-1.07,3.46,1.6,1.09,4.95,1,8.62,1.26,3.91.29,7.3.12,10.64.16,5.75.07,6-2.6,6-2.6h0c-.85-3.75-1.58-7.52-2.16-11.31-1.75-11.31-5.49-34.3-8-41.73-1.92-5.76-7.2-12.8-7.2-12.8l11.69-45.83c13.21-3.93,17.53-9.57,19.05-17.6C419.92,243.48,414,236.59,411.55,232.56Z" style="fill:#ffa8a7"></path><polygon points="390.19 180.52 391.63 195.53 405.05 194.7 403.97 178.05 390.19 180.52" style="fill:#ffa8a7"></polygon><path d="M417.1,193.4c-1.36-4-4.14-6.3-10.28-6.37l-2.26.07c-.43,2.21-7,4-13.57,1.74a57.83,57.83,0,0,0-8.41,1.48,47.58,47.58,0,0,0-6.9,22.36c-.17,4.37.34,9.22,1.26,18.27-1.55,10.33-5.17,30.07-7.49,51.06a6.08,6.08,0,0,0,5.1-1.85c1.49-1.59,3.17-4.52,4.88-14.48,0,12.59,3.2,17,7.58,19.78A21,21,0,0,0,399,288.62c16.43-1.26,19.59-4,21.73-8.94,2.26-16.33,2.39-24.3,1.19-29.14s-3.78-8.86-7.16-15c-1.42-2.61-3.36-7.45-3-8.94,1.84-7.19,4.82-14.14,5.66-20.58C418.08,200.64,418,196.07,417.1,193.4Z" style="fill:#407BFF"></path><g style="opacity:0.6000000000000001"><path d="M417.1,193.4c-1.36-4-4.14-6.3-10.28-6.37l-2.26.07c-.43,2.21-7,4-13.57,1.74a57.83,57.83,0,0,0-8.41,1.48,47.58,47.58,0,0,0-6.9,22.36c-.17,4.37.34,9.22,1.26,18.27-1.55,10.33-5.17,30.07-7.49,51.06a6.08,6.08,0,0,0,5.1-1.85c1.49-1.59,3.17-4.52,4.88-14.48,0,12.59,3.2,17,7.58,19.78A21,21,0,0,0,399,288.62c16.43-1.26,19.59-4,21.73-8.94,2.26-16.33,2.39-24.3,1.19-29.14s-3.78-8.86-7.16-15c-1.42-2.61-3.36-7.45-3-8.94,1.84-7.19,4.82-14.14,5.66-20.58C418.08,200.64,418,196.07,417.1,193.4Z"></path></g><path d="M382.58,190.32c-7.19.34-10.36,7.21-10.66,13.66-.56,11.91-1.34,22.63-3,27.67-1.82,5.4-13.47,16.51-17,17.51s-8.2-1-9.45.74,3.8,2.4,4,3.31-6.36,2.86-10.08,2.22-2.77,5.72,2.81,8.23,12.82.52,19.57-4.39,19.08-14.73,22.18-22.18A81,81,0,0,0,387,214.36C390.19,192.74,382.58,190.32,382.58,190.32Z" style="fill:#ffa8a7"></path><path d="M373,151.66a6.62,6.62,0,0,1,0-2.13,6.4,6.4,0,0,1,8.45-4.87,6.3,6.3,0,0,1,3.57-6.88,8,8,0,0,1,6.17.24,4.92,4.92,0,0,1,2.69,2.31A6.76,6.76,0,0,1,406.25,142c2-.46,4.92.45,5.84,2.48,1,2.31-.24,5.16.24,7.58.31,1.56,1,3,1.27,4.62a38.57,38.57,0,0,1,.5,5.36c.29,7.41-16.91,12.23-16.57,17.31l-9.17-11.16c0-.46-1.3-1.62-1.59-2-.55-.74-1-1.53-1.54-2.3a14.43,14.43,0,0,0-6.32-5,11.56,11.56,0,0,1-4.52-3.7A8.13,8.13,0,0,1,373,151.66Z" style="fill:#263238"></path><path d="M380.24,164.05s-3,4.42-2.59,4.88a7.17,7.17,0,0,0,2.28,1Z" style="fill:#f28f8f"></path><path d="M389.32,150.06c-2.89,1.47-7.88,4.18-9.17,14.64-1.31,10.73,1.12,14.46,2.61,15.87,1,1,6.19,1.29,8.89.47,3.39-1,10.72-4.6,14.16-10.14,4-6.52,4.88-15.2.21-18.61C399.45,147.5,391.76,148.82,389.32,150.06Z" style="fill:#ffa8a7"></path><path d="M383,180.76c1.22.67,4.67,1,7.24.57l-.08-1.93a18.88,18.88,0,0,1-3.42,1.12A12.65,12.65,0,0,1,383,180.76Z" style="fill:#f28f8f"></path><path d="M388.05,149.75a11.14,11.14,0,0,0-3.36,1.93,4.66,4.66,0,0,0-1.19,1.53,3.51,3.51,0,0,0-.24,1.73,4.62,4.62,0,0,0,2.7,3.73,4.47,4.47,0,0,0-.73,3.73,9,9,0,0,0,2.64,3.82.82.82,0,0,0,.22.16.58.58,0,0,0,.48-.15c1.81-1.21,2.93-3.3,5.5-2.46,3.36,1.1,3.2,5.26.56,7.85a5.73,5.73,0,0,1-3.52,1.66,2.78,2.78,0,0,1-1.85-.66s.09,5.42,4.8,7.57c0,0,5.24,1.67,10.06.12,1.77-2.26,4.75-5.14,7.2-7.72,8.08-8.48,8.54-20.82-3.37-24.71-.41-.14-.82-.26-1.24-.37a25.33,25.33,0,0,0-11.71-.25,25.64,25.64,0,0,0-5.58,1.88C389,149.36,388.5,149.55,388.05,149.75Z" style="fill:#263238"></path><path d="M387.67,170a2.49,2.49,0,0,1-1.53-3.2,2.56,2.56,0,0,1,3.25-1.5Z" style="fill:#263238"></path></g></g></g></svg>