<?xml version="1.0" encoding="iso-8859-1"?>
<!-- Uploaded to: SVG Repo, www.svgrepo.com, Generator: SVG Repo Mixer Tools -->
<svg version="1.1" id="Layer_1" xmlns="http://www.w3.org/2000/svg" xmlns:xlink="http://www.w3.org/1999/xlink" 
	 viewBox="0 0 512 512" xml:space="preserve">
<g>
	<rect x="33.056" y="461.98" style="fill:#CCCCCC;" width="63.2" height="24.16"/>
	<rect x="415.744" y="461.98" style="fill:#CCCCCC;" width="63.2" height="24.16"/>
</g>
<path d="M498.432,461.98H13.568C6.104,461.98,0,455.876,0,448.412v-118.08c0-7.464,6.104-13.568,13.568-13.568h484.864
	c7.464,0,13.568,6.104,13.568,13.568v118.072C512,455.876,505.896,461.98,498.432,461.98z"/>
<circle style="fill:#FFA624;" cx="74.416" cy="389.372" r="16.792"/>
<circle style="fill:#09BA98;" cx="121.792" cy="389.372" r="16.792"/>
<circle style="fill:#05C3D6;" cx="169.12" cy="389.372" r="16.792"/>
<rect x="383.664" y="119.428" width="12.192" height="197.336"/>
<g>
	<rect x="415.744" y="461.98" style="fill:#999999;" width="63.2" height="8.152"/>
	<rect x="33.056" y="461.98" style="fill:#999999;" width="63.2" height="8.152"/>
</g>
<g>
	<circle style="fill:#05C3D6;" cx="389.76" cy="130.14" r="22.064"/>
	<path style="fill:#05C3D6;" d="M389.76,190.244c-33.096,0-60.008-26.968-60.008-60.104c0-33.128,26.92-60.096,60.008-60.096
		s60.024,26.968,60.024,60.096C449.784,163.276,422.856,190.244,389.76,190.244z M389.76,82.228
		c-26.368,0-47.824,21.488-47.824,47.904s21.456,47.92,47.824,47.92c26.384,0,47.832-21.504,47.832-47.92
		S416.136,82.228,389.76,82.228z"/>
	<path style="fill:#05C3D6;" d="M389.76,234.42c-57.416,0-104.12-46.784-104.12-104.288S332.344,25.86,389.76,25.86
		s104.128,46.776,104.128,104.272S447.176,234.42,389.76,234.42z M389.76,38.052c-50.688,0-91.928,41.312-91.928,92.08
		c0,50.784,41.24,92.096,91.928,92.096s91.944-41.312,91.944-92.096C481.696,79.356,440.448,38.052,389.76,38.052z"/>
</g>
<path style="opacity:0.25;fill:#FFFFFF;enable-background:new    ;" d="M0,330.332V392.1h512v-61.768
	c0-7.464-6.104-13.568-13.568-13.568H13.568C6.104,316.764,0,322.868,0,330.332z"/>
</svg>