<?xml version="1.0" encoding="UTF-8"?>
<svg version="1.1" xmlns="http://www.w3.org/2000/svg" width="1717" height="1484">
<path d="M0 0 C6.9685128 6.19204946 11.10573409 15.29115213 15.74377441 23.27511597 C17.23867475 25.8484322 18.73970931 28.41815316 20.24026489 30.98817444 C21.00073763 32.29083363 21.76089089 33.59367938 22.52072144 34.89671326 C25.83302643 40.57618343 29.17077172 46.24038499 32.51953125 51.8984375 C33.04264893 52.78289551 33.5657666 53.66735352 34.10473633 54.57861328 C35.65919414 57.20633544 37.21425405 59.83370025 38.76953125 62.4609375 C46.33322392 75.23783354 53.86834028 88.03103328 61.37194824 100.84329224 C65.98843435 108.72536962 70.61659769 116.60029975 75.26953125 124.4609375 C80.66363091 133.57369678 86.02154641 142.7074094 91.37304688 151.84521484 C96.5029309 160.60383122 101.65241014 169.35054385 106.82299805 178.08520508 C111.26445449 185.59356082 115.67464592 193.1200613 120.08203125 200.6484375 C126.27010438 211.2181104 132.49682613 221.7638874 138.74926758 232.2956543 C143.97840251 241.11015167 149.16561211 249.94859684 154.34228516 258.79394531 C159.45733478 267.53264057 164.6005386 276.25399142 169.76953125 284.9609375 C175.27542432 294.23708932 180.75478623 303.52819421 186.20703125 312.8359375 C186.55677002 313.43295471 186.90650879 314.02997192 187.2668457 314.64508057 C190.14331541 319.55592834 193.01808929 324.46776822 195.89239502 329.37988281 C198.5172722 333.86572356 201.1429982 338.35106609 203.76953125 342.8359375 C204.12930054 343.45045776 204.48906982 344.06497803 204.85974121 344.69812012 C209.45316476 352.54232242 214.07557888 360.36642183 218.8125 368.125 C220.46035791 370.93392347 222.03137959 373.76210139 223.58203125 376.625 C226.79928929 382.55642648 230.17119251 388.38916785 233.58203125 394.2109375 C234.18934082 395.24992187 234.79665039 396.28890625 235.42236328 397.359375 C240.14648135 405.42854409 244.92496333 413.46355553 249.76953125 421.4609375 C251.41953125 421.1309375 253.06953125 420.8009375 254.76953125 420.4609375 C254.76953125 419.8009375 254.76953125 419.1409375 254.76953125 418.4609375 C256.39769453 416.75663709 258.07267468 415.09685723 259.76953125 413.4609375 C265.96964566 406.90384681 271.86465915 400.20638466 277.5234375 393.17578125 C279.85783715 390.35420255 282.28943723 387.65503038 284.76953125 384.9609375 C288.06284824 381.38301287 291.21604446 377.74554084 294.26953125 373.9609375 C298.10672156 369.20498331 302.16338226 364.70588949 306.30078125 360.2109375 C308.71331229 357.52356116 311.00209335 354.77128306 313.26953125 351.9609375 C317.10672156 347.20498331 321.16338226 342.70588949 325.30078125 338.2109375 C327.71331229 335.52356116 330.00209335 332.77128306 332.26953125 329.9609375 C336.10672156 325.20498331 340.16338226 320.70588949 344.30078125 316.2109375 C346.71331229 313.52356116 349.00209335 310.77128306 351.26953125 307.9609375 C354.32301804 304.17633416 357.47621426 300.53886213 360.76953125 296.9609375 C364.88332034 292.4910863 368.74040422 287.87048857 372.5546875 283.14453125 C375.43434012 279.65542834 378.47647001 276.33096829 381.5234375 272.98828125 C383.83140723 270.39131357 386.02508988 267.72689737 388.20703125 265.0234375 C392.06778262 260.2495345 396.143902 255.72705322 400.30078125 251.2109375 C402.71331229 248.52356116 405.00209335 245.77128306 407.26953125 242.9609375 C411.10672156 238.20498331 415.16338226 233.70588949 419.30078125 229.2109375 C421.71331229 226.52356116 424.00209335 223.77128306 426.26953125 220.9609375 C430.10672156 216.20498331 434.16338226 211.70588949 438.30078125 207.2109375 C440.71331229 204.52356116 443.00209335 201.77128306 445.26953125 198.9609375 C448.32301804 195.17633416 451.47621426 191.53886213 454.76953125 187.9609375 C458.12035514 184.31918936 461.33649828 180.614501 464.45703125 176.7734375 C465.19308594 175.87238281 465.92914062 174.97132813 466.6875 174.04296875 C468.0030629 172.41147329 469.30006885 170.76467882 470.5703125 169.09765625 C475.66056091 162.69681515 480.1683992 161.08788159 488.15234375 160 C502.70490358 158.63284928 516.42093338 161.57489072 530.45703125 165.2109375 C531.86726249 165.57163957 533.2775002 165.93231633 534.68774414 166.29296875 C538.72012164 167.33007726 542.7455016 168.39189182 546.76953125 169.4609375 C548.32317383 169.87182617 548.32317383 169.87182617 549.90820312 170.29101562 C568.55609444 175.30304536 589.24574925 181.98748814 599.76953125 199.4609375 C605.66431287 210.39165839 606.05998929 221.18781664 606.01676941 233.33312988 C606.01836267 234.95581879 606.0208316 236.57850704 606.02409387 238.20119345 C606.03051141 242.66442332 606.02444354 247.12756223 606.01633339 251.59078613 C606.00970099 256.44411683 606.01463505 261.29743808 606.01807499 266.15077019 C606.02305713 275.776241 606.01723267 285.40167793 606.00811857 295.02714453 C605.99771077 306.5497443 605.998914 318.07233553 606.00031359 329.59493886 C606.00310571 357.42202083 605.98551958 385.24907888 605.9653052 413.07615197 C605.95586267 426.23264711 605.94871524 439.38914319 605.94181069 452.54563986 C605.91850533 496.80068754 605.89174982 541.05573074 605.85092635 585.31076602 C605.8398751 597.31362248 605.82905553 609.31647916 605.81835938 621.31933594 C605.81773266 622.02068091 605.81710595 622.72202589 605.81646025 623.44462374 C605.77480458 670.12858096 605.76563163 716.81246662 605.7769126 763.49643923 C605.77910089 772.5661279 605.78115511 781.63581659 605.78288269 790.70550537 C605.78301425 791.39295257 605.78314582 792.08039976 605.78328137 792.78867869 C605.78721865 813.96070782 605.78297553 835.13272275 605.77046204 856.30474854 C605.77007136 856.96905522 605.76968068 857.6333619 605.76927816 858.31779909 C605.76103013 872.23901521 605.75121137 886.16022991 605.73953554 900.08144359 C605.73407809 906.59604362 605.72886317 913.11064381 605.7237854 919.62524414 C605.72277608 920.90710693 605.72176675 922.18896972 605.72072684 923.50967684 C605.70510067 944.14261055 605.71268901 964.77547374 605.72864132 985.40840442 C605.74409892 1006.1299293 605.73387416 1026.85131744 605.69748461 1047.57281721 C605.67663774 1059.8770023 605.67525777 1072.18082997 605.70179747 1084.48500605 C605.71759911 1092.70020676 605.70803156 1100.91512513 605.67785229 1109.13028495 C605.66138304 1113.80988433 605.65589404 1118.48877602 605.6813482 1123.16835117 C605.70431186 1127.43045192 605.6947353 1131.69122941 605.65989205 1135.95323829 C605.65298657 1137.48006599 605.6576273 1139.00700434 605.67566815 1140.53374107 C605.79348021 1151.26361383 603.8758459 1159.54897474 597.76953125 1168.4609375 C591.48092422 1174.10507629 585.86675801 1175.66804322 577.51953125 1175.7734375 C576.80023437 1175.80244141 576.0809375 1175.83144531 575.33984375 1175.86132812 C561.92441532 1176.01115679 548.28722735 1170.13704346 535.70703125 1165.8984375 C534.54823456 1165.50984558 534.54823456 1165.50984558 533.36602783 1165.11340332 C448.53545058 1136.63883435 448.53545058 1136.63883435 436.24829102 1113.37744141 C434.96497391 1110.78432844 433.73543911 1108.18432562 432.62398531 1105.51263645 C431.83435053 1103.61658034 431.0146054 1101.73313947 430.19226044 1099.85103941 C428.39542507 1094.99766785 428.3497382 1090.45472912 428.38477039 1085.3247757 C428.37962049 1084.32615796 428.37447058 1083.32754023 428.36916462 1082.29866135 C428.35553989 1078.94967348 428.36323268 1075.60107728 428.37080383 1072.2520752 C428.36536501 1069.82803454 428.35861372 1067.40399654 428.35066193 1064.97996283 C428.33637828 1059.70837503 428.33136932 1054.43689968 428.33453941 1049.16530228 C428.33920287 1041.32668454 428.32670593 1033.48815951 428.31070968 1025.64956006 C428.28428533 1012.46313652 428.27175272 999.276734 428.26714516 986.09028625 C428.26253786 973.03459805 428.25175141 959.97893901 428.23271751 946.92326355 C428.23153739 946.11141425 428.23035726 945.29956496 428.22914137 944.46311417 C428.22311593 940.34011939 428.21698013 936.21712477 428.21080186 932.09413022 C428.16724294 902.89316484 428.1375307 873.69220015 428.1159668 844.49121094 C428.09498644 816.12336174 428.06773081 787.75552991 428.03198242 759.38769531 C428.03033321 758.07599848 428.03033321 758.07599848 428.02865067 756.73780272 C428.01760231 747.95604718 428.0064264 739.1742918 427.99515705 730.39253653 C427.97220311 712.50318769 427.95010045 694.61383784 427.92851257 676.7244873 C427.92751895 675.90196912 427.92652534 675.07945093 427.92550161 674.23200794 C427.85925024 619.30833193 427.81290505 564.38463575 427.76953125 509.4609375 C425.41334011 511.64626502 423.05996838 513.8346072 420.70703125 516.0234375 C420.05025391 516.63251953 419.39347656 517.24160156 418.71679688 517.86914062 C414.85652412 521.46318767 411.0757795 525.11477357 407.38183594 528.87988281 C405.67717685 530.55150187 403.901867 532.10366397 402.08203125 533.6484375 C394.34470051 540.33204616 387.09597394 547.69789342 380.46875 555.48046875 C378.48922693 557.78763702 376.44311005 560.02740532 374.39453125 562.2734375 C370.50345274 566.58517315 366.80945042 571.02516041 363.15625 575.5390625 C360.54562562 578.73504782 357.88228827 581.88161934 355.20703125 585.0234375 C351.29468744 589.62536224 347.4717554 594.28526256 343.71484375 599.015625 C333.69848555 611.60646885 323.29173753 623.84919203 312.359375 635.65234375 C309.92469219 638.29267096 307.53080067 640.96440136 305.14453125 643.6484375 C293.90307384 656.1057263 280.44636131 670.16658586 262.62573242 671.63793945 C236.30926008 672.33508294 213.80634287 664.45258455 194.31640625 646.2734375 C186.8783294 639.15247622 180.30571243 631.54236805 174.14794922 623.30126953 C172.70390597 621.37332089 171.24024906 619.46145291 169.7734375 617.55078125 C163.05587519 608.75836242 156.76745803 599.75676655 150.76953125 590.4609375 C150.26760254 589.6860498 149.76567383 588.91116211 149.24853516 588.11279297 C134.98479347 566.04688372 121.44266239 543.5602052 108.38671875 520.76171875 C105.43984018 515.61616158 102.45537295 510.4938476 99.45532227 505.37915039 C94.08880541 496.2296176 88.81424568 487.03569439 83.64453125 477.7734375 C83.06324463 476.73227783 82.48195801 475.69111816 81.88305664 474.6184082 C81.30934326 473.59062256 80.73562988 472.56283691 80.14453125 471.50390625 C69.08220073 451.68705446 57.53654775 432.3999162 44.83203125 413.5859375 C43.89170044 412.18516968 43.89170044 412.18516968 42.93237305 410.75610352 C42.33336182 409.87752686 41.73435059 408.9989502 41.1171875 408.09375 C40.59133057 407.31918457 40.06547363 406.54461914 39.52368164 405.74658203 C37.47821278 403.08135176 35.15956273 400.81775524 32.76953125 398.4609375 C32.80620468 399.50804416 32.80620468 399.50804416 32.84361899 400.5763045 C34.3294547 443.34922855 35.05873034 486.06732781 35.04310342 528.86476662 C35.04108084 536.76251327 35.05421743 544.66022025 35.06847604 552.55795176 C35.09405323 566.73711531 35.11426016 580.91627893 35.12792969 595.09545898 C35.12874006 595.93189293 35.12955043 596.76832687 35.13038535 597.63010729 C35.1407689 608.60968668 35.1464651 619.58926162 35.14912593 630.56884539 C35.15433654 652.02121223 35.17721795 673.47347657 35.23046875 694.92578125 C35.2323716 695.72345474 35.23427445 696.52112823 35.23623496 697.34297365 C35.34311388 741.62640047 35.94995189 785.790554 38.61688995 830.00829029 C38.66061139 830.73385958 38.70433283 831.45942888 38.74937916 832.20698512 C38.83547119 833.63349986 38.92205473 835.05998504 39.00916195 836.48643816 C45.47644097 943.90704199 45.47644097 943.90704199 28.76953125 964.4609375 C22.94691502 969.92541662 15.64938306 972.60149288 7.76953125 973.4609375 C-0.54552124 973.02078574 -8.10993032 970.53469976 -15.98046875 968.0078125 C-17.42629763 967.55060273 -18.87236876 967.09415838 -20.31866455 966.63842773 C-24.1662523 965.42363597 -28.0104908 964.1985917 -31.85377502 962.97026062 C-38.20411788 960.94140764 -44.55773667 958.92280441 -50.91059113 956.90183258 C-53.27319671 956.1497576 -55.63534789 955.39626675 -57.99749756 954.64276123 C-66.84629374 951.82436928 -75.71384709 949.09012458 -84.62109375 946.4609375 C-87.39698765 945.62947295 -90.17223269 944.79588071 -92.94726562 943.96154785 C-94.61130095 943.46847956 -96.27859869 942.98626613 -97.94921875 942.51599121 C-110.44234604 938.99523582 -119.53722795 933.32374953 -126.20703125 921.734375 C-130.35088115 912.52933438 -132.29614833 902.97474571 -132.76647091 892.95686817 C-132.80814376 892.08739372 -132.84981662 891.21791927 -132.89275229 890.32209711 C-133.41689797 878.42135051 -133.50778356 866.51106868 -133.6322486 854.6008265 C-133.67068241 851.00652774 -133.71366312 847.41228257 -133.75601858 843.81802827 C-133.82945705 837.53363439 -133.90003811 831.24921361 -133.96867752 824.96476555 C-134.07083428 815.61171701 -134.17744696 806.25872281 -134.28484963 796.90573324 C-134.48819482 779.18196218 -134.6861794 761.45813369 -134.88234741 743.73428192 C-134.90399561 741.77843046 -134.92564495 739.82257902 -134.94729543 737.86672759 C-134.96343179 736.40900459 -134.96343179 736.40900459 -134.97989414 734.92183264 C-135.09991265 724.08731068 -135.22132738 713.25280443 -135.34280205 702.41829872 C-135.71164681 669.50867913 -136.07934258 636.59904731 -136.44181156 603.6893568 C-136.45920686 602.11014279 -136.45920686 602.11014279 -136.47695358 600.49902546 C-136.53570274 595.16533676 -136.59444103 589.83164793 -136.65317828 584.4979591 C-136.6767445 582.35809578 -136.70031072 580.21823246 -136.72387695 578.07836914 C-136.74139074 576.48791581 -136.74139074 576.48791581 -136.75925833 574.86533211 C-137.12233249 541.89851116 -137.49219523 508.93177256 -137.86743164 475.96508789 C-138.29149702 438.70832057 -138.70920553 401.45148841 -139.11887544 364.19455987 C-139.16321276 360.16436224 -139.20757369 356.13416486 -139.25195122 352.10396767 C-139.26286992 351.11206753 -139.27378862 350.1201674 -139.2850382 349.09820969 C-139.4354391 335.44610612 -139.58953057 321.79404905 -139.74673232 308.14202216 C-140.32587449 257.82760145 -140.84099773 207.51315838 -141.21027628 157.19672298 C-141.23078203 154.4184925 -141.25164574 151.6402649 -141.2725932 148.86203772 C-141.4428423 126.21680375 -141.58611118 103.57173853 -141.6563958 80.92595163 C-141.66203237 79.1215438 -141.66769073 77.31713603 -141.6733712 75.51272833 C-141.67615283 74.6265095 -141.67893447 73.74029067 -141.6818004 72.82721672 C-141.70261361 66.66982356 -141.73866428 60.5126388 -141.78168309 54.3553642 C-141.833178 46.95421185 -141.86362663 39.55334936 -141.86634215 32.15201157 C-141.86823494 28.39654371 -141.87947144 24.64175808 -141.91699009 20.88646258 C-141.95732954 16.81056816 -141.95027575 12.73608629 -141.93883419 8.66000843 C-141.95771677 7.48906897 -141.97659934 6.31812951 -141.99605412 5.11170704 C-141.8907905 -5.7042666 -137.69784276 -14.84638656 -130.27734375 -22.7265625 C-97.38889806 -51.84915563 -31.72432586 -19.95496749 0 0 Z " fill="#0083BC" transform="translate(141.23046875,276.5390625)"/>
<path d="M0 0 C3.58347431 3.67777627 6.00671893 7.90081836 8.375 12.4375 C8.70726085 13.02675889 9.0395217 13.61601778 9.38185106 14.22313299 C12.87231527 21.03263726 12.93150046 27.23008545 12.86719131 34.77333164 C12.87015388 36.11917605 12.87487249 37.46501752 12.88117731 38.81085041 C12.89341552 42.50582376 12.88078541 46.20035465 12.86406477 49.89529492 C12.85029788 53.91619397 12.85981686 57.93704927 12.86637473 61.95795721 C12.87466298 69.0037874 12.86810615 76.04948239 12.8518219 83.09529686 C12.8276752 93.57212631 12.82647929 104.04887057 12.82998985 114.52572278 C12.83524501 132.14966704 12.82188152 149.7735513 12.79792023 167.3974781 C12.77425509 184.8482906 12.75885704 202.29907811 12.75450897 219.74990654 C12.75423401 220.83479741 12.75395906 221.91968828 12.75367576 223.03745464 C12.75232244 228.54702915 12.7511169 234.05660369 12.74996826 239.56617825 C12.7415658 278.59418467 12.71461409 317.62215845 12.67675781 356.65014648 C12.64002256 394.56616034 12.61168689 432.48216527 12.59472656 470.39819336 C12.59393741 472.15118642 12.59393741 472.15118642 12.59313231 473.93959349 C12.58785824 485.67573899 12.58275498 497.41188455 12.57777687 509.14803018 C12.56763192 533.05607964 12.55634691 556.96412851 12.54437256 580.87217712 C12.54354882 582.52107045 12.54354882 582.52107045 12.54270844 584.20327475 C12.50590351 657.61469674 12.44252244 731.02610063 12.375 804.4375 C13.035 804.1075 13.695 803.7775 14.375 803.4375 C16.12964512 803.1492354 17.88889316 802.88875359 19.64990234 802.64233398 C26.68477543 801.50207866 33.23437065 799.43037065 39.9765625 797.16015625 C41.30195955 796.72117536 42.62762664 796.28300912 43.95353699 795.84558105 C46.80479192 794.90308488 49.65414171 793.95510979 52.50210571 793.00271606 C57.10484767 791.46358388 61.7116617 789.93689632 66.3190918 788.41186523 C72.07766583 786.50492111 77.83524067 784.59501239 83.59161663 782.68144321 C94.61084007 779.01865038 105.63756835 775.37898226 116.66796875 771.75 C117.50937597 771.4731625 118.3507832 771.196325 119.21768761 770.91109848 C122.63086523 769.78817168 126.04408373 768.66536925 129.45737362 767.54278374 C135.5136333 765.5509312 141.56936074 763.55746755 147.62475586 761.56298828 C148.4858537 761.27936747 149.34695154 760.99574665 150.23414326 760.70353127 C151.97009861 760.13175174 153.70605321 759.55996995 155.44200706 758.98818588 C176.8045289 751.95216643 198.17060685 744.92698035 219.53747559 737.9041748 C224.02760829 736.42836609 228.5177225 734.95250113 233.0078125 733.4765625 C233.7513649 733.2321492 234.4949173 732.9877359 235.26100159 732.73591614 C247.25568657 728.79299409 259.24921356 724.84656063 271.2421875 720.8984375 C272.07484383 720.62432981 272.90750015 720.35022213 273.76538849 720.06780815 C281.32295877 717.57987394 288.88050106 715.09185472 296.43798828 712.60366821 C313.72931957 706.91089572 331.02182558 701.22177833 348.3203125 695.55078125 C349.03214376 695.31741814 349.74397503 695.08405502 350.47737694 694.8436203 C353.29052073 693.92140019 356.10367981 692.99922673 358.91685009 692.0770874 C386.16231776 683.15069829 386.16231776 683.15069829 413.375 674.125 C414.04312714 673.9019519 414.71125427 673.67890381 415.39962769 673.44909668 C422.39518498 671.11258886 429.38820464 668.76851766 436.38085938 666.42333984 C441.8707457 664.58234523 447.36165283 662.7444179 452.85302734 660.90786743 C455.01064847 660.18555458 457.16788446 659.4620901 459.32470703 658.73739624 C462.33534783 657.72582117 465.34722571 656.71801036 468.359375 655.7109375 C469.2535614 655.40943283 470.1477478 655.10792816 471.06903076 654.79728699 C485.08231186 650.12538676 497.60108432 648.77407557 511.375 655.4375 C520.3690499 660.30266022 526.52863704 666.23772447 529.68545532 676.00318909 C530.70754911 679.61150358 531.20259116 683.15046079 531.546875 686.87890625 C531.62645447 687.7149086 531.70603394 688.55091095 531.7880249 689.4122467 C532.84736876 702.18570565 532.67466231 715.03735124 532.63574219 727.84545898 C532.62435877 731.61469067 532.63111704 735.3836396 532.64262009 739.1528616 C532.8092623 803.42236533 532.8092623 803.42236533 515.5703125 821.51953125 C494.01905063 840.3481248 462.55432407 849.10218765 436.375 859.4375 C435.54192322 859.76639221 434.70884644 860.09528442 433.8505249 860.43414307 C406.22833629 871.32138354 378.35171786 881.50115515 350.375 891.4375 C349.46214233 891.7619812 348.54928467 892.0864624 347.60876465 892.42077637 C294.19454799 911.38653613 240.34221995 929.32224671 186.30685425 946.43521118 C165.89039243 952.90194452 145.54871585 959.59185719 125.2088356 966.29482269 C122.56169118 967.16717012 119.91444446 968.03920652 117.2671814 968.91119385 C94.25668806 976.4919128 71.26136027 984.1175073 48.28438568 991.79923248 C46.49292941 992.39807868 44.70133409 992.99650884 42.909729 993.59490967 C-6.52089327 1010.11140297 -55.71887006 1027.55789101 -104.00146484 1047.21240234 C-104.6862944 1047.49037155 -105.37112396 1047.76834076 -106.07670593 1048.05473328 C-107.90208188 1048.79809437 -109.72495389 1049.54759597 -111.54760742 1050.29760742 C-122.20032482 1054.24346522 -136.94022876 1054.3031505 -147.33203125 1049.6953125 C-155.44066236 1045.24730702 -160.74949808 1040.16630347 -163.6721758 1031.23885526 C-164.62151782 1027.45139238 -164.87610855 1024.28768651 -164.87799966 1020.39315963 C-164.88105276 1019.7154572 -164.88410585 1019.03775477 -164.88725147 1018.3395159 C-164.89503688 1016.07163144 -164.8886254 1013.80401463 -164.88226891 1011.536129 C-164.88496265 1009.88555977 -164.88853069 1008.23499177 -164.89289337 1006.58442611 C-164.90236375 1002.03409766 -164.89934671 997.48384914 -164.89433783 992.93351674 C-164.89107585 987.98857177 -164.89934986 983.04364407 -164.90615618 978.09870458 C-164.91647371 969.42707408 -164.91929694 960.75546591 -164.91724396 952.08382988 C-164.91419853 939.18878746 -164.92250777 926.29376981 -164.93299321 913.3987322 C-164.95235419 889.03003386 -164.95796345 864.66134325 -164.95910732 840.29263821 C-164.95923682 837.60456397 -164.9593727 834.91648973 -164.95951414 832.22841549 C-164.95954815 831.56136807 -164.95958216 830.89432066 -164.9596172 830.20705968 C-164.96043404 815.42677922 -164.96481363 800.64650048 -164.96982583 785.86622093 C-164.97188254 779.78063146 -164.9738626 773.69504197 -164.97585833 767.60945249 C-164.97607951 766.93705128 -164.97630069 766.26465008 -164.97652857 765.57187308 C-164.98917728 727.03837772 -164.99742674 688.50488349 -164.99651146 649.97138596 C-164.9964799 648.5292439 -164.99644843 647.08710184 -164.99641704 645.64495979 C-164.99627027 639.13377126 -164.99609394 632.62258273 -164.99590927 626.1113942 C-164.99582703 623.20787478 -164.99574673 620.30435537 -164.99566665 617.40083595 C-164.99562586 615.94757198 -164.99558382 614.494308 -164.99554053 613.04104402 C-164.99417999 567.08578052 -165.0088152 521.13054783 -165.03662109 475.17529297 C-165.0436231 463.59665816 -165.050562 452.01802333 -165.05714989 440.43938828 C-165.05755564 439.72645194 -165.05796138 439.01351561 -165.05837943 438.27897515 C-165.07080883 416.30662097 -165.07834043 394.33426932 -165.08086586 372.36191177 C-165.08094576 371.67209452 -165.08102566 370.98227727 -165.08110799 370.27155646 C-165.08281452 355.1285901 -165.08333693 339.9856239 -165.08276723 324.84265746 C-165.08257426 319.42425891 -165.08247018 314.00586036 -165.08240977 308.58746181 C-165.08239395 307.23949519 -165.08237354 305.89152858 -165.08234853 304.54356197 C-165.08200679 283.72924372 -165.09235271 262.91495042 -165.10905075 242.10063934 C-165.12740971 219.19893703 -165.13200967 196.29728071 -165.1180319 173.39557424 C-165.11062857 160.57366594 -165.11434197 147.75187321 -165.13391658 134.9299771 C-165.14588347 126.3694603 -165.14336225 117.80902753 -165.12897559 109.24851464 C-165.12118477 104.36821971 -165.11974064 99.48814903 -165.13589029 94.6078696 C-165.15045832 90.16672708 -165.14656351 85.72599534 -165.12804256 81.28487105 C-165.12460425 79.68959439 -165.12784271 78.09428549 -165.13864497 76.4990417 C-165.23927867 60.56886769 -161.15730284 49.34212579 -150.25 37.625 C-137.26661407 25.43709505 -115.79421819 20.97398682 -99.25 15.625 C-98.32955902 15.32612885 -97.40911804 15.02725769 -96.46078491 14.71932983 C-83.35764473 10.47415863 -70.20441855 6.45225899 -56.9375 2.75 C-56.2193512 2.54780853 -55.50120239 2.34561707 -54.7612915 2.13729858 C-15.08078749 -8.97665922 -15.08078749 -8.97665922 0 0 Z " fill="#0083BC" transform="translate(1171.625,385.5625)"/>
<path d="M0 0 C5.95103853 1.56289901 9.20002972 6.31618015 13.09375 10.8125 C14.4014155 12.00786598 15.7331455 13.17775585 17.09375 14.3125 C20.24769165 17.00861141 23.17748397 19.86066975 26.09375 22.8125 C28.98966958 25.74368191 31.89617571 28.57653174 35.03125 31.25 C38.38300096 34.11422355 41.49931417 37.17584093 44.59375 40.3125 C47.66765527 43.42829123 50.76077145 46.47127238 54.09375 49.3125 C57.94497069 52.5955078 61.4766386 56.16654512 65.02734375 59.765625 C67.63280232 62.39273558 70.27828425 64.91243084 73.09375 67.3125 C76.94418015 70.5948339 80.47520579 74.16504849 84.02514648 77.76342773 C87.24741448 81.01250607 90.58715645 84.03693863 94.06640625 87.00390625 C97.41254936 89.98900116 100.50968952 93.22132768 103.66015625 96.41015625 C105.72617365 98.44964373 107.82380549 100.367578 110.03125 102.25 C113.38300096 105.11422355 116.49931417 108.17584093 119.59375 111.3125 C122.66765527 114.42829123 125.76077145 117.47127238 129.09375 120.3125 C132.94497069 123.5955078 136.4766386 127.16654512 140.02734375 130.765625 C142.63280232 133.39273558 145.27828425 135.91243084 148.09375 138.3125 C151.94418015 141.5948339 155.47520579 145.16504849 159.02514648 148.76342773 C162.24741448 152.01250607 165.58715645 155.03693863 169.06640625 158.00390625 C172.41254936 160.98900116 175.50968952 164.22132768 178.66015625 167.41015625 C180.72617365 169.44964373 182.82380549 171.367578 185.03125 173.25 C188.38300096 176.11422355 191.49931417 179.17584093 194.59375 182.3125 C197.66765527 185.42829123 200.76077145 188.47127238 204.09375 191.3125 C207.94497069 194.5955078 211.4766386 198.16654512 215.02734375 201.765625 C217.63280232 204.39273558 220.27828425 206.91243084 223.09375 209.3125 C226.94418015 212.5948339 230.47520579 216.16504849 234.02514648 219.76342773 C237.24741448 223.01250607 240.58715645 226.03693863 244.06640625 229.00390625 C247.41254936 231.98900116 250.50968952 235.22132768 253.66015625 238.41015625 C255.72617365 240.44964373 257.82380549 242.367578 260.03125 244.25 C263.38300096 247.11422355 266.49931417 250.17584093 269.59375 253.3125 C272.66765527 256.42829123 275.76077145 259.47127238 279.09375 262.3125 C282.94497069 265.5955078 286.4766386 269.16654512 290.02734375 272.765625 C292.63280232 275.39273558 295.27828425 277.91243084 298.09375 280.3125 C301.94497069 283.5955078 305.4766386 287.16654512 309.02734375 290.765625 C312.22306767 293.98790618 315.532193 296.98598147 318.98828125 299.921875 C322.66128858 303.22008566 326.05372132 306.80864973 329.48046875 310.359375 C331.90254581 312.63301386 334.18270136 314.23896019 337.09375 315.8125 C337.939375 314.95527344 338.785 314.09804688 339.65625 313.21484375 C349.95923239 302.81440483 349.95923239 302.81440483 353.96875 299.4375 C358.07533784 295.96000647 361.8102697 292.13279801 365.59375 288.3125 C369.91703437 283.94718589 374.24051836 279.70636035 378.94140625 275.74609375 C382.1172768 272.8929977 385.09134552 269.84626938 388.09375 266.8125 C395.37485202 259.45533527 395.37485202 259.45533527 399.03125 256.375 C403.11996173 252.92211385 406.83109476 249.11172582 410.59375 245.3125 C414.89562642 240.96885272 419.19682903 236.7520124 423.875 232.8125 C427.24387061 229.77577156 430.40284659 226.53438306 433.59375 223.3125 C437.89562857 218.96885562 442.19682899 214.75201243 446.875 210.8125 C450.9486308 207.14049477 454.74504989 203.17916828 458.60327148 199.28344727 C462.26221971 195.60257002 465.97115091 192.0908384 469.94140625 188.74609375 C473.1172768 185.8929977 476.09134552 182.84626938 479.09375 179.8125 C486.37485202 172.45533527 486.37485202 172.45533527 490.03125 169.375 C494.11996173 165.92211385 497.83109476 162.11172582 501.59375 158.3125 C505.89562642 153.96885272 510.19682903 149.7520124 514.875 145.8125 C518.24387061 142.77577156 521.40284659 139.53438306 524.59375 136.3125 C528.89562857 131.96885562 533.19682899 127.75201243 537.875 123.8125 C541.9486308 120.14049477 545.74504989 116.17916828 549.60327148 112.28344727 C553.26221971 108.60257002 556.97115091 105.0908384 560.94140625 101.74609375 C564.1172768 98.8929977 567.09134552 95.84626938 570.09375 92.8125 C577.37485202 85.45533527 577.37485202 85.45533527 581.03125 82.375 C585.11996173 78.92211385 588.83109476 75.11172582 592.59375 71.3125 C596.89562642 66.96885272 601.19682903 62.7520124 605.875 58.8125 C609.24387061 55.77577156 612.40284659 52.53438306 615.59375 49.3125 C619.89562857 44.96885562 624.19682899 40.75201243 628.875 36.8125 C632.94632948 33.1425692 636.7406988 29.18362093 640.59667969 25.29003906 C644.31427072 21.55010898 648.08052666 17.96679805 652.1171875 14.5703125 C655.36388534 11.682933 658.38275049 8.56419362 661.41503906 5.45410156 C664.98339254 1.81904989 666.77221686 0.64599868 671.84375 0.5 C678.67757904 0.60785096 682.10196842 3.6215695 686.71875 8.375 C693.60487834 16.6963746 694.54154156 25.45436624 694.625 35.91796875 C693.49021296 44.236959 689.52889094 48.97548974 683.15625 54.125 C682.4952832 54.67768555 681.83431641 55.23037109 681.15332031 55.79980469 C679.79634459 56.93332438 678.43485212 58.0614593 677.06884766 59.18408203 C674.67452768 61.15813818 672.31516309 63.17091015 669.95605469 65.18676758 C665.48902675 68.99835184 660.96789908 72.73955727 656.40625 76.4375 C652.01148359 80.01182521 647.80671517 83.75107678 643.62109375 87.56640625 C641.02412607 89.87437598 638.35970987 92.06805863 635.65625 94.25 C630.88090598 98.11191675 626.35707315 102.18924224 621.83984375 106.34765625 C619.17499834 108.73957297 616.44543175 111.00504884 613.65625 113.25 C609.1197827 116.90885769 604.835089 120.76118963 600.57226562 124.72851562 C597.36093772 127.6995119 594.06756211 130.51203832 590.65625 133.25 C586.47137447 136.61596464 582.51062569 140.14427829 578.59375 143.8125 C573.81058601 148.29165827 568.88560052 152.49701422 563.7734375 156.6015625 C560.96121685 158.9218495 558.27577737 161.34321134 555.59375 163.8125 C551.1238988 167.92628909 546.50330107 171.78337297 541.77734375 175.59765625 C539.14666443 177.76882827 536.61432576 180.01491357 534.09375 182.3125 C529.84935459 186.17590244 525.47385875 189.82770758 521 193.421875 C518.95119741 195.10718035 516.96769398 196.80425624 515 198.578125 C508.44532886 204.43333727 502.44653395 208.29726858 494.44140625 212.01171875 C489.85875927 214.4768299 486.44022492 217.6851313 482.72265625 221.2890625 C480.19580788 223.71453657 477.58764627 225.88839662 474.84375 228.0625 C469.51547399 232.35875699 464.53581463 236.97115907 459.57128906 241.67675781 C456.55287289 244.53484619 453.50951589 247.33151486 450.3515625 250.03515625 C445.3955561 254.34096823 440.77535783 258.9805758 436.14575195 263.63012695 C434.63802904 265.14328666 433.12493241 266.65092885 431.61132812 268.15820312 C430.64811608 269.12207474 429.6852136 270.08625584 428.72265625 271.05078125 C427.85713135 271.91743408 426.99160645 272.78408691 426.09985352 273.67700195 C424.0569726 275.64734761 424.0569726 275.64734761 423.09375 277.8125 C433.80999341 276.67346328 441.11365481 271.43418463 449.125 264.53125 C455.07368232 259.63964539 461.37598857 255.98925406 468.15625 252.375 C469.41005008 251.69584195 470.66337404 251.01580428 471.91625977 250.33496094 C475.96513512 248.14138821 480.02784792 245.97431415 484.09375 243.8125 C485.15402405 243.24834381 485.15402405 243.24834381 486.23571777 242.67279053 C492.78728047 239.18836069 499.3446549 235.71497365 505.90820312 232.25317383 C516.46177479 226.68690774 526.97746607 221.05870704 537.42138672 215.28857422 C539.27581387 214.2642853 541.13171444 213.2426612 542.98876953 212.22314453 C558.25041595 203.83727145 573.20129015 195.02051779 588.03765869 185.91171265 C591.75133866 183.63193714 595.47367196 181.3671522 599.203125 179.11328125 C611.35609674 171.76549373 623.38103843 164.23808297 635.33789062 156.57568359 C639.08460456 154.17855673 642.83980973 151.79489359 646.59472656 149.41064453 C654.55789962 144.35310305 662.50187893 139.26806026 670.41577148 134.13378906 C714.83499638 105.33766204 759.63992515 76.93976106 806.15625 51.625 C807.12506104 51.09632324 808.09387207 50.56764648 809.09204102 50.02294922 C826.44481715 40.66172316 826.44481715 40.66172316 833.09375 41.8125 C836.6586325 44.64820199 839.08726689 47.74119069 841.09375 51.8125 C841.36291062 54.44207273 841.47462828 56.82529313 841.43432617 59.44848633 C841.43476425 60.20024139 841.43520233 60.95199646 841.43565369 61.72653198 C841.43357165 64.19946702 841.41026895 66.67171535 841.38671875 69.14453125 C841.3811207 70.86374033 841.37685159 72.58295421 841.37385559 74.3021698 C841.36242326 78.8182811 841.33297005 83.33410112 841.29974365 87.85009766 C841.26900794 92.46187398 841.25534278 97.07369756 841.24023438 101.68554688 C841.20809873 110.72799228 841.15692194 119.77022188 841.09375 128.8125 C843.6465073 128.1906662 846.19812397 127.56467112 848.74926758 126.9362793 C849.4662104 126.76209221 850.18315323 126.58790512 850.92182159 126.40843964 C856.77276117 124.96184025 862.25257958 123.03169437 867.78125 120.625 C868.75763428 120.21064697 869.73401855 119.79629395 870.73999023 119.36938477 C881.28148986 114.84012897 891.66472257 109.95672479 902.07196045 105.1295166 C911.76230198 100.64000552 921.45386143 96.25952688 931.40625 92.375 C932.29320557 92.02816162 933.18016113 91.68132324 934.09399414 91.32397461 C943.04853761 87.92263639 953.84428839 84.02424553 963.27734375 87.65234375 C967.96254829 90.64482923 970.134217 94.73149986 972.09375 99.8125 C972.50625 100.84375 972.91875 101.875 973.34375 102.9375 C975.19799903 112.51778663 975.41769149 123.27284448 970.09375 131.8125 C965.08790634 137.19706002 959.60526053 139.49862771 952.72265625 141.73828125 C951.70974518 142.08279327 950.69683411 142.4273053 949.65322876 142.78225708 C946.32559557 143.91097427 942.99102888 145.01759357 939.65625 146.125 C936.10817633 147.32378352 932.56211201 148.52839524 929.01600647 149.73298645 C926.59326422 150.55536438 924.16986615 151.37581264 921.74583435 152.19438171 C911.18670531 155.76250625 900.6791817 159.46609888 890.18283081 163.21420288 C870.86193432 170.11131526 851.48603901 176.84166536 832.08831787 183.51922607 C815.99929247 189.05960758 799.93842429 194.67224346 783.90625 200.375 C764.95817497 207.11444458 745.96853893 213.72714064 726.95898438 220.29101562 C724.78904944 221.04032675 722.61912742 221.78967529 720.44921875 222.5390625 C719.3917746 222.90424988 718.33433044 223.26943726 717.24484253 223.64569092 C707.455861 227.02858555 697.67930569 230.44641533 687.90625 233.875 C671.11991235 239.7629032 654.31612594 245.59968477 637.50756836 251.42382812 C627.69230594 254.82545423 617.87898919 258.23229546 608.07421875 261.6640625 C584.63562913 269.86667952 561.15308237 277.93064767 537.63774109 285.91055298 C528.84889561 288.89363721 520.06550167 291.89254536 511.28323364 294.89492798 C506.1608892 296.64552832 501.03756738 298.39326721 495.91444397 300.1415863 C491.60819737 301.61148776 487.3025206 303.08301971 482.99804688 304.55810547 C470.95877255 308.68319281 458.9086812 312.77553611 446.85205078 316.84960938 C441.11887574 318.78692669 435.38803045 320.7310292 429.65815639 322.67808723 C418.9138239 326.32897225 408.16503004 329.96630509 397.4102087 333.58618355 C391.89442168 335.44313349 386.38072557 337.30582433 380.87155151 339.18231201 C375.6170596 340.97174087 370.3574065 342.74510456 365.09359932 344.50693512 C363.12578559 345.16865143 361.15988776 345.8360957 359.19605827 346.50954437 C356.47596343 347.44128247 353.74969102 348.35211376 351.02099609 349.25830078 C350.23053107 349.53444906 349.44006605 349.81059734 348.62564754 350.09511375 C341.76179185 352.3322748 336.30213389 351.65986362 329.38354492 349.56347656 C328.53661072 349.3101506 327.68967651 349.05682465 326.81707764 348.79582214 C325.9119342 348.51773209 325.00679077 348.23964203 324.07421875 347.953125 C322.60133392 347.50873833 322.60133392 347.50873833 321.09869385 347.05537415 C317.824032 346.06478274 314.55257121 345.0640642 311.28125 344.0625 C308.93958454 343.35001456 306.59786776 342.63769778 304.25610352 341.92553711 C259.61282553 328.31802208 215.10515813 314.28543492 170.78189087 299.66867065 C164.61018721 297.63493464 158.43207557 295.6226711 152.24609375 293.6328125 C101.60566663 277.32552031 51.18357668 260.24475706 1.00099182 242.58027649 C-9.91915915 238.74366215 -20.87105091 234.99858454 -31.81689453 231.23608398 C-52.84118455 224.00737043 -73.83235291 216.69430306 -94.7800293 209.24658203 C-96.74005529 208.54975877 -98.70009773 207.85298175 -100.66015625 207.15625 C-102.12853188 206.63428543 -102.12853188 206.63428543 -103.62657166 206.10177612 C-116.20655511 201.63436363 -128.80741521 197.22639467 -141.40625 192.8125 C-159.94703544 186.315401 -178.47746066 179.79027237 -196.99295044 173.22143555 C-208.66188556 169.08172171 -220.33480661 164.95373743 -232.015625 160.84765625 C-233.2111348 160.42737656 -234.40664459 160.00709686 -235.63838196 159.57408142 C-242.48115213 157.1689927 -249.32471193 154.76616728 -256.16902161 152.36546326 C-258.26790209 151.62709827 -260.36573085 150.88573621 -262.46244812 150.14125061 C-267.90834813 148.20760226 -273.36428721 146.31961429 -278.84814453 144.49609375 C-281.10842379 143.72663698 -283.36867848 142.95710802 -285.62890625 142.1875 C-287.19420326 141.68367798 -287.19420326 141.68367798 -288.79112244 141.16967773 C-296.30469305 138.57662433 -300.5518455 135.33434158 -304.234375 128.26171875 C-307.39067735 116.75589564 -306.04182352 105.48396997 -300.3671875 95.0859375 C-297.47731413 90.58886183 -294.84576456 87.56065231 -289.52734375 86.20703125 C-269.1378816 84.66984563 -245.99039144 99.28253958 -228.0983429 107.46990967 C-200.75967711 120.2447779 -200.75967711 120.2447779 -171.90625 128.8125 C-171.80595002 119.68520227 -171.87108977 110.6134097 -172.40625 101.5 C-172.93031307 91.98788353 -173.04855544 82.47917451 -173.08349609 72.95474243 C-173.09028602 71.28787495 -173.10049273 69.62101759 -173.11425781 67.95419312 C-173.13229271 65.58654913 -173.13641863 63.21926771 -173.13671875 60.8515625 C-173.1474366 59.79170387 -173.1474366 59.79170387 -173.15837097 58.71043396 C-173.13031286 52.48948987 -172.48889911 47.54237228 -168.21875 42.875 C-163.60589632 40.00284582 -160.91119915 40.15236179 -155.68359375 41.30078125 C-146.42544115 44.09110545 -138.55149953 49.85689305 -130.5390625 55.09765625 C-126.0824377 58.00041335 -121.58510211 60.83890701 -117.09375 63.6875 C-115.23932265 64.8680802 -113.38515779 66.04907282 -111.53125 67.23046875 C-107.76205496 69.63149324 -103.99115881 72.02980938 -100.21875 74.42578125 C-91.31375129 80.08307455 -82.42120929 85.75727416 -73.57104492 91.5 C-64.12931084 97.6217456 -54.64090065 103.67086771 -45.16015625 109.73193359 C-40.94336182 112.42817625 -36.72771395 115.12620783 -32.51220703 117.82446289 C-30.44034974 119.15060139 -28.36840953 120.47661036 -26.29638672 121.80249023 C-21.01155975 125.18426617 -15.72764943 128.56746075 -10.4453125 131.953125 C9.98273391 145.0434977 30.50113237 157.98256254 51.09375 170.8125 C51.97256836 171.36019043 52.85138672 171.90788086 53.75683594 172.47216797 C86.50464253 192.86266694 119.60453405 212.66299715 153.09375 231.8125 C154.07827148 232.37565918 155.06279297 232.93881836 156.07714844 233.51904297 C168.69405595 240.7235719 181.40373332 247.73961598 194.1953125 254.62890625 C198.92098012 257.17438951 203.63028208 259.74830421 208.3347168 262.33276367 C217.45494379 267.33753468 226.62600399 272.2395906 235.84375 277.0625 C236.93421631 277.63613281 238.02468262 278.20976562 239.14819336 278.80078125 C240.1563208 279.32542969 241.16444824 279.85007812 242.203125 280.390625 C243.09999023 280.85887695 243.99685547 281.32712891 244.92089844 281.80957031 C246.99754134 282.95219468 246.99754134 282.95219468 249.09375 282.8125 C242.55757423 270.09867287 232.12632593 261.55707013 221.09375 252.8125 C219.25786317 251.31562637 217.42453164 249.81561334 215.59375 248.3125 C214.22283203 247.19101562 214.22283203 247.19101562 212.82421875 246.046875 C211.05552205 244.59952949 209.28726457 243.15164699 207.51953125 241.703125 C204.71276247 239.40400797 201.90373827 237.10768126 199.09375 234.8125 C198.49401367 234.32233398 197.89427734 233.83216797 197.27636719 233.32714844 C190.28339662 227.61522532 183.27689228 221.92731389 176.15625 216.375 C170.15093586 211.69166452 164.27525341 206.86168884 158.41040039 202.00415039 C154.01973102 198.37560874 149.58864895 194.81091283 145.09375 191.3125 C139.01577265 186.58116679 133.06652719 181.70369525 127.13110352 176.79516602 C122.6974295 173.12931523 118.23567029 169.5045386 113.734375 165.921875 C104.58600257 158.61400353 95.5148514 151.21944658 86.60400391 143.62353516 C83.49844714 140.98192711 80.3549686 138.40276787 77.15625 135.875 C72.44364376 132.14163662 67.89263206 128.23746878 63.34277344 124.30932617 C59.74377258 121.20790332 56.1036925 118.17186431 52.40625 115.1875 C47.71205252 111.3799079 43.26489988 107.35184087 38.8203125 103.2578125 C36.2675879 100.9684062 33.65277146 98.82012128 30.96875 96.6875 C25.12292869 91.97719794 19.71017635 86.84252556 14.28271484 81.65966797 C10.26465541 77.82686839 6.18416379 74.09861177 1.98901367 70.46044922 C-24.09375087 47.78124522 -24.09375087 47.78124522 -26.3828125 35.19140625 C-26.93605965 25.1601618 -22.83406555 15.09695577 -16.41796875 7.46875 C-15.91910156 6.9221875 -15.42023438 6.375625 -14.90625 5.8125 C-14.04 4.8225 -13.17375 3.8325 -12.28125 2.8125 C-8.01582844 0.28484278 -4.92432256 -0.19502268 0 0 Z " fill="#0083BC" transform="translate(517.90625,-0.8125)"/>
<path d="M0 0 C2 2 2 2 2.24934233 4.84582428 C2.24903037 6.07713533 2.24871841 7.30844637 2.24839699 8.57706988 C2.25095317 9.26502582 2.25350934 9.95298176 2.25614297 10.66178485 C2.26232667 12.99476113 2.25410801 15.3274727 2.24609566 17.66044044 C2.24757345 19.34602981 2.24992904 21.03161859 2.25308865 22.71720564 C2.25926294 27.38801123 2.25284665 32.05873062 2.24453239 36.72952983 C2.23769479 41.79620844 2.24239967 46.86287784 2.24568737 51.92955816 C2.24984582 60.82236289 2.24652866 69.71514094 2.23841095 78.60794258 C2.22637349 91.83134676 2.2257363 105.05473399 2.22749493 118.27814265 C2.23012691 140.51871199 2.22343858 162.75927069 2.21146011 184.99983597 C2.19962272 207.03102296 2.19191145 229.06220508 2.18975449 251.09339523 C2.18968566 251.77712681 2.18961684 252.46085839 2.18954593 253.16530911 C2.18891955 259.40997236 2.18834416 265.65463563 2.18782998 271.89929889 C2.18655105 287.42412972 2.18463231 302.94896043 2.18227959 318.47379112 C2.18217295 319.18082547 2.18206632 319.88785981 2.18195645 320.61631944 C2.17671105 355.02513928 2.16409496 389.43395589 2.15087891 423.84277344 C2.14629566 435.78619382 2.14174497 447.72961422 2.1373291 459.67303467 C2.1370552 460.41374794 2.1367813 461.15446121 2.13649911 461.91762034 C2.12381533 496.33948497 2.11636118 530.76135014 2.11025951 565.18321649 C2.10986338 567.41739667 2.109465 569.65157685 2.10906615 571.88575703 C2.10642663 586.6915535 2.10387733 601.49734999 2.10138843 616.30314649 C2.09643519 645.76402093 2.09095181 675.22489526 2.08510434 704.68576953 C2.08482586 706.08883242 2.08454775 707.49189531 2.08427001 708.8949582 C2.06713328 795.4444031 2.03843105 881.99384441 2 989 C-1.6138442 989.66910235 -5.23042121 990.32215628 -8.84765625 990.97265625 C-9.8571936 991.15977173 -10.86673096 991.34688721 -11.90686035 991.53967285 C-25.19328969 993.90910829 -38.79506003 995.52296398 -50.8125 988.3125 C-57.65522047 981.07876693 -56.42347209 971.09148951 -56.38311005 961.82105827 C-56.38684805 960.15245984 -56.39189805 958.48386393 -56.39813888 956.81527299 C-56.41150064 952.21955333 -56.40615608 947.62401539 -56.39780539 943.02829087 C-56.39200829 938.0325058 -56.40354092 933.03675603 -56.41286707 928.04098046 C-56.42679665 919.28179092 -56.4295081 910.52265303 -56.42490768 901.76345444 C-56.41808453 888.73849949 -56.42832166 875.71359696 -56.44186524 862.68864929 C-56.46611351 838.75294074 -56.47140595 814.81724766 -56.46955473 790.88152959 C-56.4692951 787.49018703 -56.46905643 784.09884446 -56.46883965 780.70750189 C-56.46879561 780.03391009 -56.46875157 779.36031829 -56.46870619 778.66631462 C-56.4678429 763.74067106 -56.47263357 748.81503094 -56.47852156 733.88938871 C-56.47986252 730.48170978 -56.48116241 727.07403084 -56.4824672 723.66635189 C-56.48299173 722.29872943 -56.48351632 720.93110697 -56.48404097 719.56348451 C-56.48430075 718.88558209 -56.48456053 718.20767968 -56.48482819 717.50923476 C-56.48535437 716.13803535 -56.48588204 714.76683593 -56.4864112 713.39563652 C-56.50140821 674.48786801 -56.51017699 635.58010223 -56.50545502 596.67233086 C-56.50536915 595.95184233 -56.50528329 595.2313538 -56.50519482 594.48903229 C-56.50423541 586.45470754 -56.5031972 578.42038281 -56.50213593 570.38605808 C-56.50184641 568.18702778 -56.50155693 565.98799749 -56.50126753 563.78896719 C-56.50107353 562.32174091 -56.50087803 560.85451463 -56.50068104 559.38728835 C-56.49446311 512.97513068 -56.50933353 466.56302513 -56.54199219 420.15087891 C-56.55021522 408.45384674 -56.55836509 396.75681453 -56.56609344 385.05978203 C-56.56656964 384.33957877 -56.56704584 383.61937551 -56.56753646 382.8773479 C-56.58211813 360.68729092 -56.59056733 338.49723827 -56.592659 316.30717659 C-56.59272531 315.61071538 -56.59279163 314.91425417 -56.59285996 314.19668807 C-56.59425387 298.90932467 -56.5941429 283.62196159 -56.59264987 268.33459821 C-56.59212774 262.86488909 -56.59171058 257.39517996 -56.5913417 251.92547082 C-56.59124848 250.56472049 -56.59114934 249.20397016 -56.59104425 247.84321983 C-56.58941806 226.1461156 -56.60225437 204.44905015 -56.62220203 182.75195597 C-56.64272272 160.29979429 -56.6449073 137.84769101 -56.62604648 115.39552604 C-56.61569023 102.44367593 -56.61926662 89.49200312 -56.64257733 76.5401689 C-56.65675485 67.89945077 -56.65291113 59.25886455 -56.63413157 50.61815545 C-56.62393106 45.68793729 -56.62178341 40.75806553 -56.64145225 35.82786833 C-56.65916723 31.34724933 -56.65408673 26.86727069 -56.63042386 22.38668444 C-56.62595506 20.77154276 -56.62995601 19.15635109 -56.64323221 17.54125779 C-56.66000246 15.35382207 -56.64610226 13.16864602 -56.62444448 10.98130214 C-56.62455317 9.76862692 -56.62466185 8.5559517 -56.62477383 7.30652874 C-55.78602451 2.86756443 -54.14126961 1.20642099 -51 -2 C-37.12902205 -10.40418076 -13.76182408 -6.52412401 0 0 Z " fill="#0083BC" transform="translate(904,491)"/>
</svg>
